<svg width="49" height="49" viewBox="0 0 49 49" fill="none" xmlns="http://www.w3.org/2000/svg">
<path d="M24.5 46.5833C36.6963 46.5833 46.5833 36.6963 46.5833 24.5C46.5833 12.3037 36.6963 2.41666 24.5 2.41666C12.3037 2.41666 2.41666 12.3037 2.41666 24.5C2.41666 36.6963 12.3037 46.5833 24.5 46.5833Z" fill="#BB3E03"/>
<path d="M24.5 15.6667V33.3333M15.6667 24.5H33.3333M46.5833 24.5C46.5833 36.6963 36.6963 46.5833 24.5 46.5833C12.3037 46.5833 2.41666 36.6963 2.41666 24.5C2.41666 12.3037 12.3037 2.41666 24.5 2.41666C36.6963 2.41666 46.5833 12.3037 46.5833 24.5Z" stroke="#121619" stroke-width="3" stroke-linecap="round" stroke-linejoin="round"/>
</svg>
