<svg width="24" height="24" viewBox="0 0 24 24" fill="none" xmlns="http://www.w3.org/2000/svg">
<g filter="url(#filter0_d_499_1293)">
<path d="M18.8571 9.14286H13.1429V14.8571C13.1429 15.4857 12.6286 16 12 16C11.3714 16 10.8571 15.4857 10.8571 14.8571V9.14286H5.14286C4.51429 9.14286 4 8.62857 4 8C4 7.37143 4.51429 6.85714 5.14286 6.85714H10.8571V1.14286C10.8571 0.514286 11.3714 0 12 0C12.6286 0 13.1429 0.514286 13.1429 1.14286V6.85714H18.8571C19.4857 6.85714 20 7.37143 20 8C20 8.62857 19.4857 9.14286 18.8571 9.14286Z" fill="black"/>
</g>
<defs>
<filter id="filter0_d_499_1293" x="0" y="0" width="24" height="24" filterUnits="userSpaceOnUse" color-interpolation-filters="sRGB">
<feFlood flood-opacity="0" result="BackgroundImageFix"/>
<feColorMatrix in="SourceAlpha" type="matrix" values="0 0 0 0 0 0 0 0 0 0 0 0 0 0 0 0 0 0 127 0" result="hardAlpha"/>
<feOffset dy="4"/>
<feGaussianBlur stdDeviation="2"/>
<feComposite in2="hardAlpha" operator="out"/>
<feColorMatrix type="matrix" values="0 0 0 0 0 0 0 0 0 0 0 0 0 0 0 0 0 0 0.25 0"/>
<feBlend mode="normal" in2="BackgroundImageFix" result="effect1_dropShadow_499_1293"/>
<feBlend mode="normal" in="SourceGraphic" in2="effect1_dropShadow_499_1293" result="shape"/>
</filter>
</defs>
</svg>
