<svg width="242" height="247" viewBox="0 0 242 247" fill="none" xmlns="http://www.w3.org/2000/svg">
<g id="checklist/cuate">
<g id="background-complete">
<path id="Vector" d="M10.8639 19.3677H104.401V141.621H10.8639V19.3677ZM101.933 21.8354H13.3317V139.154H101.933V21.8354Z" fill="#EBEBEB"/>
<path id="Vector_2" d="M59.8277 22.4822H57.36V140.39H59.8277V22.4822Z" fill="#EBEBEB"/>
<path id="Vector_3" d="M8.62309 27.7921L106.636 27.7921V24.3599L8.62309 24.3599V27.7921Z" fill="#EBEBEB"/>
<path id="Vector_4" d="M8.62309 31.6555L106.636 31.6555V28.2233L8.62309 28.2233V31.6555Z" fill="#EBEBEB"/>
<path id="Vector_5" d="M8.62309 35.5132L106.636 35.5132V32.081L8.62309 32.081V35.5132Z" fill="#EBEBEB"/>
<path id="Vector_6" d="M8.62309 39.3822L106.636 39.3822V35.95L8.62309 35.95V39.3822Z" fill="#EBEBEB"/>
<path id="Vector_7" d="M8.62309 43.2455L106.636 43.2455V39.8133L8.62309 39.8133V43.2455Z" fill="#EBEBEB"/>
<path id="Vector_8" d="M8.62309 47.1088L106.636 47.1088V43.6766L8.62309 43.6766V47.1088Z" fill="#EBEBEB"/>
<path id="Vector_9" d="M8.62309 50.9722L106.636 50.9722V47.54L8.62309 47.54V50.9722Z" fill="#EBEBEB"/>
<path id="Vector_10" d="M8.62309 54.8412L106.636 54.8412V51.409L8.62309 51.409V54.8412Z" fill="#EBEBEB"/>
<path id="Vector_11" d="M8.62309 58.7045L106.636 58.7045V55.2723L8.62309 55.2723V58.7045Z" fill="#EBEBEB"/>
<path id="Vector_12" d="M16.571 23.6565H15.9526V102.824H16.571V23.6565Z" fill="#263238"/>
<path id="Vector_13" d="M15.1641 105.7H17.3539L16.8036 102.557H15.7143L15.1641 105.7Z" fill="#263238"/>
<path id="Vector_14" d="M14.3471 23.6565H13.7288V138.184H14.3471V23.6565Z" fill="#263238"/>
<path id="Vector_15" d="M12.9459 140.498H15.13L14.5854 137.355H13.4905L12.9459 140.498Z" fill="#263238"/>
<path id="Vector_16" d="M4.79941 26.0732L110.465 26.0732V18.8855L4.79941 18.8855V26.0732Z" fill="#DBDBDB"/>
<path id="Vector_17" d="M214.492 169.646H229.514V163.298H214.492V169.646Z" fill="#EBEBEB"/>
<path id="Vector_18" d="M222.871 177.651H237.893V171.303H222.871V177.651Z" fill="#EBEBEB"/>
<path id="Vector_19" d="M206.107 177.651H221.129V171.303H206.107V177.651Z" fill="#EBEBEB"/>
<path id="Vector_20" d="M12.4864 177.651H27.5085V171.303H12.4864V177.651Z" fill="#EBEBEB"/>
<path id="Vector_21" d="M12.4864 6.34814L27.5085 6.34814V2.71797e-05L12.4864 2.71797e-05V6.34814Z" fill="#EBEBEB"/>
<path id="Vector_22" d="M4.10734 14.3528L19.1295 14.3528V8.00466L4.10734 8.00466V14.3528Z" fill="#EBEBEB"/>
<path id="Vector_23" d="M222.871 6.35376L237.893 6.35376V0.00564241L222.871 0.00564241V6.35376Z" fill="#EBEBEB"/>
<path id="Vector_24" d="M141.542 48.9355H126.52V55.2837H141.542V48.9355Z" fill="#EBEBEB"/>
<path id="Vector_25" d="M133.163 40.9309H118.141V47.279H133.163V40.9309Z" fill="#EBEBEB"/>
</g>
<g id="Floor">
<path id="Vector_26" d="M0 211.797L30.2486 211.661L60.4972 211.61L121 211.513L181.497 211.61L211.751 211.661L242 211.797L211.751 211.933L181.497 211.984L121 212.08L60.4972 211.984L30.2486 211.933L0 211.797Z" fill="#263238"/>
</g>
<g id="Shadow">
<path id="Vector_27" d="M71.1738 246.788C110.482 246.788 142.348 241.838 142.348 235.731C142.348 229.625 110.482 224.675 71.1738 224.675C31.8656 224.675 0 229.625 0 235.731C0 241.838 31.8656 246.788 71.1738 246.788Z" fill="#EBEBEB"/>
<path id="Vector_28" d="M212.148 242.845C227.563 242.845 240.06 239.66 240.06 235.731C240.06 231.802 227.563 228.617 212.148 228.617C196.734 228.617 184.237 231.802 184.237 235.731C184.237 239.66 196.734 242.845 212.148 242.845Z" fill="#EBEBEB"/>
</g>
<g id="Cheklist">
<path id="Vector_29" d="M209.635 222.978H66.936L80.1882 33.431H222.893L209.635 222.978Z" fill="#354458"/>
<g id="Group" opacity="0.1">
<path id="Vector_30" d="M209.635 222.978H66.936L80.1882 33.431H222.893L209.635 222.978Z" fill="black"/>
</g>
<path id="Vector_31" d="M206.141 222.978H63.4358L76.6937 33.431H219.393L206.141 222.978Z" fill="#354458"/>
<path id="Vector_32" d="M199.645 211.757L73.5679 213.363L83.3312 42.6044L209.414 40.9989L199.645 211.757Z" fill="#EBEBEB"/>
<path id="Vector_33" d="M196.553 213.907L70.7994 211.19L86.423 40.46L212.177 43.1717L196.553 213.907Z" fill="#DBDBDB"/>
<path id="Vector_34" d="M198.505 212.568H72.5297L84.4714 41.7988H210.447L198.505 212.568Z" fill="white"/>
<path id="Vector_35" d="M110.743 95.6585H98.166L99.0453 83.0814H111.622L110.743 95.6585Z" fill="#EBEBEB"/>
<path id="Vector_36" d="M159.032 84.9252H118.283L118.413 83.0814H159.162L159.032 84.9252Z" fill="#354458"/>
<path id="Vector_37" d="M189.723 88.4991H118.033L118.163 86.6554H189.848L189.723 88.4991Z" fill="#EBEBEB"/>
<path id="Vector_38" d="M189.468 92.0788H117.783L117.914 90.2351H189.598L189.468 92.0788Z" fill="#EBEBEB"/>
<path id="Vector_39" d="M189.218 95.6586H117.534L117.664 93.8148H189.349L189.218 95.6586Z" fill="#EBEBEB"/>
<path id="Vector_40" d="M99.5786 88.7431C100.015 89.1289 100.43 89.5373 100.838 89.9401C101.246 90.3429 101.638 90.7684 102.041 91.1825C102.829 92.0221 103.584 92.8844 104.31 93.7524L102.858 93.8488C104.173 91.4662 105.642 89.1714 107.254 86.9788C108.065 85.8782 108.911 84.806 109.807 83.7622C110.71 82.7059 111.676 81.7056 112.7 80.7668C112.23 82.0606 111.673 83.3211 111.032 84.5394C110.414 85.7534 109.739 86.9334 109.024 88.0907C107.598 90.4134 106.021 92.6401 104.304 94.7565L103.442 95.8117L102.875 94.8473C102.307 93.8659 101.695 92.8788 101.173 91.8633C100.9 91.347 100.605 90.8478 100.361 90.3259C100.118 89.804 99.8112 89.2537 99.5786 88.7431Z" fill="#354458"/>
<path id="Vector_41" d="M109.098 119.173H96.5209L97.4002 106.596H109.977L109.098 119.173Z" fill="#EBEBEB"/>
<path id="Vector_42" d="M157.387 108.44H116.637L116.768 106.596H157.517L157.387 108.44Z" fill="#354458"/>
<path id="Vector_43" d="M188.078 112.02H116.388L116.518 110.176H188.203L188.078 112.02Z" fill="#EBEBEB"/>
<path id="Vector_44" d="M187.828 115.599H116.138L116.269 113.755H187.953L187.828 115.599Z" fill="#EBEBEB"/>
<path id="Vector_45" d="M187.579 119.173H115.889L116.019 117.335H187.703L187.579 119.173Z" fill="#EBEBEB"/>
<path id="Vector_46" d="M97.9335 112.235C98.3703 112.621 98.7844 113.024 99.1929 113.432C99.6013 113.841 99.9928 114.26 100.396 114.674C101.184 115.514 101.939 116.376 102.665 117.244L101.218 117.335C102.531 114.951 104 112.656 105.615 110.465C106.42 109.37 107.266 108.298 108.162 107.254C109.063 106.197 110.029 105.196 111.055 104.259C110.583 105.551 110.027 106.811 109.393 108.031C108.769 109.245 108.094 110.425 107.379 111.583C105.957 113.902 104.386 116.127 102.676 118.243L101.814 119.298L101.247 118.334C100.645 117.352 100.061 116.359 99.5106 115.344C99.2383 114.833 98.9433 114.328 98.6993 113.812C98.4554 113.296 98.1661 112.774 97.9335 112.235Z" fill="#354458"/>
<path id="Vector_47" d="M107.453 142.694H94.8757L95.7551 130.116H108.332L107.453 142.694Z" fill="#EBEBEB"/>
<path id="Vector_48" d="M155.742 131.96H114.992L115.123 130.116H155.872L155.742 131.96Z" fill="#354458"/>
<path id="Vector_49" d="M186.433 135.54H114.743L114.873 133.696H186.563L186.433 135.54Z" fill="#EBEBEB"/>
<path id="Vector_50" d="M186.183 139.114H114.493L114.624 137.276H186.314L186.183 139.114Z" fill="#EBEBEB"/>
<path id="Vector_51" d="M185.933 142.694H114.243L114.374 140.85H186.058L185.933 142.694Z" fill="#EBEBEB"/>
<path id="Vector_52" d="M96.2883 135.755C96.7252 136.141 97.1393 136.544 97.5477 136.952C97.9562 137.361 98.3476 137.781 98.7504 138.195C99.539 139.029 100.293 139.897 101.02 140.765L99.573 140.855C100.891 138.472 102.364 136.177 103.981 133.985C104.787 132.891 105.632 131.813 106.528 130.775C107.429 129.717 108.396 128.717 109.421 127.779C108.95 129.07 108.395 130.328 107.759 131.546C107.135 132.76 106.46 133.946 105.745 135.103C104.321 137.425 102.744 139.65 101.025 141.763L100.163 142.818L99.5957 141.86C98.9944 140.878 98.41 139.885 97.8598 138.87C97.5931 138.359 97.2925 137.854 97.0485 137.333C96.8046 136.811 96.5209 136.294 96.2883 135.755Z" fill="#354458"/>
<path id="Vector_53" d="M105.808 166.214H93.2306L94.1099 153.637H106.687L105.808 166.214Z" fill="#EBEBEB"/>
<path id="Vector_54" d="M154.096 155.481H113.347L113.478 153.637H154.227L154.096 155.481Z" fill="#354458"/>
<path id="Vector_55" d="M184.788 159.055H113.098L113.228 157.211H184.918L184.788 159.055Z" fill="#EBEBEB"/>
<path id="Vector_56" d="M184.538 162.634H112.848L112.978 160.791H184.668L184.538 162.634Z" fill="#EBEBEB"/>
<path id="Vector_57" d="M184.288 166.214H112.598L112.729 164.37H184.419L184.288 166.214Z" fill="#EBEBEB"/>
<path id="Vector_58" d="M104.162 189.729H91.5853L92.4646 177.157H105.042L104.162 189.729Z" fill="#EBEBEB"/>
<path id="Vector_59" d="M152.451 178.995H111.708L111.832 177.157H152.582L152.451 178.995Z" fill="#354458"/>
<path id="Vector_60" d="M183.142 182.575H111.458L111.583 180.731H183.273L183.142 182.575Z" fill="#EBEBEB"/>
<path id="Vector_61" d="M182.893 186.155H111.203L111.333 184.311H183.023L182.893 186.155Z" fill="#EBEBEB"/>
<path id="Vector_62" d="M182.643 189.729H110.953L111.084 187.885H182.774L182.643 189.729Z" fill="#EBEBEB"/>
<path id="Vector_63" d="M124.018 61.7622C124.746 61.7571 125.453 62.0036 126.021 62.4599C126.045 62.4793 126.064 62.5032 126.079 62.5302C126.094 62.5572 126.103 62.5869 126.106 62.6174C126.109 62.648 126.106 62.6788 126.097 62.7083C126.089 62.7377 126.074 62.7651 126.055 62.789C126.035 62.8128 126.011 62.8326 125.984 62.8472C125.957 62.8618 125.928 62.871 125.897 62.8741C125.867 62.8773 125.836 62.8744 125.806 62.8656C125.777 62.8569 125.749 62.8424 125.726 62.823C125.234 62.421 124.619 62.2024 123.984 62.2047C123.218 62.2046 122.479 62.4918 121.914 63.0095C121.349 63.5273 120.999 64.238 120.932 65.0015C120.907 65.3625 120.958 65.7247 121.082 66.0646C121.206 66.4046 121.4 66.7148 121.651 66.9752C121.903 67.2355 122.206 67.4403 122.541 67.5762C122.876 67.7121 123.237 67.7762 123.598 67.7642C124.252 67.7679 124.888 67.5499 125.402 67.1459C125.425 67.1268 125.452 67.1129 125.481 67.1051C125.51 67.0972 125.54 67.0957 125.57 67.1005C125.599 67.1054 125.628 67.1165 125.653 67.1331C125.677 67.1497 125.699 67.1715 125.714 67.1969C125.734 67.2201 125.748 67.2472 125.756 67.2763C125.765 67.3054 125.767 67.3359 125.763 67.3659C125.758 67.3959 125.748 67.4246 125.732 67.4502C125.715 67.4758 125.694 67.4978 125.669 67.5146C125.059 67.9635 124.322 68.206 123.564 68.2067C123.145 68.2197 122.729 68.1446 122.341 67.9864C121.953 67.8282 121.602 67.5904 121.312 67.2884C121.022 66.9863 120.798 66.6267 120.655 66.2328C120.513 65.8388 120.454 65.4194 120.484 65.0015C120.564 64.1186 120.971 63.2974 121.625 62.6984C122.278 62.0994 123.132 61.7656 124.018 61.7622Z" fill="#354458"/>
<path id="Vector_64" d="M131.461 65.2454H128.193L128 67.9911C127.993 68.0508 127.965 68.1058 127.92 68.1455C127.875 68.1853 127.817 68.2071 127.757 68.2067C127.729 68.2068 127.702 68.2012 127.676 68.1901C127.651 68.1791 127.628 68.1629 127.61 68.1427C127.591 68.1224 127.577 68.0984 127.568 68.0723C127.559 68.0463 127.556 68.0186 127.558 67.9911L127.972 62.0685C127.976 62.0098 128.003 61.9549 128.046 61.9149C128.089 61.8749 128.146 61.8528 128.205 61.8529C128.233 61.8512 128.262 61.8556 128.288 61.8659C128.315 61.8762 128.339 61.8921 128.359 61.9126C128.379 61.933 128.394 61.9576 128.404 61.9845C128.413 62.0114 128.417 62.04 128.415 62.0685L128.222 64.8086H131.495L131.682 62.0685C131.689 62.0107 131.716 61.9573 131.759 61.9177C131.801 61.8782 131.857 61.8552 131.915 61.8529C131.944 61.8513 131.972 61.8557 131.999 61.866C132.026 61.8762 132.051 61.892 132.071 61.9124C132.091 61.9327 132.107 61.9572 132.117 61.9841C132.128 62.011 132.132 62.0397 132.13 62.0685L131.716 67.9911C131.708 68.0503 131.679 68.1046 131.634 68.1441C131.59 68.1837 131.532 68.2059 131.472 68.2067C131.445 68.2067 131.417 68.2011 131.391 68.1901C131.366 68.1792 131.343 68.1631 131.324 68.1429C131.305 68.1227 131.29 68.0989 131.28 68.0728C131.271 68.0467 131.267 68.0189 131.268 67.9911L131.461 65.2454Z" fill="#354458"/>
<path id="Vector_65" d="M134.405 62.0799C134.411 62.0217 134.438 61.9675 134.481 61.9278C134.523 61.888 134.579 61.8654 134.638 61.8643H137.906C137.934 61.8624 137.962 61.8668 137.989 61.8772C138.015 61.8875 138.039 61.9035 138.058 61.9241C138.078 61.9447 138.093 61.9693 138.101 61.9963C138.11 62.0232 138.113 62.0517 138.11 62.0799C138.107 62.1401 138.081 62.197 138.038 62.2391C137.995 62.2813 137.938 62.3054 137.877 62.3068H134.836L134.661 64.82H137.321C137.35 64.8206 137.378 64.8271 137.403 64.8391C137.429 64.8511 137.452 64.8683 137.471 64.8897C137.489 64.911 137.503 64.936 137.512 64.9631C137.52 64.9901 137.523 65.0187 137.52 65.0469C137.516 65.1061 137.489 65.1616 137.446 65.2026C137.403 65.2435 137.347 65.2669 137.287 65.2681H134.615L134.439 67.7756H137.486C137.514 67.7753 137.543 67.7812 137.569 67.7929C137.595 67.8046 137.618 67.8218 137.637 67.8434C137.656 67.865 137.67 67.8903 137.678 67.9178C137.686 67.9453 137.688 67.9742 137.684 68.0025C137.68 68.0612 137.654 68.1161 137.61 68.1561C137.567 68.1961 137.511 68.2183 137.452 68.2181H134.167C134.114 68.2138 134.065 68.1888 134.03 68.1485C133.995 68.1082 133.977 68.0558 133.98 68.0025L134.405 62.0799Z" fill="#354458"/>
<path id="Vector_66" d="M142.835 61.7622C143.563 61.7591 144.27 62.0053 144.838 62.46C144.859 62.4806 144.876 62.5053 144.888 62.5326C144.899 62.5599 144.905 62.5892 144.905 62.6189C144.905 62.6485 144.899 62.6778 144.888 62.7051C144.876 62.7324 144.859 62.7571 144.838 62.7777C144.821 62.802 144.8 62.8226 144.774 62.8382C144.749 62.8537 144.721 62.864 144.692 62.8682C144.663 62.8725 144.633 62.8707 144.604 62.8629C144.576 62.8551 144.549 62.8416 144.526 62.8231C144.038 62.4202 143.423 62.2014 142.79 62.2047C142.023 62.2058 141.285 62.4933 140.719 63.0106C140.154 63.528 139.802 64.2381 139.732 65.0015C139.709 65.3626 139.762 65.7245 139.887 66.0641C140.012 66.4037 140.206 66.7135 140.458 66.9736C140.709 67.2336 141.012 67.4383 141.347 67.5745C141.683 67.7107 142.043 67.7753 142.404 67.7643C143.058 67.768 143.694 67.55 144.208 67.1459C144.231 67.1269 144.258 67.1129 144.287 67.1051C144.316 67.0973 144.346 67.0958 144.376 67.1006C144.405 67.1054 144.434 67.1165 144.459 67.1332C144.483 67.1498 144.505 67.1716 144.52 67.197C144.54 67.2206 144.554 67.2479 144.561 67.2773C144.569 67.3066 144.571 67.3373 144.566 67.3673C144.561 67.3973 144.55 67.4259 144.533 67.4513C144.517 67.4767 144.495 67.4983 144.469 67.5147C143.862 67.9642 143.126 68.2068 142.37 68.2068C141.952 68.2197 141.535 68.1447 141.147 67.9865C140.759 67.8283 140.408 67.5905 140.118 67.2884C139.828 66.9864 139.604 66.6268 139.461 66.2328C139.319 65.8389 139.26 65.4194 139.29 65.0015C139.369 64.1162 139.777 63.2927 140.433 62.6932C141.09 62.0936 141.947 61.7615 142.835 61.7622Z" fill="#354458"/>
<path id="Vector_67" d="M146.784 62.0799C146.787 62.0197 146.812 61.9628 146.856 61.9207C146.899 61.8785 146.956 61.8544 147.016 61.853C147.046 61.8521 147.075 61.8574 147.103 61.8687C147.13 61.8799 147.155 61.8968 147.175 61.9182C147.195 61.9397 147.211 61.9651 147.221 61.993C147.231 62.0209 147.234 62.0505 147.232 62.0799L146.971 65.756L151.084 61.9154C151.126 61.8771 151.181 61.8559 151.237 61.8559C151.294 61.8559 151.349 61.8771 151.39 61.9154C151.412 61.936 151.429 61.9607 151.44 61.988C151.452 62.0153 151.458 62.0446 151.458 62.0742C151.458 62.1039 151.452 62.1332 151.44 62.1605C151.429 62.1878 151.412 62.2125 151.39 62.2331L148.786 64.6668L151.056 67.8267C151.086 67.8781 151.096 67.9388 151.085 67.9974C151.073 68.0559 151.041 68.1082 150.993 68.1444C150.951 68.1763 150.899 68.1923 150.846 68.1898C150.815 68.1918 150.784 68.1855 150.756 68.1716C150.728 68.1576 150.704 68.1365 150.687 68.1104L148.418 64.9845L146.92 66.3857L146.812 67.9742C146.805 68.0339 146.777 68.0888 146.732 68.1286C146.686 68.1684 146.628 68.1902 146.568 68.1898C146.541 68.1898 146.513 68.1842 146.487 68.1732C146.462 68.1622 146.439 68.1462 146.42 68.126C146.401 68.1058 146.386 68.0819 146.376 68.0558C146.367 68.0297 146.363 68.002 146.364 67.9742L146.784 62.0799Z" fill="#354458"/>
<path id="Vector_68" d="M153.081 68.2068C153.053 68.2068 153.026 68.2012 153 68.1902C152.975 68.1793 152.952 68.1632 152.932 68.143C152.913 68.1228 152.899 68.099 152.889 68.0729C152.879 68.0467 152.875 68.019 152.877 67.9912L153.291 62.0686C153.298 62.0099 153.326 61.9557 153.37 61.916C153.413 61.8764 153.47 61.854 153.529 61.853C153.557 61.8522 153.586 61.8572 153.612 61.8678C153.638 61.8784 153.662 61.8944 153.681 61.9147C153.701 61.9349 153.717 61.9591 153.726 61.9856C153.736 62.0121 153.741 62.0403 153.739 62.0686L153.342 67.7416H156.383C156.412 67.7406 156.441 67.7459 156.468 67.7572C156.495 67.7685 156.52 67.7855 156.54 67.807C156.559 67.8286 156.575 67.8541 156.584 67.882C156.593 67.9099 156.596 67.9394 156.593 67.9685C156.586 68.0282 156.557 68.0832 156.512 68.1229C156.467 68.1627 156.409 68.1845 156.349 68.1841L153.081 68.2068Z" fill="#354458"/>
<path id="Vector_69" d="M158.493 62.0799C158.5 62.0222 158.527 61.9687 158.57 61.9292C158.612 61.8897 158.668 61.8667 158.726 61.8643C158.754 61.8627 158.783 61.8672 158.81 61.8774C158.837 61.8877 158.861 61.9035 158.882 61.9238C158.902 61.9442 158.918 61.9686 158.928 61.9955C158.938 62.0224 158.943 62.0512 158.941 62.0799L158.527 68.0026C158.52 68.0622 158.491 68.1172 158.446 68.157C158.401 68.1968 158.343 68.2186 158.283 68.2181C158.255 68.2182 158.228 68.2126 158.202 68.2016C158.177 68.1906 158.154 68.1746 158.135 68.1544C158.115 68.1342 158.101 68.1103 158.091 68.0842C158.082 68.0581 158.077 68.0303 158.079 68.0026L158.493 62.0799Z" fill="#354458"/>
<path id="Vector_70" d="M160.564 67.0154C160.582 66.9958 160.604 66.9802 160.628 66.9695C160.653 66.9588 160.679 66.9532 160.706 66.9532C160.732 66.9532 160.759 66.9588 160.783 66.9695C160.807 66.9802 160.829 66.9958 160.847 67.0154C161.41 67.5135 162.127 67.8021 162.878 67.8323C163.386 67.8397 163.885 67.6934 164.308 67.4125C164.474 67.312 164.615 67.175 164.72 67.0118C164.825 66.8486 164.892 66.6636 164.915 66.4708C164.929 66.2973 164.893 66.1234 164.813 65.969C164.733 65.8146 164.611 65.6857 164.461 65.5971C164.022 65.3311 163.534 65.1556 163.026 65.0809C162.506 65.0051 162.007 64.8216 161.562 64.5419C161.373 64.423 161.219 64.2543 161.119 64.0542C161.019 63.8541 160.976 63.6303 160.995 63.4073C161.021 63.1656 161.101 62.9328 161.23 62.7265C161.359 62.5201 161.532 62.3456 161.738 62.216C162.202 61.909 162.748 61.7489 163.304 61.7565C164.003 61.7913 164.672 62.0476 165.216 62.4883C165.237 62.5044 165.255 62.5246 165.268 62.5478C165.281 62.5709 165.29 62.5964 165.293 62.6229C165.296 62.6494 165.294 62.6762 165.286 62.7018C165.279 62.7274 165.266 62.7513 165.25 62.772C165.22 62.8156 165.174 62.8459 165.122 62.8565C165.07 62.8671 165.016 62.8571 164.972 62.8287C164.491 62.4271 163.895 62.1905 163.27 62.1536C162.801 62.1483 162.342 62.2804 161.948 62.5337C161.794 62.6278 161.663 62.7551 161.565 62.9062C161.467 63.0574 161.404 63.2286 161.381 63.4073C161.373 63.5621 161.408 63.7158 161.482 63.8519C161.556 63.988 161.666 64.1011 161.8 64.1789C162.205 64.4295 162.657 64.5936 163.128 64.6611C163.687 64.7402 164.224 64.9333 164.705 65.2284C164.906 65.3549 165.069 65.5335 165.177 65.7452C165.285 65.957 165.334 66.194 165.318 66.4311C165.287 66.6895 165.198 66.9377 165.059 67.1576C164.919 67.3774 164.733 67.5634 164.512 67.7018C164.018 68.031 163.438 68.2048 162.844 68.201C162.006 68.1603 161.206 67.8363 160.575 67.282C160.543 67.2453 160.525 67.199 160.523 67.1507C160.521 67.1023 160.535 67.0546 160.564 67.0154Z" fill="#354458"/>
<path id="Vector_71" d="M168.744 62.2955H166.832C166.804 62.2957 166.775 62.2897 166.749 62.2781C166.722 62.2664 166.699 62.2493 166.679 62.2279C166.66 62.2065 166.646 62.1812 166.637 62.1537C166.628 62.1263 166.625 62.0972 166.628 62.0686C166.633 62.0099 166.659 61.955 166.702 61.915C166.745 61.875 166.802 61.8529 166.861 61.853H171.127C171.155 61.8521 171.183 61.8572 171.209 61.8678C171.235 61.8785 171.258 61.8945 171.277 61.9149C171.297 61.9353 171.312 61.9595 171.321 61.986C171.33 62.0125 171.334 62.0406 171.331 62.0686C171.328 62.1288 171.303 62.1857 171.26 62.2278C171.216 62.27 171.159 62.2941 171.099 62.2955H169.181L168.784 67.9685C168.778 68.0267 168.752 68.0809 168.709 68.1206C168.666 68.1604 168.61 68.183 168.551 68.1841C168.524 68.1841 168.496 68.1785 168.471 68.1676C168.445 68.1566 168.422 68.1405 168.403 68.1203C168.384 68.1001 168.369 68.0763 168.359 68.0502C168.35 68.0241 168.346 67.9963 168.347 67.9685L168.744 62.2955Z" fill="#354458"/>
<path id="Vector_72" d="M177.906 48.839H116.03L117.347 29.9762H179.222L177.906 48.839Z" fill="#C7C7C7"/>
<path id="Vector_73" d="M167.927 19.657H129.51L127.099 29.9705H169.47L167.927 19.657ZM148.486 27.0773C148.194 27.0817 147.905 27.0246 147.636 26.9099C147.368 26.7952 147.127 26.6253 146.928 26.4114C146.73 26.1974 146.578 25.9441 146.484 25.6679C146.39 25.3917 146.355 25.0987 146.381 24.8081C146.43 24.1964 146.706 23.6249 147.154 23.2054C147.602 22.7858 148.19 22.5482 148.804 22.5389C149.095 22.5345 149.385 22.5915 149.653 22.7063C149.921 22.821 150.163 22.9909 150.361 23.2048C150.56 23.4188 150.711 23.6721 150.805 23.9483C150.899 24.2245 150.934 24.5174 150.908 24.8081C150.861 25.4208 150.587 25.9937 150.138 26.4137C149.69 26.8338 149.1 27.0706 148.486 27.0773Z" fill="#C7C7C7"/>
<path id="Vector_74" d="M169.47 29.9705H127.099L127.643 27.6616H169.124L169.47 29.9705Z" fill="#A6A6A6"/>
</g>
<g id="Character">
<path id="Vector_75" d="M50.0531 86.0883C50.8927 92.3286 55.5616 107.226 59.0448 108.173C62.2898 109.053 76.5518 104.804 78.3898 101.973C79.3713 100.458 83.2573 86.5421 81.5157 87.376C79.3145 88.4256 63.1691 96.589 62.5054 96.4245C61.1041 96.0728 58.3697 90.5473 56.0041 87.4612C50.853 80.7216 49.656 83.161 50.0531 86.0883Z" fill="#774442"/>
<path id="Vector_76" d="M59.7937 92.3058L52.4811 99.0057C52.4811 99.0057 49.8942 89.4353 49.5992 85.0046C49.3042 80.574 52.9236 81.0789 59.7937 92.3058Z" fill="#263238"/>
<path id="Vector_77" d="M29.8401 155.81C29.8401 155.81 22.1078 168.046 14.1939 162.095C6.28004 156.144 15.8958 145.32 15.8958 145.32L29.8401 155.81Z" fill="#DD6A57"/>
<path id="Vector_78" d="M15.5336 145.771L29.4937 156.26L90.6361 74.8852L76.676 64.3961L15.5336 145.771Z" fill="#F06D3D"/>
<path id="Vector_79" opacity="0.1" d="M15.5336 145.771L29.4937 156.26L90.6361 74.8852L76.676 64.3961L15.5336 145.771Z" fill="black"/>
<path id="Vector_80" d="M14.0307 145.33L30.3311 157.578L32.7608 154.344L16.4604 142.096L14.0307 145.33Z" fill="#37474F"/>
<path id="Vector_81" d="M16.7174 141.756L33.0178 154.003L35.4476 150.769L19.1472 138.522L16.7174 141.756Z" fill="#37474F"/>
<path id="Vector_82" d="M76.6709 64.4003L89.4749 58.3018L93.6843 56.2765L92.9411 60.9114L90.6719 74.901L87.7333 75.8655C87.7333 75.8655 87.8808 72.8531 87.8751 72.802L84.9365 73.7664C84.9365 73.7664 85.0897 70.7541 85.0783 70.6973L82.1737 71.6901C82.1737 71.6901 82.2929 68.655 82.2872 68.5983L79.3769 69.5911C79.3769 69.5911 79.4961 66.556 79.4904 66.4993L76.5858 67.4864C76.5858 67.4864 76.6823 64.4513 76.6709 64.4003Z" fill="#EBEBEB"/>
<path id="Vector_83" d="M89.475 58.3018L93.6844 56.2765L92.9412 60.9114L89.475 58.3018Z" fill="#37474F"/>
<g id="Group_2" opacity="0.1">
<path id="Vector_84" d="M35.5245 141.315C39.3084 136.079 43.1434 130.888 46.9897 125.697L58.5967 110.17L70.2832 94.7226L76.1434 87.0413L82.0717 79.3827L76.3647 87.2115L70.6122 94.9835L59.0279 110.511L47.3358 125.958C43.4214 131.09 39.4843 136.209 35.5245 141.315Z" fill="black"/>
<path id="Vector_85" d="M31.6499 138.864C35.4338 133.634 39.2688 128.437 43.1094 123.247L54.6994 107.719L66.3858 92.2718L72.2688 84.5792L78.1971 76.9149L72.49 84.7721L66.7376 92.5611L55.1476 108.088L43.4611 123.536C39.5411 128.642 35.621 133.776 31.6499 138.864Z" fill="black"/>
<path id="Vector_86" d="M27.7695 136.397C31.5591 131.16 35.3941 125.97 39.2347 120.779L50.819 105.252L62.5111 89.804L68.3941 82.1057L74.3224 74.4471L68.6153 82.2759L62.8572 90.065L51.2729 105.592L39.5808 121.079C35.6664 126.185 31.7463 131.325 27.7695 136.397Z" fill="black"/>
</g>
<path id="Vector_87" d="M82.9056 86.8711C83.1098 89.0382 84.4827 92.1356 84.1196 93.7127C84.0425 94.1044 83.8415 94.4609 83.5463 94.7295C83.2511 94.9982 82.8773 95.1648 82.4801 95.2048C82.4801 95.2048 83.7112 96.5039 83.1439 97.8768C82.8489 98.5859 81.442 98.739 81.442 98.739C81.7036 99.0483 81.8752 99.4235 81.9382 99.8236C82.0013 100.224 81.9532 100.634 81.7994 101.008C81.3398 101.956 80.018 101.967 80.018 101.967C80.018 101.967 80.4378 103.431 79.655 104.236C78.0722 105.887 69.5456 102.795 69.3698 99.1759C69.2903 97.474 71.3326 98.359 71.3326 98.359C71.3326 98.359 68.6947 96.4018 69.2903 94.6261C69.886 92.8504 72.4672 94.1439 72.4672 94.1439C72.4672 94.1439 69.9314 92.2207 70.7313 90.4451C71.5312 88.6694 73.9309 90.3316 73.9309 90.3316C73.9309 90.3316 72.5013 88.3574 73.426 87.1377C74.952 85.1238 77.5049 89.2764 79.5358 89.5147L81.6916 86.803L82.9056 86.8711Z" fill="#774442"/>
<path id="Vector_88" d="M83.6375 90.1785C83.6375 88.1078 86.6952 86.6782 86.9619 84.6983C87.3306 82.0207 83.6488 83.4389 81.7143 86.8201L80.6761 89.7076L83.6375 90.1785Z" fill="#774442"/>
<path id="Vector_89" d="M79.8309 102.007C79.8309 102.007 79.8309 102.058 79.8309 102.052C76.6572 101.718 73.661 100.423 71.2419 98.3419C71.1682 98.2739 71.2419 98.1207 71.3384 98.1831C73.9695 99.8615 76.8301 101.149 79.8309 102.007Z" fill="#263238"/>
<path id="Vector_90" d="M81.4987 98.7731C81.5328 98.7731 81.4987 98.8355 81.4987 98.8355C78.0023 98.4285 74.7668 96.7846 72.3765 94.2006C72.2971 94.1099 72.3198 93.9454 72.4219 94.0418C74.1068 95.721 78.6679 98.0072 81.4987 98.7731Z" fill="#263238"/>
<path id="Vector_91" d="M73.8402 90.0934C76.2001 92.5952 79.1274 94.0928 82.3497 95.1991C82.3894 95.1991 82.3497 95.2728 82.3497 95.2728C80.6478 95.1594 78.6452 94.246 77.1646 93.4007C75.7695 92.6428 74.5963 91.5341 73.7607 90.1841C73.721 90.1217 73.7948 90.0423 73.8402 90.0934Z" fill="#263238"/>
<path id="Vector_92" d="M82.2588 234.869C81.1696 235.232 50.0531 235.141 48.8674 234.387C48.4192 234.109 48.1696 229.57 48.0165 224.085C48.0165 222.899 47.9597 221.679 47.9427 220.437C47.9427 218.962 47.903 217.476 47.8916 216.029C47.8519 209.528 47.9427 203.804 47.9427 203.804H68.2011V216.029V220.437L68.099 224.085C68.099 224.085 80.0123 229.451 81.2037 230.416C82.395 231.38 83.3424 234.54 82.2588 234.869Z" fill="#774442"/>
<path id="Vector_93" d="M82.2589 234.869C81.1697 235.232 50.0531 235.141 48.8675 234.387C48.4193 234.109 48.1697 229.57 48.0165 224.085C48.0165 222.899 47.9598 221.679 47.9428 220.437C47.9428 218.962 47.9031 217.476 47.8917 216.029H68.1898V220.437L68.0877 224.085C68.0877 224.085 80.0011 229.451 81.1924 230.416C82.3837 231.38 83.3425 234.54 82.2589 234.869Z" fill="white"/>
<path id="Vector_94" d="M82.3553 234.914C81.6405 235.147 68.3883 235.198 58.7385 235C56.509 234.948 54.4667 234.886 52.8158 234.818C50.5466 234.71 49.0206 234.585 48.7766 234.432C48.2093 234.081 47.9654 227.42 47.8406 220.403H68.2011L68.0933 224.073C68.0933 224.073 80.0577 229.463 81.2774 230.438C82.4971 231.414 83.4445 234.54 82.3553 234.914Z" fill="#F06D3D"/>
<path id="Vector_95" d="M81.9072 233.661C76.6597 233.519 55.4936 233.434 50.2971 233.689C50.2574 233.689 50.2574 233.723 50.2971 233.723C55.4936 233.978 76.6597 233.893 81.9072 233.751C82.015 233.746 82.015 233.666 81.9072 233.661Z" fill="#263238"/>
<path id="Vector_96" d="M68.8365 222.91C66.7772 222.519 64.2527 222.825 62.67 224.295C62.6076 224.351 62.67 224.436 62.7551 224.414C64.7231 223.791 66.7525 223.382 68.8082 223.194C68.8458 223.198 68.8834 223.186 68.9126 223.162C68.9419 223.138 68.9604 223.104 68.9642 223.066C68.9679 223.029 68.9566 222.991 68.9327 222.962C68.9087 222.933 68.8742 222.914 68.8365 222.91Z" fill="#263238"/>
<path id="Vector_97" d="M70.3229 223.812C68.2636 223.421 65.7391 223.727 64.1563 225.196C64.0939 225.253 64.1563 225.338 64.2414 225.316C66.2168 224.687 68.2535 224.27 70.3172 224.073C70.3518 224.074 70.3853 224.061 70.4103 224.037C70.4353 224.013 70.4498 223.98 70.4505 223.946C70.4513 223.911 70.4382 223.877 70.4143 223.852C70.3904 223.827 70.3575 223.813 70.3229 223.812Z" fill="#263238"/>
<path id="Vector_98" d="M71.8149 224.714C69.7499 224.323 67.2254 224.629 65.6426 226.099C65.5802 226.155 65.6426 226.24 65.7334 226.218C67.7067 225.588 69.7416 225.172 71.8035 224.975C71.8381 224.977 71.8719 224.965 71.8974 224.941C71.923 224.918 71.9382 224.885 71.9397 224.851C71.9412 224.816 71.9289 224.782 71.9055 224.757C71.8821 224.731 71.8495 224.716 71.8149 224.714Z" fill="#263238"/>
<path id="Vector_99" d="M73.3012 225.616C71.2362 225.225 68.7117 225.531 67.1289 227.001C67.0665 227.057 67.1289 227.142 67.2197 227.12C69.193 226.49 71.228 226.074 73.2898 225.877C73.3245 225.879 73.3582 225.867 73.3838 225.843C73.4093 225.82 73.4245 225.787 73.426 225.753C73.4275 225.718 73.4152 225.684 73.3918 225.659C73.3684 225.633 73.3358 225.618 73.3012 225.616Z" fill="#263238"/>
<path id="Vector_100" d="M72.6659 218.145C71.8546 217.01 70.3456 217.527 69.4833 218.247C68.0221 219.512 66.9204 221.14 66.2894 222.967C66.2855 222.975 66.2837 222.983 66.2841 222.992C66.2845 223.001 66.2871 223.009 66.2916 223.016C66.2962 223.024 66.3025 223.03 66.3101 223.034C66.3176 223.038 66.3261 223.041 66.3348 223.041C66.3333 223.081 66.3413 223.121 66.3582 223.157C66.375 223.194 66.4002 223.226 66.4317 223.25C66.4632 223.275 66.5001 223.292 66.5394 223.3C66.5788 223.308 66.6195 223.307 66.6581 223.296C68.36 222.672 70.2662 222.213 71.7298 221.084C72.5864 220.426 73.426 219.223 72.6659 218.145ZM69.0521 221.821C68.2182 222.15 67.3502 222.434 66.5617 222.791C67.1555 221.855 67.7974 220.95 68.4848 220.079C68.8229 219.662 69.1887 219.268 69.5797 218.899C70.1981 218.332 72.6318 217.158 72.2631 219.421C72.0588 220.669 70.0449 221.43 69.0521 221.821Z" fill="#263238"/>
<path id="Vector_101" d="M61.0418 222.411C62.7437 223.143 64.7009 223.109 66.5049 223.29C66.5452 223.291 66.5851 223.282 66.6214 223.265C66.6576 223.247 66.6892 223.222 66.7135 223.189C66.7379 223.157 66.7543 223.12 66.7614 223.08C66.7686 223.041 66.7662 223 66.7546 222.961C66.7627 222.958 66.7701 222.954 66.7762 222.948C66.7823 222.941 66.7869 222.934 66.7896 222.926C66.7923 222.918 66.7932 222.909 66.792 222.9C66.7908 222.892 66.7877 222.883 66.7829 222.876C65.7169 221.266 64.2455 219.965 62.5168 219.104C61.4957 218.621 59.9072 218.536 59.408 219.801C58.9088 221.067 60.0547 221.986 61.0418 222.411ZM60.1171 220.936C59.1924 218.837 61.819 219.376 62.5792 219.762C63.0526 220.016 63.5058 220.306 63.9351 220.63C64.8191 221.3 65.6675 222.015 66.4766 222.774C65.5973 222.632 64.7066 222.564 63.8216 222.456C62.7664 222.326 60.6277 222.093 60.1171 220.925V220.936Z" fill="#263238"/>
<path id="Vector_102" d="M41.1862 117.477C41.1862 117.477 46.6606 171.626 46.7911 172.313C46.7911 172.403 46.8478 173.447 46.8989 175.149C47.1939 184.47 47.9257 213.533 47.9257 213.533H70.2604C70.2604 213.533 68.8025 179.109 67.9912 171.076C66.9247 160.83 60.1568 117.477 60.1568 117.477H41.1862Z" fill="#263238"/>
<path id="Vector_103" d="M49.4518 174.224C48.7673 162.5 47.7329 150.795 46.3487 139.108C45.5601 132.528 44.6468 125.975 43.6823 119.417C43.6823 119.361 43.5802 119.361 43.5916 119.417C45.2935 131.092 46.5416 142.853 47.5967 154.59C48.6519 166.328 49.3894 178.088 49.8659 189.865C50.1439 196.536 50.3481 202.567 50.5637 209.244C50.5698 209.272 50.5852 209.297 50.6074 209.315C50.6295 209.333 50.6572 209.342 50.6857 209.342C50.7142 209.342 50.7418 209.333 50.764 209.315C50.7862 209.297 50.8016 209.272 50.8077 209.244C50.4956 197.353 50.1496 186.098 49.4518 174.224Z" fill="#455A64"/>
<path id="Vector_104" d="M68.7287 209.828C58.5173 209.505 49.7354 209.738 48.9752 209.794C48.3455 209.845 48.6973 209.908 49.0093 209.93C57.655 210.447 68.3883 209.959 68.7287 209.93C68.8081 209.908 68.8081 209.828 68.7287 209.828Z" fill="#455A64"/>
<path id="Vector_105" d="M41.1862 117.477C41.1862 117.477 46.6606 171.626 46.7911 172.313C46.7911 172.403 46.8478 173.447 46.8989 175.149L57.428 117.477H41.1862Z" fill="#455A64"/>
<path id="Vector_106" d="M48.2717 239.294C47.1371 239.572 16.1397 237.167 15.0108 236.321C14.5853 236.009 14.6704 231.465 14.937 225.991C14.9881 224.805 14.9994 223.574 15.1299 222.343C15.2888 220.789 15.4646 219.24 15.6575 217.742C16.4631 211.252 17.3991 205.829 17.3991 205.829L37.0392 207.31L35.8195 219.047L35.3372 223.846L34.9628 227.477C34.9628 227.477 46.428 233.717 47.5626 234.767C48.6972 235.816 49.3837 239.01 48.2717 239.294Z" fill="#774442"/>
<path id="Vector_107" d="M48.2717 239.294C47.1371 239.572 16.1397 237.167 15.0108 236.321C14.5853 236.009 14.6704 231.465 14.937 225.991C14.9881 224.805 14.9994 223.574 15.1299 222.343C15.2888 220.789 15.4646 219.24 15.6575 217.742C21.705 218.168 30.4074 218.707 35.8138 219.036L35.3372 223.846L34.9628 227.477C34.9628 227.477 46.428 233.717 47.5626 234.767C48.6972 235.816 49.3837 239.01 48.2717 239.294Z" fill="white"/>
<path id="Vector_108" d="M48.3852 239.339C47.2506 239.623 16.049 237.201 14.9427 236.361C14.4208 235.97 14.6534 229.315 15.0562 222.298L35.3373 223.812L34.9628 227.466C34.9628 227.466 46.4904 233.734 47.6307 234.795C48.771 235.856 49.4801 239.078 48.3852 239.339Z" fill="#F06D3D"/>
<path id="Vector_109" d="M48.0166 238.057C42.7974 237.524 21.6937 235.862 16.4915 235.731C16.4518 235.731 16.4462 235.731 16.4915 235.765C21.654 236.406 42.769 237.898 48.0052 238.142C48.1187 238.148 48.1243 238.069 48.0166 238.057Z" fill="#263238"/>
<path id="Vector_110" d="M35.7797 226.359C33.7545 225.821 31.2413 225.94 29.5394 227.284C29.4713 227.335 29.5394 227.426 29.6132 227.409C31.6247 226.922 33.6823 226.65 35.7514 226.598C35.7759 226.591 35.7978 226.576 35.8143 226.557C35.8308 226.537 35.8412 226.513 35.8442 226.488C35.8472 226.463 35.8427 226.437 35.8313 226.414C35.8198 226.391 35.8019 226.372 35.7797 226.359Z" fill="#263238"/>
<path id="Vector_111" d="M37.198 227.369C35.1671 226.83 32.6596 226.949 30.9577 228.294C30.8953 228.345 30.9577 228.436 31.0371 228.419C33.0531 227.938 35.1146 227.674 37.1867 227.63C37.2038 227.631 37.2209 227.628 37.237 227.622C37.2532 227.617 37.268 227.608 37.2806 227.596C37.2932 227.584 37.3035 227.57 37.3107 227.555C37.318 227.539 37.3221 227.523 37.3228 227.505C37.3236 227.488 37.3209 227.471 37.3151 227.455C37.3092 227.439 37.3002 227.424 37.2886 227.411C37.277 227.399 37.2631 227.389 37.2475 227.381C37.232 227.374 37.2152 227.37 37.198 227.369Z" fill="#263238"/>
<path id="Vector_112" d="M38.6163 228.385C36.5853 227.817 34.0438 227.959 32.3759 229.304C32.3079 229.355 32.3759 229.446 32.4554 229.434C34.4711 228.951 36.5326 228.685 38.6049 228.64C38.6346 228.635 38.6616 228.62 38.6816 228.598C38.7016 228.576 38.7132 228.547 38.7145 228.517C38.7159 228.487 38.7068 228.458 38.6889 228.433C38.671 228.409 38.6454 228.392 38.6163 228.385Z" fill="#263238"/>
<path id="Vector_113" d="M40.0289 229.395C38.0036 228.827 35.4905 228.969 33.7886 230.314C33.7205 230.365 33.7886 230.455 33.8623 230.444C35.8781 229.962 37.9396 229.695 40.0119 229.65C40.0418 229.646 40.0693 229.632 40.09 229.61C40.1106 229.588 40.1229 229.559 40.1249 229.529C40.1269 229.499 40.1185 229.469 40.101 229.445C40.0835 229.42 40.058 229.402 40.0289 229.395Z" fill="#263238"/>
<path id="Vector_114" d="M39.9494 221.895C39.2289 220.72 37.6802 221.106 36.7668 221.759C35.2189 222.915 34.0005 224.456 33.2325 226.229C33.2325 226.269 33.2325 226.297 33.2779 226.308C33.2779 226.462 33.3971 226.637 33.5786 226.586C35.3259 226.093 37.2604 225.775 38.8035 224.754C39.7055 224.164 40.6358 223.012 39.9494 221.895ZM36.0747 225.299C35.2238 225.565 34.3728 225.786 33.5162 226.081C34.2083 225.214 34.8607 224.317 35.6379 223.517C36.0082 223.126 36.4043 222.76 36.8236 222.422C37.476 221.917 39.9948 220.919 39.4559 223.149C39.1552 224.368 37.0959 224.975 36.0747 225.293V225.299Z" fill="#263238"/>
<path id="Vector_115" d="M28.0474 225.287C29.6869 226.138 31.6385 226.252 33.4311 226.569C33.6127 226.603 33.7261 226.411 33.7034 226.257C33.7113 226.255 33.7185 226.251 33.7246 226.245C33.7307 226.24 33.7356 226.233 33.7388 226.226C33.7421 226.218 33.7436 226.21 33.7434 226.202C33.7431 226.193 33.7411 226.185 33.7375 226.178C32.7943 224.492 31.425 223.084 29.7664 222.093C28.7849 221.526 27.2135 221.316 26.6122 222.559C26.0108 223.801 27.0887 224.788 28.0474 225.287ZM27.2305 223.761C26.4647 221.6 29.0743 222.332 29.7777 222.774C30.2273 223.068 30.6574 223.39 31.0655 223.739C31.8938 224.462 32.6853 225.227 33.4368 226.03C32.5688 225.821 31.6895 225.69 30.8102 225.514C29.7664 225.327 27.6503 224.941 27.2305 223.761Z" fill="#263238"/>
<path id="Vector_116" d="M60.1341 117.477C60.1341 117.477 59.476 122.991 56.3105 126.968C55.5503 127.921 53.23 128.806 52.0274 129.68C52.0274 129.68 47.5343 170.968 46.1671 175.631C44.6467 180.839 38.7411 216.386 38.7411 216.386L15.408 214.752C15.408 214.752 22.4141 179.886 24.0763 171.252C24.4508 169.323 29.443 132.987 29.3352 132.148C27.9907 122.14 32.8582 117.505 32.8582 117.505L60.1341 117.477Z" fill="#263238"/>
<path id="Vector_117" d="M42.0939 118.084C41.6393 119.658 40.6781 121.038 39.3595 122.01C37.9044 123.045 36.18 123.637 34.3956 123.712C34.0949 123.712 34.0722 124.188 34.3956 124.194C38.0377 124.194 41.7195 121.885 42.2527 118.107C42.2527 118.022 42.1449 118.005 42.0939 118.084Z" fill="#455A64"/>
<path id="Vector_118" d="M56.7416 126.803C55.4201 127.333 54.1592 128.002 52.9804 128.8C51.7324 129.572 50.5751 130.502 49.3667 131.314C49.3213 131.348 49.3667 131.421 49.4121 131.393C50.6772 130.667 51.9933 130.031 53.2471 129.283C54.4999 128.596 55.6884 127.799 56.7984 126.9C56.8381 126.866 56.7984 126.781 56.7416 126.803Z" fill="#455A64"/>
<path id="Vector_119" d="M57.2579 119.207C57.0593 120.041 56.8211 120.87 56.5998 121.698C56.3786 122.526 56.2311 123.269 55.9871 124.035C55.7859 124.78 55.3719 125.45 54.7958 125.964C54.4781 126.236 54.1264 126.469 53.786 126.718L53.2187 127.116C53.247 127.002 53.2754 126.889 53.2981 126.775C53.3719 126.463 53.4399 126.145 53.508 125.828C53.6555 125.124 53.803 124.421 53.9448 123.712C54.2228 122.327 54.5121 120.926 54.8355 119.559C54.8323 119.55 54.8265 119.543 54.8189 119.538C54.8113 119.532 54.8022 119.529 54.7929 119.529C54.7837 119.529 54.7746 119.532 54.767 119.538C54.7594 119.543 54.7536 119.55 54.7504 119.559C54.3419 120.915 53.8938 122.254 53.5307 123.621C53.3492 124.29 52.6684 127.592 52.6344 127.847C52.6003 128.103 52.5663 128.335 52.5436 128.579C52.5012 128.826 52.4897 129.078 52.5096 129.328C52.5145 129.339 52.5225 129.348 52.5326 129.355C52.5426 129.361 52.5543 129.364 52.5663 129.364C52.5782 129.364 52.5899 129.361 52.6 129.355C52.61 129.348 52.618 129.339 52.623 129.328C52.7362 129.102 52.8183 128.861 52.867 128.613C52.9407 128.375 53.0031 128.137 53.0598 127.898L53.1109 127.632C53.4513 127.445 53.769 127.195 54.0867 126.985C54.4043 126.775 54.7788 126.543 55.1021 126.293C55.7059 125.83 56.155 125.195 56.3899 124.472C56.6286 123.692 56.7976 122.893 56.8948 122.084C57.0423 121.142 57.1671 120.189 57.343 119.247C57.3543 119.179 57.2692 119.151 57.2579 119.207Z" fill="#455A64"/>
<path id="Vector_120" d="M37.6065 212.324C27.4858 211.19 18.687 210.713 17.9268 210.708C17.2914 210.708 17.6374 210.798 17.9268 210.844C26.4987 212.052 37.2151 212.427 37.5838 212.415C37.5898 212.417 37.596 212.417 37.602 212.416C37.6081 212.415 37.614 212.413 37.6192 212.41C37.6245 212.407 37.6291 212.403 37.6327 212.398C37.6364 212.393 37.639 212.387 37.6405 212.381C37.642 212.375 37.6423 212.369 37.6414 212.363C37.6405 212.357 37.6384 212.351 37.6353 212.346C37.6321 212.341 37.6279 212.336 37.623 212.332C37.6181 212.329 37.6125 212.326 37.6065 212.324Z" fill="#455A64"/>
<path id="Vector_121" d="M59.5725 106.176L61.4729 121.857C61.4729 121.857 36.0067 121.63 29.704 121.034C29.704 121.034 35.5472 91.9485 42.5194 84.7267C46.0026 81.1187 49.9851 81.4874 52.4698 84.1311C53.0995 84.7948 60.5369 95.1254 61.2517 99.0228C61.87 102.466 59.5725 106.176 59.5725 106.176Z" fill="#F06D3D"/>
<path id="Vector_122" d="M48.5895 93.3724C48.8035 93.3007 49.033 93.2889 49.2532 93.3384C49.3704 93.3818 49.4721 93.4587 49.5458 93.5596C49.6195 93.6605 49.6617 93.7809 49.6674 93.9057C49.6645 93.9903 49.684 94.0741 49.7238 94.1488C49.7636 94.2235 49.8224 94.2864 49.8943 94.3312C49.9699 94.3868 50.0614 94.4167 50.1552 94.4162C50.263 94.4162 50.3651 94.4503 50.4729 94.4787C50.2566 94.5448 50.0255 94.5448 49.8092 94.4787C49.6954 94.433 49.5976 94.3548 49.528 94.2539C49.4584 94.1531 49.4201 94.0339 49.4177 93.9113C49.4146 93.8267 49.3907 93.7442 49.3482 93.671C49.3057 93.5978 49.2458 93.5361 49.1738 93.4915C49.0924 93.4453 49.0008 93.42 48.9072 93.4178C48.7994 93.4121 48.6973 93.4008 48.5895 93.3724Z" fill="white"/>
<path id="Vector_123" d="M54.4043 114.164C54.6183 114.092 54.8478 114.081 55.068 114.13C55.1845 114.174 55.2855 114.251 55.3582 114.352C55.4309 114.453 55.4721 114.573 55.4765 114.697C55.4753 114.782 55.4955 114.865 55.5352 114.939C55.5749 115.014 55.6327 115.077 55.7034 115.123C55.7838 115.173 55.8755 115.202 55.97 115.208C56.0722 115.208 56.18 115.242 56.2821 115.27C56.0658 115.336 55.8346 115.336 55.6183 115.27C55.5019 115.22 55.4027 115.137 55.3331 115.031C55.2635 114.925 55.2266 114.801 55.2269 114.675C55.2266 114.591 55.2044 114.509 55.1626 114.436C55.1209 114.363 55.0609 114.303 54.9886 114.26C54.906 114.211 54.8123 114.184 54.7163 114.181C54.6121 114.181 54.5079 114.175 54.4043 114.164Z" fill="white"/>
<path id="Vector_124" d="M45.0212 85.0443C44.8083 85.1227 44.5763 85.1326 44.3575 85.0727C44.2415 85.0221 44.1427 84.9388 44.0732 84.8331C44.0037 84.7273 43.9664 84.6036 43.966 84.477C43.9657 84.3933 43.9436 84.311 43.9018 84.2384C43.86 84.1658 43.8 84.1053 43.7277 84.0629C43.6452 84.0138 43.5515 83.9865 43.4554 83.9835H43.3363L43.4611 83.8814C43.5771 83.8632 43.6957 83.8729 43.8072 83.9097C43.9233 83.954 44.0238 84.0313 44.0964 84.1322C44.169 84.233 44.2105 84.3529 44.2156 84.477C44.2145 84.5621 44.2347 84.6461 44.2743 84.7214C44.314 84.7967 44.3718 84.8609 44.4425 84.9082C44.5229 84.9584 44.6146 84.9876 44.7092 84.9933C44.814 85.0048 44.9182 85.0219 45.0212 85.0443Z" fill="white"/>
<path id="Vector_125" d="M40.3466 102.069C40.5611 102 40.7898 101.989 41.0103 102.035C41.127 102.079 41.2284 102.156 41.302 102.257C41.3755 102.358 41.4181 102.478 41.4244 102.602C41.4223 102.688 41.442 102.772 41.4817 102.847C41.5215 102.923 41.5798 102.987 41.6514 103.034C41.7293 103.084 41.8193 103.114 41.9123 103.119L42.23 103.175C42.017 103.253 41.7851 103.263 41.5663 103.204C41.4485 103.156 41.348 103.073 41.2781 102.967C41.2083 102.86 41.1722 102.735 41.1748 102.608C41.1723 102.524 41.1486 102.442 41.106 102.37C41.0633 102.297 41.0031 102.237 40.9309 102.194C40.85 102.146 40.7583 102.118 40.6642 102.114C40.5565 102.109 40.443 102.097 40.3466 102.069Z" fill="white"/>
<path id="Vector_126" d="M53.7803 121.76H53.491C53.4528 121.675 53.4334 121.582 53.4343 121.488C53.4328 121.404 53.4096 121.321 53.3668 121.249C53.3241 121.176 53.2633 121.116 53.1903 121.074C53.1102 121.024 53.0181 120.996 52.9237 120.994C52.8188 120.981 52.7146 120.962 52.6117 120.938C52.8238 120.866 53.0514 120.854 53.2698 120.904C53.3869 120.947 53.4887 121.024 53.5624 121.125C53.636 121.226 53.6783 121.346 53.6839 121.471C53.6802 121.576 53.7145 121.678 53.7803 121.76Z" fill="white"/>
<path id="Vector_127" d="M46.6493 110.868C46.8633 110.796 47.0928 110.785 47.313 110.834C47.43 110.877 47.5314 110.954 47.6042 111.055C47.677 111.156 47.7178 111.277 47.7215 111.401C47.7214 111.486 47.7427 111.569 47.7834 111.644C47.824 111.718 47.8827 111.781 47.9541 111.827C48.0308 111.88 48.1216 111.91 48.215 111.912C48.3172 111.912 48.4249 111.946 48.5271 111.974C48.3125 112.039 48.0835 112.039 47.869 111.974C47.7557 111.928 47.6583 111.85 47.5888 111.749C47.5192 111.648 47.4806 111.529 47.4776 111.407C47.4744 111.322 47.4506 111.24 47.408 111.167C47.3655 111.093 47.3056 111.032 47.2336 110.987C47.1522 110.941 47.0606 110.916 46.967 110.913C46.8592 110.925 46.7571 110.913 46.6493 110.868Z" fill="white"/>
<path id="Vector_128" d="M32.9489 109.461C32.7759 109.512 32.5954 109.531 32.4156 109.518C32.4156 109.467 32.444 109.416 32.461 109.359C32.517 109.382 32.5764 109.396 32.6369 109.399C32.739 109.421 32.8468 109.433 32.9489 109.461Z" fill="white"/>
<path id="Vector_129" d="M35.3373 112.746C35.5513 112.674 35.7808 112.662 36.001 112.712C36.1175 112.755 36.2185 112.833 36.2912 112.934C36.3639 113.035 36.4051 113.155 36.4095 113.279C36.4083 113.363 36.4285 113.447 36.4682 113.521C36.5078 113.595 36.5657 113.659 36.6364 113.705C36.7156 113.757 36.808 113.787 36.903 113.79C37.0052 113.79 37.1129 113.824 37.2151 113.852C36.9987 113.918 36.7676 113.918 36.5513 113.852C36.4349 113.802 36.3357 113.719 36.2661 113.613C36.1965 113.507 36.1596 113.383 36.1599 113.256C36.1596 113.173 36.1374 113.09 36.0956 113.018C36.0539 112.945 35.9939 112.885 35.9216 112.842C35.8396 112.793 35.7452 112.767 35.6493 112.769C35.5529 112.786 35.4451 112.774 35.3373 112.746Z" fill="white"/>
<path id="Vector_130" d="M51.8572 102.324C52.0707 102.25 52.301 102.238 52.5209 102.29C52.6374 102.334 52.7384 102.411 52.8111 102.512C52.8838 102.613 52.925 102.733 52.9294 102.858C52.9283 102.943 52.9485 103.027 52.9881 103.102C53.0277 103.177 53.0856 103.242 53.1563 103.289C53.2367 103.339 53.3283 103.368 53.4229 103.374C53.5251 103.374 53.6328 103.408 53.7349 103.436C53.5186 103.503 53.2875 103.503 53.0712 103.436C52.9548 103.386 52.8556 103.303 52.786 103.197C52.7164 103.091 52.6795 102.967 52.6798 102.841C52.6795 102.757 52.6573 102.675 52.6155 102.602C52.5738 102.529 52.5138 102.469 52.4415 102.427C52.3589 102.377 52.2652 102.35 52.1692 102.347C52.0649 102.345 51.9607 102.337 51.8572 102.324Z" fill="white"/>
<path id="Vector_131" d="M44.8169 90.1047C44.718 90.3071 44.5648 90.478 44.3744 90.5983C44.258 90.6496 44.129 90.6652 44.0037 90.643C43.8784 90.6207 43.7626 90.5617 43.671 90.4735C43.611 90.4134 43.5372 90.3691 43.4561 90.3443C43.375 90.3196 43.289 90.3153 43.2058 90.3316C43.1149 90.351 43.0307 90.3941 42.9618 90.4565C42.8711 90.5189 42.7916 90.5813 42.6952 90.638C42.82 90.4678 42.9051 90.2579 43.149 90.1501C43.2669 90.1028 43.3961 90.0916 43.5203 90.1179C43.6446 90.1441 43.7582 90.2067 43.8468 90.2976C43.9084 90.3545 43.9831 90.3952 44.0643 90.416C44.1456 90.4368 44.2307 90.4371 44.312 90.4167C44.4028 90.394 44.4866 90.3492 44.5559 90.2863C44.6393 90.2206 44.7264 90.16 44.8169 90.1047Z" fill="white"/>
<path id="Vector_132" d="M61.1099 102.058C60.9851 102.228 60.9 102.432 60.6674 102.546C60.552 102.6 60.4227 102.618 60.2969 102.597C60.1712 102.575 60.0549 102.516 59.9639 102.427C59.8687 102.335 59.7416 102.283 59.6094 102.283C59.4771 102.283 59.35 102.335 59.2548 102.427L58.9882 102.608C59.0857 102.405 59.2417 102.235 59.4363 102.12C59.5538 102.073 59.6825 102.061 59.8065 102.086C59.9305 102.112 60.0444 102.173 60.1341 102.262C60.1945 102.321 60.269 102.363 60.3504 102.385C60.4319 102.407 60.5176 102.408 60.5993 102.387C60.6907 102.363 60.7745 102.316 60.8432 102.251C60.934 102.177 61.0134 102.109 61.1099 102.058Z" fill="white"/>
<path id="Vector_133" d="M50.0871 85.9067C50.1588 86.1207 50.1706 86.3503 50.1212 86.5705C50.0782 86.6874 50.0012 86.7888 49.9001 86.8616C49.799 86.9344 49.6784 86.9753 49.5539 86.9789C49.4691 86.9789 49.3857 87.0002 49.3114 87.0408C49.237 87.0815 49.1741 87.1402 49.1284 87.2115C49.075 87.2883 49.0455 87.379 49.0433 87.4725C49.0433 87.5746 49.0093 87.6824 48.9809 87.7845C48.9147 87.5682 48.9147 87.3371 48.9809 87.1208C49.028 87.0085 49.1067 86.9123 49.2074 86.8438C49.3081 86.7754 49.4265 86.7376 49.5482 86.735C49.6329 86.7324 49.7157 86.7087 49.789 86.6661C49.8622 86.6235 49.9238 86.5634 49.968 86.4911C50.0142 86.4096 50.0395 86.318 50.0417 86.2244C50.0531 86.1053 50.0871 86.0032 50.0871 85.9067Z" fill="white"/>
<path id="Vector_134" d="M47.591 104.372C47.6626 104.585 47.6743 104.812 47.6251 105.031C47.5817 105.148 47.5048 105.249 47.4039 105.323C47.303 105.397 47.1826 105.439 47.0578 105.445C46.9734 105.443 46.8899 105.463 46.8154 105.503C46.741 105.542 46.6779 105.6 46.6323 105.672C46.5773 105.748 46.5476 105.839 46.5472 105.933C46.5472 106.04 46.5132 106.142 46.4848 106.25C46.4093 106.037 46.3995 105.806 46.4564 105.586C46.5065 105.47 46.5896 105.371 46.6955 105.301C46.8014 105.232 46.9254 105.195 47.0521 105.195C47.1366 105.195 47.2194 105.172 47.2922 105.129C47.365 105.086 47.425 105.025 47.4662 104.951C47.5161 104.871 47.5435 104.779 47.5457 104.684C47.5513 104.582 47.5627 104.475 47.591 104.372Z" fill="white"/>
<path id="Vector_135" d="M60.6107 118.118C60.6824 118.332 60.6941 118.562 60.6447 118.782C60.6011 118.898 60.5239 118.999 60.4229 119.072C60.322 119.145 60.2017 119.186 60.0774 119.19C59.993 119.189 59.9096 119.209 59.8351 119.248C59.7606 119.288 59.6975 119.346 59.6519 119.417C59.5969 119.495 59.5672 119.588 59.5668 119.684C59.5668 119.786 59.5328 119.894 59.5044 119.996C59.4412 119.779 59.4412 119.549 59.5044 119.332C59.553 119.22 59.6319 119.125 59.7322 119.055C59.8324 118.986 59.9501 118.947 60.0717 118.941C60.1561 118.94 60.2389 118.917 60.3123 118.876C60.3858 118.834 60.4474 118.774 60.4915 118.702C60.5386 118.619 60.564 118.526 60.5653 118.43C60.571 118.328 60.5823 118.243 60.6107 118.118Z" fill="white"/>
<path id="Vector_136" d="M37.408 105.031C37.4767 105.245 37.4884 105.474 37.442 105.694C37.3984 105.811 37.3212 105.912 37.2203 105.984C37.1193 106.057 36.9991 106.098 36.8747 106.103C36.7892 106.103 36.7051 106.124 36.6298 106.165C36.5546 106.205 36.4906 106.264 36.4436 106.335C36.3927 106.413 36.3633 106.503 36.3585 106.596C36.3585 106.698 36.3585 106.806 36.3018 106.914C36.2331 106.698 36.2331 106.466 36.3018 106.25C36.3486 106.137 36.4271 106.04 36.5277 105.971C36.6283 105.901 36.7469 105.863 36.8691 105.859C36.953 105.856 37.035 105.833 37.1074 105.79C37.1798 105.747 37.2403 105.687 37.2832 105.615C37.3314 105.534 37.3587 105.442 37.3626 105.348C37.3683 105.24 37.3796 105.138 37.408 105.031Z" fill="white"/>
<path id="Vector_137" d="M42.3889 94.3368C42.4625 94.5503 42.4762 94.7798 42.4286 95.0005C42.384 95.1169 42.3067 95.2179 42.2061 95.2913C42.1054 95.3648 41.9857 95.4076 41.8613 95.4147C41.776 95.4125 41.6916 95.4322 41.6162 95.472C41.5407 95.5117 41.4766 95.5701 41.4301 95.6416C41.3793 95.7195 41.3499 95.8096 41.3451 95.9025C41.3451 96.0103 41.311 96.1124 41.2827 96.2202C41.2165 96.0039 41.2165 95.7728 41.2827 95.5565C41.3289 95.4432 41.4072 95.3458 41.508 95.2763C41.6087 95.2067 41.7276 95.1681 41.85 95.1651C41.9339 95.1625 42.0159 95.1388 42.0883 95.0962C42.1607 95.0536 42.2212 94.9933 42.2641 94.9211C42.3123 94.8402 42.3396 94.7486 42.3435 94.6545C42.3532 94.5479 42.3683 94.4418 42.3889 94.3368Z" fill="white"/>
<path id="Vector_138" d="M56.9685 96.5776C57.0402 96.7916 57.052 97.0212 57.0025 97.2414C56.9595 97.3583 56.8825 97.4597 56.7814 97.5325C56.6803 97.6053 56.5598 97.6462 56.4352 97.6498C56.3504 97.6493 56.2668 97.6703 56.1923 97.711C56.1179 97.7517 56.0551 97.8107 56.0097 97.8824C55.9564 97.9592 55.9268 98.0499 55.9246 98.1434C55.9246 98.2455 55.8906 98.3533 55.8622 98.4554C55.7961 98.2391 55.7961 98.008 55.8622 97.7917C55.9094 97.6794 55.9881 97.5832 56.0888 97.5147C56.1894 97.4463 56.3078 97.4085 56.4295 97.4059C56.5142 97.4028 56.5967 97.3789 56.6699 97.3364C56.7431 97.2938 56.8047 97.2339 56.8494 97.162C56.8956 97.0805 56.9209 96.9889 56.9231 96.8953C56.9288 96.7875 56.9401 96.6854 56.9685 96.5776Z" fill="white"/>
<path id="Vector_139" d="M43.4951 115.287C43.5668 115.501 43.5786 115.731 43.5291 115.951C43.4855 116.068 43.4083 116.169 43.3074 116.241C43.2064 116.314 43.0862 116.355 42.9618 116.36C42.8775 116.358 42.7943 116.379 42.7199 116.418C42.6455 116.458 42.5823 116.516 42.5364 116.586C42.4837 116.666 42.4542 116.758 42.4513 116.853C42.4513 116.955 42.4172 117.063 42.3889 117.165C42.3227 116.949 42.3227 116.718 42.3889 116.501C42.4369 116.389 42.5156 116.293 42.616 116.224C42.7164 116.155 42.8343 116.115 42.9562 116.11C43.0408 116.11 43.124 116.088 43.1976 116.046C43.2712 116.005 43.3327 115.944 43.376 115.872C43.4231 115.789 43.4485 115.695 43.4497 115.599C43.4554 115.497 43.4667 115.406 43.4951 115.287Z" fill="white"/>
<path id="Vector_140" d="M38.7411 118.118C38.807 118.344 38.807 118.584 38.7411 118.81C38.6969 118.926 38.6195 119.027 38.5187 119.1C38.4179 119.172 38.298 119.214 38.1738 119.219C38.0888 119.218 38.0047 119.238 37.9294 119.277C37.8542 119.317 37.79 119.375 37.7427 119.446C37.6925 119.526 37.6632 119.618 37.6576 119.712C37.6442 119.817 37.6252 119.921 37.6009 120.024C37.5318 119.808 37.5318 119.576 37.6009 119.361C37.6494 119.249 37.7283 119.153 37.8286 119.084C37.9289 119.015 38.0465 118.975 38.1682 118.969C38.2519 118.969 38.3342 118.947 38.4068 118.905C38.4794 118.863 38.5399 118.803 38.5823 118.731C38.6314 118.648 38.6587 118.555 38.6617 118.459C38.6844 118.328 38.6958 118.243 38.7411 118.118Z" fill="white"/>
<path id="Vector_141" d="M54.2852 90.6324C54.3802 90.4275 54.5343 90.2556 54.7277 90.1388C54.8432 90.0852 54.9723 90.0679 55.0979 90.0891C55.2235 90.1104 55.3397 90.1693 55.4311 90.2579C55.5263 90.3498 55.6534 90.4011 55.7857 90.4011C55.9179 90.4011 56.0451 90.3498 56.1402 90.2579C56.231 90.2012 56.3104 90.1331 56.4069 90.0764C56.3078 90.2808 56.1497 90.4508 55.953 90.5643C55.8367 90.6126 55.7086 90.6249 55.5852 90.5996C55.4618 90.5743 55.3489 90.5126 55.2609 90.4225C55.1993 90.3636 55.1239 90.3213 55.0415 90.2995C54.9592 90.2777 54.8727 90.2771 54.7901 90.2977C54.6987 90.322 54.6148 90.3688 54.5461 90.4338C54.461 90.5076 54.3759 90.5756 54.2852 90.6324Z" fill="white"/>
<path id="Vector_142" d="M45.9685 98.9943C46.0636 98.7894 46.2177 98.6176 46.411 98.5008C46.5265 98.4471 46.6556 98.4298 46.7812 98.4511C46.9068 98.4724 47.023 98.5312 47.1145 98.6199C47.2096 98.7118 47.3367 98.7631 47.469 98.7631C47.6013 98.7631 47.7284 98.7118 47.8236 98.6199C47.9144 98.5632 47.9938 98.4951 48.0902 98.4384C47.993 98.644 47.8344 98.8144 47.6364 98.9262C47.5201 98.9745 47.3919 98.9868 47.2686 98.9615C47.1452 98.9362 47.0322 98.8745 46.9443 98.7844C46.8838 98.7256 46.8094 98.6833 46.7279 98.6614C46.6465 98.6396 46.5608 98.6389 46.4791 98.6596C46.3857 98.6831 46.2998 98.7299 46.2295 98.7958C46.1444 98.8695 46.0593 98.9546 45.9685 98.9943Z" fill="white"/>
<path id="Vector_143" d="M40.2047 110.34C40.3055 110.139 40.4583 109.969 40.6472 109.847C40.7629 109.794 40.8918 109.777 41.0172 109.798C41.1427 109.82 41.2588 109.878 41.3507 109.966C41.4094 110.028 41.4831 110.073 41.5646 110.098C41.6461 110.123 41.7327 110.126 41.8158 110.108C41.9081 110.088 41.994 110.045 42.0655 109.983C42.1506 109.926 42.2357 109.858 42.3264 109.807C42.2073 109.977 42.1222 110.187 41.8783 110.289C41.761 110.337 41.6321 110.349 41.5079 110.324C41.3837 110.299 41.2697 110.237 41.1805 110.148C41.1201 110.089 41.0456 110.046 40.9641 110.025C40.8827 110.003 40.797 110.002 40.7153 110.023C40.6239 110.047 40.54 110.094 40.4713 110.159C40.3806 110.221 40.3012 110.301 40.2047 110.34Z" fill="white"/>
<path id="Vector_144" d="M53.8427 109.166C53.945 108.966 54.0975 108.796 54.2851 108.673C54.4014 108.62 54.5306 108.604 54.6561 108.627C54.7815 108.649 54.8974 108.708 54.9886 108.797C55.0488 108.857 55.1226 108.901 55.2037 108.926C55.2847 108.95 55.3706 108.955 55.4538 108.939C55.5461 108.919 55.6319 108.876 55.7034 108.814C55.7867 108.749 55.8739 108.688 55.9644 108.633C55.8668 108.836 55.7108 109.006 55.5162 109.121C55.3984 109.168 55.2691 109.179 55.1449 109.153C55.0207 109.127 54.907 109.064 54.8184 108.973C54.7577 108.915 54.683 108.873 54.6015 108.852C54.52 108.832 54.4345 108.832 54.3532 108.854C54.2624 108.877 54.1786 108.922 54.1093 108.985C54.024 109.05 53.935 109.111 53.8427 109.166Z" fill="white"/>
<path id="Vector_145" d="M48.6122 117.432C48.711 117.229 48.8643 117.058 49.0547 116.938C49.1711 116.887 49.3001 116.871 49.4254 116.894C49.5507 116.916 49.6665 116.975 49.7581 117.063C49.8171 117.124 49.8909 117.17 49.9723 117.194C50.0537 117.219 50.1401 117.223 50.2233 117.205C50.3142 117.185 50.3984 117.142 50.4673 117.08C50.558 117.018 50.6375 116.955 50.7339 116.898C50.6349 117.103 50.4768 117.273 50.28 117.386C50.1622 117.434 50.033 117.445 49.9088 117.419C49.7845 117.392 49.6709 117.33 49.5823 117.239C49.5207 117.182 49.446 117.141 49.3647 117.12C49.2835 117.1 49.1984 117.099 49.1171 117.12C49.0251 117.143 48.9409 117.19 48.8731 117.256C48.788 117.313 48.703 117.381 48.6122 117.432Z" fill="white"/>
<path id="Vector_146" d="M32.132 115.798C32.0129 115.974 31.9221 116.184 31.6781 116.286C31.5618 116.334 31.4337 116.346 31.3103 116.321C31.187 116.296 31.074 116.234 30.986 116.144C30.9343 116.092 30.8697 116.055 30.7988 116.036C30.7988 115.962 30.8385 115.883 30.8556 115.804C30.9678 115.83 31.0713 115.884 31.1562 115.962C31.2146 116.025 31.2883 116.07 31.3699 116.095C31.4515 116.12 31.5382 116.123 31.6214 116.104C31.7127 116.086 31.7971 116.043 31.8654 115.979C31.9334 115.923 32.0355 115.855 32.132 115.798Z" fill="white"/>
<path id="Vector_147" d="M35.7798 99.2609C35.8812 99.0585 36.0362 98.8878 36.228 98.7674C36.3437 98.7145 36.4726 98.6976 36.598 98.7189C36.7234 98.7401 36.8396 98.7985 36.9314 98.8865C36.9898 98.9488 37.0634 98.9946 37.1451 99.0195C37.2267 99.0444 37.3134 99.0474 37.3966 99.0283C37.4875 99.0089 37.5716 98.9659 37.6405 98.9035C37.7313 98.8468 37.8107 98.7787 37.9072 98.722C37.7824 98.8979 37.6973 99.1078 37.4533 99.2099C37.336 99.2579 37.2071 99.27 37.0829 99.2447C36.9587 99.2195 36.8448 99.158 36.7555 99.068C36.6951 99.0092 36.6206 98.9669 36.5392 98.945C36.4578 98.9232 36.3721 98.9226 36.2904 98.9432C36.199 98.9676 36.1151 99.0144 36.0464 99.0794C35.9607 99.1444 35.8717 99.205 35.7798 99.2609Z" fill="white"/>
<path id="Vector_148" d="M60.5652 114.527C60.3156 113.092 60.1341 111.969 59.9242 110.556C59.7143 109.143 59.4987 107.68 59.3115 106.239V106.142L59.3739 106.052C60.0943 104.956 60.6113 103.74 60.8999 102.461C61.0508 101.827 61.1232 101.177 61.1155 100.526C61.1228 99.8758 61.0349 99.2279 60.8545 98.603C60.4607 97.3301 59.9557 96.0943 59.3455 94.9098C58.7442 93.7128 58.2506 92.7087 57.5812 91.5401C57.4678 91.3585 57.5415 91.3188 57.6436 91.4606C58.3187 92.4194 59.0562 93.7299 59.6348 94.7567C60.3238 95.9319 60.894 97.1728 61.3368 98.4612C61.5515 99.1266 61.6625 99.8212 61.6658 100.52C61.6792 101.215 61.6068 101.909 61.4502 102.585C61.1464 103.94 60.584 105.223 59.7937 106.364L59.8391 106.176C60.0036 107.623 60.1397 109.07 60.2759 110.516C60.4064 111.815 60.5539 113.222 60.6446 114.527C60.6446 114.646 60.6503 115.055 60.5652 114.527Z" fill="#263238"/>
<path id="Vector_149" d="M58.8009 92.6179C59.0774 93.0424 59.3039 93.4973 59.476 93.9738C59.565 94.2104 59.637 94.4531 59.6916 94.6999C59.7569 94.9481 59.7912 95.2035 59.7937 95.4601C59.5781 94.9949 59.3796 94.5411 59.2264 94.0702C59.0408 93.6 58.8984 93.1139 58.8009 92.6179Z" fill="#263238"/>
<path id="Vector_150" d="M43.739 88.0001C41.6684 91.1259 31.8824 103.431 31.5193 104.611C31.1563 105.791 33.3744 108.241 33.3517 108.724C33.2666 110.681 28.3368 122.469 26.5895 121.204C24.3203 119.565 16.0887 109.223 17.1836 103.771C18.2785 98.3193 39.3084 84.7267 42.769 83.4503C46.2295 82.1739 45.7813 84.9196 43.739 88.0001Z" fill="#774442"/>
<path id="Vector_151" d="M35.7911 125.448C37.1186 124.194 34.8778 123.349 34.8778 123.349C34.8778 123.349 38.395 123.791 39.263 121.97C40.131 120.149 37.3512 119.287 37.1583 119.213C37.3455 119.213 40.5621 119.559 41.2656 117.636C41.969 115.713 39.0644 115.185 38.8772 115.157C39.0588 115.117 41.4585 114.618 41.6457 113.041C41.9634 110.335 34.9742 111.174 33.2156 109.841C33.2156 109.841 33.329 106.313 33.363 106.21C33.0384 107.05 32.4383 107.754 31.6611 108.207C30.2259 108.882 28.9154 109.342 28.4218 110.17C28.1902 110.532 28.0811 110.958 28.1107 111.386C28.1404 111.814 28.3072 112.221 28.5864 112.547C28.5864 112.547 26.6519 112.644 26.0675 114.136C25.7669 114.907 26.7313 116.065 26.7313 116.065C26.2949 116.109 25.8791 116.272 25.5297 116.538C25.1804 116.803 24.9111 117.159 24.7514 117.568C24.3997 118.651 25.4208 119.644 25.4208 119.644C25.4208 119.644 23.9912 120.467 23.9912 121.692C23.9912 124.166 32.9489 128.131 35.7911 125.448Z" fill="#774442"/>
<path id="Vector_152" d="M25.5627 119.831C25.5627 119.831 25.506 119.831 25.5627 119.871C28.2769 121.977 31.5668 123.21 34.9969 123.405C35.1047 123.405 35.1558 123.235 35.0366 123.207C31.7316 122.547 28.5401 121.41 25.5627 119.831Z" fill="#263238"/>
<path id="Vector_153" d="M26.6859 116.064C26.6519 116.064 26.6235 116.098 26.6519 116.127C29.6768 118.424 33.4231 119.565 37.215 119.343C37.3512 119.343 37.459 119.185 37.3058 119.19C34.7246 119.219 29.46 117.585 26.6859 116.064Z" fill="#263238"/>
<path id="Vector_154" d="M39.1382 115.038C35.428 115.219 32.0355 114.198 28.6998 112.644C28.6544 112.644 28.6317 112.683 28.6601 112.712C30.084 113.92 32.3135 114.686 34.1005 115.14C35.7504 115.589 37.489 115.598 39.1438 115.168C39.2062 115.151 39.2176 115.032 39.1382 115.038Z" fill="#263238"/>
<path id="Vector_155" d="M25.3244 119.656C24.9768 119.399 24.7067 119.051 24.5436 118.651C24.3805 118.25 24.3307 117.813 24.3997 117.386C24.5064 116.966 24.7651 116.6 25.1259 116.36C25.5574 116.129 26.0378 116.004 26.5271 115.996C26.2002 115.664 25.9813 115.241 25.8993 114.783C25.8173 114.324 25.8759 113.851 26.0676 113.427C26.2906 113.05 26.6502 112.773 27.0717 112.655C27.5591 112.53 28.0606 112.469 28.5637 112.474C28.3193 112.266 28.1269 112.003 28.0018 111.708C27.8767 111.412 27.8224 111.092 27.8432 110.772C27.8778 110.421 27.9957 110.083 28.1872 109.787C28.3786 109.491 28.638 109.245 28.9438 109.07C29.6606 108.669 30.4223 108.355 31.213 108.134C31.6105 108.003 31.9913 107.826 32.3476 107.606C32.727 107.344 33.0225 106.977 33.1986 106.551C33.2326 106.477 33.2383 106.551 33.1986 106.613C33.0866 106.904 32.9275 107.174 32.7277 107.413C32.5164 107.664 32.2721 107.886 32.0016 108.071C31.3198 108.466 30.6086 108.807 29.8742 109.092C29.2367 109.38 28.7107 109.868 28.3765 110.482C28.2325 110.803 28.1806 111.158 28.2267 111.506C28.2728 111.855 28.415 112.184 28.6375 112.456C28.6425 112.464 28.6454 112.473 28.646 112.482C28.6466 112.491 28.6448 112.5 28.6407 112.508C28.6367 112.516 28.6306 112.523 28.623 112.528C28.6155 112.533 28.6068 112.535 28.5978 112.536C28.1503 112.601 27.7134 112.725 27.2986 112.905C26.9535 113.057 26.6627 113.31 26.4647 113.631C26.2959 114.021 26.2328 114.448 26.2816 114.871C26.3304 115.293 26.4894 115.695 26.7427 116.036C26.2703 116.146 25.821 116.338 25.4152 116.603C25.1482 116.82 24.9509 117.11 24.8479 117.437C24.7353 117.809 24.7288 118.204 24.829 118.579C24.9293 118.954 25.1323 119.293 25.4152 119.559C25.4166 119.569 25.4166 119.578 25.4152 119.587C25.4152 119.587 25.4152 119.587 25.4152 119.616C25.4152 119.616 24.967 119.894 24.9387 119.899C25.0609 119.809 25.1898 119.727 25.3244 119.656Z" fill="#263238"/>
<path id="Vector_156" d="M38.4291 95.5905L29.755 90.7855C29.755 90.7855 38.5936 84.9195 42.7009 83.2347C46.8081 81.5498 46.8989 85.5266 38.4291 95.5905Z" fill="#263238"/>
<path id="Vector_157" d="M47.0294 81.3343C45.6509 81.9016 45.2651 82.8887 45.6962 84.046C46.1728 85.3451 50.1609 87.8696 51.8174 87.0186C53.247 86.2811 52.0103 82.8603 51.2501 82.0888C50.6758 81.6017 49.9828 81.2753 49.2414 81.1427C48.5001 81.0102 47.7369 81.0763 47.0294 81.3343Z" fill="#263238"/>
<path id="Vector_158" d="M46.116 83.7452C46.3259 84.2161 49.2929 86.9448 51.5167 86.4002C52.2429 86.2186 51.443 82.2248 51.443 82.2248V81.9128L51.5564 77.5957L46.116 75.4286L45.3331 75.1562C45.3331 75.1562 45.3785 76.3362 45.4523 77.8112C45.4523 77.8793 45.4523 77.9474 45.4523 78.0211C45.4523 78.0949 45.4523 78.18 45.4523 78.2594C45.4523 78.4806 45.4523 78.7076 45.4806 78.9288C45.509 79.1501 45.4806 79.2635 45.5203 79.4451C45.56 79.6266 45.5203 79.7968 45.56 79.9783C45.6571 81.2454 45.8429 82.5041 46.116 83.7452Z" fill="#774442"/>
<path id="Vector_159" d="M45.4296 77.8112C46.0722 78.8954 46.9437 79.8261 47.9834 80.5385C49.023 81.2508 50.2056 81.7276 51.4487 81.9355L51.5621 77.6183L46.116 75.4286L45.3331 75.1562C45.3331 75.1562 45.3558 76.3362 45.4296 77.8112Z" fill="#263238"/>
<path id="Vector_160" d="M56.6168 70.9242C57.7003 78.4296 53.3321 79.9216 51.7096 80.1542C50.2403 80.3641 45.214 80.8974 43.3589 73.5451C41.5038 66.1929 44.6524 63.3337 47.9881 62.6586C51.3238 61.9835 55.5332 63.4188 56.6168 70.9242Z" fill="#774442"/>
<path id="Vector_161" d="M54.6256 69.1202C54.451 69.1203 54.2767 69.109 54.1037 69.0862C53.9174 69.103 53.731 69.0549 53.5761 68.95C53.5329 68.9093 53.5048 68.8551 53.4966 68.7963C53.4883 68.7375 53.5003 68.6777 53.5307 68.6266C53.6032 68.5319 53.7 68.4586 53.811 68.4146C53.9219 68.3706 54.0427 68.3576 54.1604 68.377C54.4039 68.377 54.6386 68.4681 54.8185 68.6323C54.8564 68.6723 54.8821 68.7223 54.8926 68.7764C54.903 68.8305 54.8978 68.8865 54.8776 68.9377C54.8573 68.989 54.8228 69.0334 54.7782 69.0657C54.7335 69.098 54.6806 69.1169 54.6256 69.1202Z" fill="#263238"/>
<path id="Vector_162" d="M49.588 70.0506C49.7536 69.9985 49.9164 69.938 50.0758 69.8691C50.2589 69.8303 50.4243 69.7327 50.5467 69.5911C50.5749 69.5381 50.5851 69.4774 50.5759 69.4181C50.5667 69.3588 50.5385 69.3041 50.4956 69.2621C50.3983 69.1934 50.2845 69.152 50.1658 69.142C50.0471 69.132 49.928 69.1539 49.8206 69.2053C49.5846 69.2739 49.3825 69.4275 49.2533 69.6365C49.2266 69.6866 49.2153 69.7434 49.2207 69.7999C49.2261 69.8564 49.248 69.9101 49.2837 69.9542C49.3193 69.9984 49.3672 70.0311 49.4213 70.0482C49.4754 70.0653 49.5334 70.0662 49.588 70.0506Z" fill="#263238"/>
<path id="Vector_163" d="M51.1197 71.7241C51.1197 71.7241 51.08 71.7582 51.0856 71.7752C51.1878 72.2857 51.2218 72.8814 50.7906 73.1254C50.7906 73.1254 50.7906 73.1594 50.7906 73.1537C51.3466 72.9835 51.2955 72.1893 51.1197 71.7241Z" fill="#263238"/>
<path id="Vector_164" d="M50.575 71.2703C49.7468 71.3497 49.9567 73.0006 50.7282 72.9268C51.4997 72.8531 51.2672 71.2079 50.575 71.2703Z" fill="#263238"/>
<path id="Vector_165" d="M50.263 71.4007C50.1269 71.5141 50.0077 71.6957 49.8375 71.7354C49.6673 71.7751 49.4631 71.6276 49.3099 71.4801C49.3496 71.7978 49.5142 72.1041 49.8772 72.1098C50.2403 72.1155 50.3765 71.8035 50.4445 71.4744C50.3765 71.4347 50.3141 71.3553 50.263 71.4007Z" fill="#263238"/>
<path id="Vector_166" d="M53.9221 71.1569C53.9221 71.1569 53.9675 71.1569 53.9675 71.1966C54.0129 71.7128 54.1547 72.2915 54.6369 72.4106V72.439C54.0583 72.4049 53.8824 71.6277 53.9221 71.1569Z" fill="#263238"/>
<path id="Vector_167" d="M54.3135 70.5441C55.1305 70.3796 55.3971 72.0248 54.6426 72.178C53.8881 72.3311 53.6328 70.6803 54.3135 70.5441Z" fill="#263238"/>
<path id="Vector_168" d="M54.6766 70.5895C54.8184 70.6576 54.9773 70.7937 55.1304 70.7824C55.2836 70.771 55.4198 70.5611 55.5049 70.3739C55.5673 70.6859 55.5049 71.0263 55.2212 71.1398C54.9375 71.2532 54.7106 70.9979 54.5858 70.6973C54.5858 70.6632 54.6255 70.5895 54.6766 70.5895Z" fill="#263238"/>
<path id="Vector_169" d="M51.5621 75.8824C51.6926 75.9902 51.8344 76.1491 52.0216 76.1491C52.2211 76.1317 52.4146 76.0717 52.5889 75.9732C52.5238 76.0805 52.4309 76.1682 52.3201 76.2271C52.2092 76.286 52.0846 76.3139 51.9592 76.3079C51.8531 76.2874 51.7551 76.2369 51.6768 76.1625C51.5984 76.0882 51.5428 75.993 51.5167 75.8881L51.5621 75.8824Z" fill="#263238"/>
<path id="Vector_170" d="M53.44 73.7323C53.44 73.7323 53.6499 74.4812 53.7009 74.8669C53.7009 74.901 53.6215 74.9293 53.5024 74.9577C53.2012 75.0564 52.8788 75.0711 52.5699 75.0001C52.261 74.9292 51.9773 74.7752 51.7494 74.5549C51.7437 74.5481 51.7403 74.5396 51.74 74.5307C51.7397 74.5218 51.7424 74.5131 51.7476 74.5059C51.7528 74.4987 51.7603 74.4935 51.7689 74.4911C51.7774 74.4886 51.7866 74.4891 51.7948 74.4925C52.2985 74.7427 52.8693 74.8243 53.4229 74.7251C53.4229 74.6173 53.0145 73.4544 53.0712 73.443C53.3547 73.4279 53.639 73.4508 53.9165 73.5111C53.5194 71.9397 52.867 70.442 52.4982 68.8706C52.4978 68.8598 52.5008 68.8492 52.5067 68.8403C52.5127 68.8314 52.5213 68.8245 52.5313 68.8208C52.5414 68.817 52.5524 68.8165 52.5627 68.8193C52.5731 68.8221 52.5823 68.8282 52.589 68.8365C53.332 70.4178 53.9155 72.0693 54.3306 73.7664C54.3703 73.9366 53.5931 73.772 53.44 73.7323Z" fill="#263238"/>
<path id="Vector_171" d="M43.3533 72.9325C45.1346 72.8077 44.902 70.0052 44.902 70.0052C44.902 70.0052 46.9103 69.6648 46.8025 66.3971C47.2463 67.0207 47.8288 67.5328 48.5041 67.8931C49.1794 68.2534 49.9291 68.452 50.6942 68.4735C51.2615 68.5132 49.2249 67.163 49.2249 67.163C49.2249 67.163 51.7153 69.0918 55.9701 67.9572C56.2708 67.8778 55.5673 62.9026 52.0557 61.6148C48.5441 60.327 45.2481 61.9098 43.3363 64.2074C43.3363 64.2074 40.9422 65.5405 40.8458 67.9175C40.7494 70.2945 42.6612 72.9779 43.3533 72.9325Z" fill="#263238"/>
<path id="Vector_172" d="M50.0872 74.6457C49.6316 74.6718 49.1777 74.5697 48.7773 74.3508C48.3768 74.1319 48.0458 73.805 47.8219 73.4074C47.5979 73.0097 47.49 72.5573 47.5104 72.1013C47.5308 71.6454 47.6786 71.2044 47.9372 70.8283C48.1957 70.4522 48.5546 70.1562 48.973 69.9739C49.3913 69.7916 49.8525 69.7304 50.3039 69.7971C50.7554 69.8638 51.1791 70.0558 51.5269 70.3513C51.8747 70.6468 52.1326 71.034 52.2713 71.4688C52.3856 71.8232 52.417 72.1992 52.3631 72.5677C52.3092 72.9362 52.1715 73.2874 51.9605 73.5943C51.7495 73.9012 51.4709 74.1556 51.1461 74.3379C50.8213 74.5201 50.4591 74.6254 50.0872 74.6457ZM49.8206 70.1072C49.3806 70.1336 48.9599 70.2967 48.6172 70.5737C48.2744 70.8507 48.0266 71.2278 47.9085 71.6524C47.7904 72.077 47.8078 72.5278 47.9583 72.9421C48.1088 73.3563 48.3849 73.7132 48.748 73.9629C49.1111 74.2127 49.5431 74.3428 49.9838 74.3352C50.4244 74.3276 50.8517 74.1826 51.2059 73.9204C51.5602 73.6583 51.8237 73.292 51.9598 72.8729C52.0959 72.4537 52.0977 72.0025 51.965 71.5822C51.826 71.1344 51.5422 70.7455 51.1581 70.4764C50.7741 70.2074 50.3116 70.0736 49.8433 70.0959L49.8206 70.1072Z" fill="#F06D3D"/>
<path id="Vector_173" d="M55.624 73.6416C54.6936 73.6983 53.7916 72.7906 53.5647 71.5369C53.4507 70.9388 53.5261 70.3201 53.7802 69.7669C53.8743 69.5224 54.03 69.3063 54.2322 69.1397C54.4344 68.9731 54.6762 68.8615 54.9342 68.8159C55.1922 68.7702 55.4576 68.792 55.7047 68.8791C55.9518 68.9662 56.1721 69.1157 56.3445 69.3131C56.7721 69.7456 57.0537 70.301 57.15 70.9015C57.3826 72.229 56.7699 73.4487 55.7828 73.6246C55.7306 73.6358 55.6774 73.6415 55.624 73.6416ZM55.1134 69.1032H54.9886C54.7792 69.1505 54.5848 69.2488 54.4225 69.3894C54.2602 69.5299 54.1351 69.7083 54.0582 69.9087C53.838 70.4015 53.7746 70.9501 53.8767 71.4802C54.0809 72.6148 54.9035 73.4487 55.7147 73.3012C56.526 73.1537 57.0195 72.1099 56.8153 70.9582C56.7299 70.4256 56.4823 69.9323 56.1062 69.5457C55.9785 69.4108 55.8245 69.3034 55.6538 69.2302C55.4831 69.1571 55.2992 69.1196 55.1134 69.1202V69.1032Z" fill="#F06D3D"/>
<path id="Vector_174" d="M52.2656 71.7638L52.016 71.5539C52.3223 71.1795 53.0939 70.6235 53.7917 71.1455L53.5988 71.4064C52.9747 70.9356 52.294 71.7241 52.2656 71.7638Z" fill="#F06D3D"/>
<path id="Vector_175" d="M41.657 74.2713L41.345 74.1749C41.3904 74.033 41.8102 72.7509 42.4796 72.507C43.149 72.263 47.5116 71.9397 47.6988 71.9056V72.2347C46.4394 72.3368 43.0639 72.6375 42.559 72.802C42.0541 72.9665 41.7704 73.9196 41.657 74.2713Z" fill="#F06D3D"/>
<path id="Vector_176" d="M44.6354 73.9479C44.6354 73.9479 42.8484 71.6787 41.7989 72.3311C40.7494 72.9835 42.196 76.3363 43.5008 76.7334C43.6638 76.7997 43.8386 76.8318 44.0145 76.8276C44.1904 76.8235 44.3636 76.7832 44.5232 76.7092C44.6829 76.6352 44.8256 76.5292 44.9425 76.3977C45.0594 76.2662 45.148 76.112 45.2027 75.9448L44.6354 73.9479Z" fill="#774442"/>
<path id="Vector_177" d="M43.4951 65.2228C44.5673 64.3719 46.8536 58.3755 41.6854 55.7375C36.5173 53.0996 30.7989 59.8108 34.6339 64.4286C37.2151 67.5261 41.2259 67.0268 43.4951 65.2228Z" fill="#263238"/>
</g>
<g id="Plant">
<path id="Vector_178" d="M215.694 186.109C219.767 177.736 226.893 173.441 234.92 175.813C242.947 178.184 244.195 189.388 238.199 192.213C232.203 195.039 226.212 186.784 223.046 185.088C219.881 183.392 215.694 186.109 215.694 186.109Z" fill="#F06D3D"/>
<path id="Vector_179" d="M211.768 208.387C211.768 207.378 211.831 206.368 211.865 205.358C211.939 203.344 212.007 201.33 212.08 199.316C212.217 195.634 212.614 192.015 214.14 188.617C215.488 185.537 217.741 182.941 220.601 181.174C221.665 180.535 222.81 180.043 224.005 179.71C225.089 178.614 226.469 177.857 227.976 177.532C229.844 177.153 231.765 177.105 233.649 177.39C233.717 177.39 233.717 177.509 233.649 177.498C231.86 177.271 230.044 177.4 228.305 177.878C227.56 178.083 226.838 178.365 226.15 178.717C225.718 178.951 225.303 179.215 224.907 179.506C226.527 179.169 228.201 179.185 229.814 179.551C230.396 179.695 230.965 179.885 231.516 180.119C231.956 180.025 232.406 179.986 232.855 180.005C233.441 180.026 234.023 180.109 234.591 180.255C235.753 180.584 236.866 181.068 237.898 181.696C237.955 181.73 237.898 181.821 237.842 181.786C236.828 181.233 235.741 180.825 234.614 180.572C234.069 180.448 233.515 180.367 232.957 180.329C232.651 180.311 232.344 180.311 232.038 180.329C234.327 181.383 236.167 183.217 237.229 185.502C237.257 185.565 237.161 185.616 237.138 185.553C236.505 184.228 235.581 183.062 234.435 182.144C233.289 181.225 231.95 180.578 230.518 180.249C230.342 180.204 230.16 180.181 229.985 180.141C230.047 180.402 230.036 180.709 230.07 180.953C230.121 181.361 230.189 181.764 230.274 182.167C230.437 182.997 230.655 183.816 230.926 184.617C231.199 185.43 231.523 186.223 231.896 186.994C232.262 187.801 232.718 188.562 233.258 189.264C233.303 189.32 233.212 189.388 233.173 189.326C232.691 188.571 232.129 187.874 231.686 187.057C231.264 186.309 230.9 185.529 230.597 184.725C230.291 183.908 230.052 183.068 229.882 182.212C229.792 181.764 229.724 181.31 229.673 180.85C229.616 180.578 229.599 180.299 229.621 180.022C228.682 179.88 227.729 179.861 226.785 179.965C227.142 181.962 227.528 184.039 228.646 185.775C228.68 185.831 228.583 185.888 228.549 185.826C228.026 184.913 227.565 183.965 227.171 182.989C226.783 182.059 226.525 181.08 226.405 180.079C224.748 180.301 223.148 180.836 221.691 181.656C218.947 183.253 216.756 185.65 215.411 188.526C213.997 191.622 213.206 194.967 213.085 198.369C212.818 202.646 212.761 206.946 212.336 211.212C212.307 211.49 211.865 211.587 211.814 211.269C211.706 210.312 211.691 209.347 211.768 208.387Z" fill="#354458"/>
<path id="Vector_180" d="M221.163 180.504C221.432 180.179 221.743 179.891 222.088 179.648C222.422 179.375 222.763 179.109 223.12 178.865C223.827 178.382 224.609 178.02 225.435 177.793C225.448 177.789 225.463 177.791 225.475 177.798C225.487 177.805 225.496 177.816 225.5 177.83C225.504 177.843 225.502 177.858 225.495 177.87C225.488 177.882 225.477 177.891 225.463 177.895C224.636 178.11 223.863 178.497 223.194 179.029C222.854 179.279 222.53 179.546 222.213 179.824C221.928 180.119 221.614 180.385 221.276 180.618C221.269 180.625 221.26 180.631 221.25 180.635C221.241 180.639 221.23 180.641 221.22 180.641C221.209 180.641 221.199 180.639 221.189 180.635C221.179 180.631 221.17 180.625 221.163 180.618C221.156 180.61 221.15 180.602 221.146 180.592C221.142 180.582 221.14 180.572 221.14 180.561C221.14 180.551 221.142 180.54 221.146 180.53C221.15 180.521 221.156 180.512 221.163 180.504Z" fill="#354458"/>
<path id="Vector_181" d="M234.16 183.539C234.833 184.322 235.456 185.146 236.026 186.007C236.582 186.876 237.048 187.8 237.416 188.764C237.416 188.793 237.382 188.81 237.365 188.764C236.433 186.943 235.334 185.213 234.08 183.596C234.035 183.557 234.114 183.483 234.16 183.539Z" fill="#354458"/>
<path id="Vector_182" d="M225.384 182.711C225.468 183.234 225.623 183.744 225.843 184.226C226.066 184.691 226.324 185.139 226.615 185.565C226.615 185.593 226.615 185.621 226.569 185.599C225.868 184.791 225.418 183.795 225.276 182.734C225.287 182.666 225.384 182.643 225.384 182.711Z" fill="#354458"/>
<path id="Vector_183" d="M212.336 186.319C212.336 186.319 206.572 179.075 195.447 181.639C184.867 184.084 179.988 203.474 190.676 205.795C201.364 208.115 199.481 190.171 203.372 187.125C206.215 184.884 210.322 185.366 212.336 186.319Z" fill="#F06D3D"/>
<path id="Vector_184" opacity="0.1" d="M212.336 186.319C212.336 186.319 206.572 179.075 195.447 181.639C184.867 184.084 179.988 203.474 190.676 205.795C201.364 208.115 199.481 190.171 203.372 187.125C206.215 184.884 210.322 185.366 212.336 186.319Z" fill="black"/>
<path id="Vector_185" d="M186.835 192.225C187.553 191.592 188.311 191.006 189.105 190.472C189.859 189.954 190.682 189.543 191.55 189.252C192.772 187.38 194.42 185.825 196.36 184.714C196.251 184.708 196.141 184.708 196.031 184.714C195.442 184.683 194.851 184.683 194.261 184.714C193.075 184.787 191.911 185.077 190.829 185.57C190.767 185.57 190.721 185.497 190.784 185.474C191.875 184.998 193.017 184.649 194.188 184.436C194.761 184.336 195.342 184.286 195.924 184.288C196.236 184.288 196.553 184.288 196.86 184.345H197.041C198.062 183.832 199.137 183.437 200.246 183.165L199.94 183.086C199.396 182.961 198.845 182.87 198.289 182.813C197.182 182.686 196.062 182.703 194.959 182.864C194.948 182.861 194.938 182.853 194.931 182.844C194.924 182.834 194.92 182.822 194.92 182.81C194.92 182.798 194.924 182.787 194.931 182.777C194.938 182.767 194.948 182.76 194.959 182.757C196.075 182.623 197.2 182.578 198.323 182.62C199.265 182.651 200.202 182.773 201.12 182.983C201.791 182.863 202.47 182.785 203.151 182.751C207.031 182.592 211.258 184.039 213.646 187.227C216.034 190.415 216.483 194.681 216.925 198.528C217.577 203.893 217.719 209.309 217.351 214.701C217.351 215.019 216.88 214.962 216.868 214.662C216.727 210.089 216.562 205.517 216.125 200.956C215.921 198.845 215.7 196.729 215.348 194.636C215.093 192.837 214.577 191.084 213.816 189.434C212.987 187.749 211.681 186.344 210.061 185.394C208.43 184.462 206.612 183.904 204.739 183.761C203.061 183.621 201.371 183.779 199.747 184.226C199.805 184.552 199.814 184.884 199.776 185.213C199.74 185.626 199.659 186.033 199.532 186.427C199.409 186.8 199.254 187.16 199.066 187.505C198.857 187.891 198.601 188.231 198.369 188.594C198.335 188.656 198.238 188.594 198.284 188.537C198.754 187.88 199.06 187.119 199.174 186.319C199.242 185.944 199.288 185.565 199.31 185.185C199.31 184.895 199.31 184.617 199.31 184.322C197.545 184.864 195.898 185.734 194.454 186.886C194.182 187.108 193.921 187.335 193.666 187.573C194.032 187.904 194.349 188.287 194.607 188.708C194.989 189.264 195.321 189.852 195.6 190.466C196.115 191.706 196.46 193.009 196.627 194.341C196.627 194.409 196.531 194.426 196.525 194.341C196.319 193.055 195.891 191.815 195.26 190.676C194.965 190.112 194.635 189.566 194.273 189.042C194.086 188.776 193.887 188.509 193.705 188.254C193.598 188.118 193.473 187.976 193.371 187.828C192.058 189.13 190.987 190.655 190.211 192.333C190.735 192.889 191.172 193.519 191.51 194.205C191.91 194.922 192.259 195.667 192.554 196.434C193.093 197.917 193.537 199.433 193.881 200.973C193.881 201.035 193.791 201.058 193.779 200.973C193.442 199.423 192.912 197.921 192.202 196.502C191.869 195.803 191.518 195.116 191.147 194.443C190.762 193.815 190.414 193.165 190.103 192.497C189.359 194.121 188.927 195.87 188.832 197.654C188.832 197.722 188.719 197.711 188.725 197.654C188.928 194.859 189.783 192.151 191.221 189.746C190.546 190.035 189.859 190.313 189.207 190.665C188.37 191.109 187.593 191.656 186.892 192.293C186.852 192.355 186.807 192.27 186.835 192.225Z" fill="#354458"/>
<path id="Vector_186" d="M194.993 192.639C195.328 193.734 195.748 194.8 196.048 195.912C196.357 196.977 196.523 198.078 196.542 199.186C196.542 199.214 196.491 199.214 196.491 199.186C196.188 196.963 195.653 194.779 194.897 192.667C194.894 192.661 194.892 192.653 194.891 192.646C194.891 192.638 194.893 192.631 194.896 192.624C194.899 192.617 194.903 192.611 194.909 192.606C194.914 192.601 194.921 192.598 194.928 192.596C194.935 192.593 194.943 192.593 194.95 192.594C194.958 192.595 194.965 192.598 194.971 192.602C194.977 192.606 194.982 192.612 194.986 192.618C194.99 192.624 194.992 192.632 194.993 192.639Z" fill="#354458"/>
<path id="Vector_187" d="M187.942 189.91C188.379 189.49 188.876 189.136 189.417 188.861C189.965 188.61 190.535 188.407 191.119 188.254C191.187 188.254 191.209 188.345 191.119 188.362C190.542 188.512 189.989 188.739 189.473 189.037C188.948 189.31 188.444 189.62 187.964 189.967C187.958 189.967 187.952 189.964 187.947 189.961C187.942 189.957 187.938 189.952 187.935 189.946C187.933 189.94 187.932 189.933 187.934 189.927C187.935 189.921 187.937 189.915 187.942 189.91Z" fill="#354458"/>
<path id="Vector_188" d="M206.844 176.635C206.844 176.635 205.778 163.621 196.1 159.401C188.021 155.878 183.392 164.955 189.105 170.514C193.728 175.013 201.137 172.982 206.844 176.635Z" fill="#F06D3D"/>
<path id="Vector_189" opacity="0.1" d="M206.844 176.635C206.844 176.635 205.778 163.621 196.1 159.401C188.021 155.878 183.392 164.955 189.105 170.514C193.728 175.013 201.137 172.982 206.844 176.635Z" fill="black"/>
<path id="Vector_190" d="M190.897 161.925C192.369 162.521 193.804 163.201 195.198 163.962C196.356 164.631 197.472 165.372 198.539 166.18C198.38 165.851 198.238 165.511 198.079 165.187C197.824 164.682 197.558 164.194 197.257 163.718C196.661 162.733 195.944 161.825 195.124 161.018C195.073 160.972 195.124 160.893 195.203 160.944C196.019 161.752 196.769 162.625 197.444 163.553C197.779 164.027 198.086 164.519 198.363 165.028C198.649 165.495 198.869 165.999 199.015 166.526L199.123 166.605C200.813 167.959 202.362 169.48 203.747 171.144C203.718 171.019 203.69 170.889 203.656 170.769C203.474 170.134 203.282 169.51 203.089 168.88C202.671 167.546 202.084 166.27 201.341 165.085C201.302 165.028 201.398 164.972 201.432 165.034C202.192 166.219 202.869 167.454 203.457 168.733C203.726 169.359 203.95 170.004 204.127 170.662C204.267 171.087 204.372 171.524 204.439 171.966C204.864 172.5 205.279 173.039 205.67 173.595C209.823 179.512 211.91 186.643 212.41 193.819C212.556 195.954 212.592 198.096 212.517 200.235C212.502 202.391 212.312 204.543 211.95 206.668C211.922 206.805 211.712 206.765 211.717 206.634C211.763 204.751 211.961 202.879 211.995 200.995C212.029 199.112 211.967 197.223 211.814 195.322C211.507 191.566 210.799 187.854 209.703 184.249C208.573 180.556 206.909 177.049 204.762 173.839C204.359 173.759 203.951 173.646 203.554 173.544L202.124 173.158C201.196 172.915 200.293 172.583 199.43 172.165C199.367 172.137 199.43 172.04 199.486 172.074C200.339 172.539 201.263 172.859 202.221 173.022C202.975 173.169 203.764 173.271 204.524 173.441C203.821 172.42 203.064 171.435 202.255 170.486C200.411 170.654 198.551 170.516 196.752 170.077C195.789 169.845 194.841 169.551 193.915 169.198C192.945 168.824 192.026 168.341 191.079 167.944C191.005 167.916 191.079 167.808 191.119 167.848C192.852 168.793 194.744 169.413 196.701 169.675C198.429 169.951 200.176 170.096 201.926 170.106C201.234 169.317 200.525 168.551 199.77 167.837C197.228 165.42 194.205 163.19 190.858 162.033C190.778 161.999 190.835 161.925 190.897 161.925Z" fill="#354458"/>
<path id="Vector_191" d="M198.772 161.959C199.207 162.51 199.603 163.09 199.957 163.695C200.319 164.332 200.605 165.01 200.808 165.715C200.808 165.715 200.78 165.749 200.774 165.715C200.451 165.074 200.178 164.41 199.849 163.775C199.537 163.148 199.157 162.559 198.715 162.016C198.652 161.982 198.72 161.925 198.772 161.959Z" fill="#354458"/>
<path id="Vector_192" d="M189.774 166.293C190.402 166.64 191.066 166.918 191.754 167.122C192.417 167.351 193.093 167.54 193.779 167.689V167.746C193.067 167.67 192.365 167.516 191.686 167.286C191.015 167.035 190.362 166.742 189.729 166.407C189.644 166.356 189.712 166.259 189.774 166.293Z" fill="#354458"/>
<path id="Vector_193" d="M214.367 174.292C214.423 174.86 215.83 169.567 224.011 164.869C231.443 160.609 240.309 149.518 233.025 142.512C227.142 136.856 211.649 149.184 214.367 174.292Z" fill="#F06D3D"/>
<path id="Vector_194" d="M208.733 204.615C208.852 199.111 209.285 193.618 210.032 188.163C210.672 183.149 211.824 178.215 213.47 173.436C214.077 171.734 214.775 170.032 215.53 168.33C215.487 167.682 215.498 167.031 215.564 166.384C215.603 165.55 215.677 164.716 215.757 163.888C215.836 163.06 215.915 162.226 216.017 161.398C216.12 160.569 216.29 159.741 216.324 158.913C216.324 158.839 216.449 158.856 216.426 158.913C216.264 159.784 216.168 160.666 216.137 161.551C216.074 162.351 216.029 163.156 216 163.962C215.972 164.767 216 165.573 216 166.379C216 166.668 216 166.974 216.029 167.286C216.8 165.658 217.623 164.058 218.519 162.498C217.952 159.094 218.684 155.56 219.376 152.241C219.376 152.179 219.489 152.207 219.478 152.275C219.137 154.008 218.956 155.768 218.939 157.534C218.905 158.924 218.973 160.32 218.979 161.71C219.172 161.375 219.37 161.04 219.546 160.711C220.609 158.983 221.743 157.29 222.95 155.634C222.854 154.829 222.881 154.014 223.029 153.217C223.165 152.323 223.364 151.44 223.625 150.573C223.886 149.706 224.192 148.872 224.533 148.021C224.873 147.17 225.355 146.347 225.701 145.485C225.703 145.477 225.706 145.47 225.71 145.464C225.715 145.457 225.721 145.452 225.727 145.448C225.734 145.445 225.742 145.443 225.75 145.442C225.757 145.442 225.765 145.443 225.772 145.447C225.779 145.45 225.786 145.454 225.791 145.46C225.796 145.466 225.799 145.473 225.801 145.481C225.803 145.488 225.803 145.496 225.802 145.504C225.8 145.511 225.797 145.518 225.792 145.525C225.361 146.342 225.018 147.204 224.771 148.094C224.499 148.93 224.276 149.78 224.102 150.642C223.926 151.498 223.784 152.343 223.665 153.234C223.585 153.801 223.534 154.408 223.438 154.987C225.188 152.635 227.101 150.407 229.162 148.321C229.213 148.27 229.281 148.35 229.236 148.395C226.118 151.901 223.334 155.69 220.919 159.713C220.828 159.866 220.743 160.019 220.658 160.172C221.106 159.889 221.622 159.662 222.048 159.429C222.842 158.987 223.638 158.55 224.436 158.119L226.751 156.848C227.148 156.627 227.539 156.4 227.942 156.195C228.426 155.977 228.891 155.719 229.332 155.424C229.394 155.379 229.457 155.475 229.394 155.509C228.606 155.94 227.908 156.587 227.125 157.069C226.342 157.551 225.616 158.068 224.816 158.521C223.364 159.333 221.781 159.917 220.352 160.757C219.361 162.496 218.444 164.276 217.6 166.095C218.466 165.539 219.351 165.009 220.255 164.506C220.823 164.183 221.39 163.86 222.008 163.553C222.592 163.283 223.144 162.948 223.653 162.555C223.664 162.55 223.677 162.548 223.689 162.55C223.7 162.553 223.711 162.559 223.72 162.567C223.728 162.576 223.733 162.588 223.734 162.6C223.736 162.612 223.733 162.624 223.727 162.634C222.775 163.491 221.719 164.225 220.584 164.818C219.535 165.437 218.468 166.027 217.379 166.566C216.5 168.478 215.711 170.435 215.008 172.42C211.564 182.172 210.299 192.526 209.692 202.805C209.516 205.874 209.42 208.932 209.386 212.007C209.352 215.081 209.505 218.134 209.499 221.197C209.499 221.288 209.352 221.31 209.34 221.197C208.972 218.48 208.904 215.717 208.773 212.977C208.643 210.237 208.671 207.4 208.733 204.615Z" fill="#354458"/>
<path id="Vector_195" d="M223.597 160.462C225.093 159.796 226.546 159.038 227.948 158.192C229.369 157.39 230.747 156.516 232.078 155.571C232.078 155.571 232.123 155.571 232.106 155.611C230.847 156.623 229.52 157.548 228.135 158.38C226.684 159.191 225.183 159.911 223.642 160.535C223.585 160.581 223.534 160.49 223.597 160.462Z" fill="#354458"/>
<path id="Vector_196" d="M221.225 149.444C221.35 148.968 221.498 148.503 221.662 148.038C221.658 148.034 221.655 148.029 221.653 148.025C221.651 148.02 221.65 148.015 221.65 148.009C221.65 148.004 221.651 147.999 221.653 147.994C221.655 147.989 221.658 147.985 221.662 147.981C221.764 147.72 221.872 147.459 221.98 147.198L222.02 147.102L222.082 146.948C222.054 147.039 222.031 147.13 222.003 147.221C221.992 147.271 221.979 147.32 221.963 147.368C221.42 149.188 221.014 151.047 220.749 152.928C220.749 152.984 220.647 152.984 220.652 152.928C220.733 151.751 220.925 150.585 221.225 149.444Z" fill="#354458"/>
<path id="Vector_197" d="M200.088 206.589L200.672 213.51L202.459 234.619H221.605L223.392 213.51L223.977 206.589H200.088Z" fill="#455A64"/>
<path id="Vector_198" d="M200.088 206.589L200.672 213.51H223.392L223.977 206.589H200.088Z" fill="#354458"/>
<path id="Vector_199" d="M198.21 210.452H225.854V203.815H198.21V210.452Z" fill="#455A64"/>
</g>
</g>
</svg>
