<svg width="191" height="205" viewBox="0 0 191 205" fill="none" xmlns="http://www.w3.org/2000/svg">
<g id="rainbow-cake/cuate">
<g id="background-complete">
<g id="Group" opacity="0.5">
<path id="Vector" d="M60.1798 16.6869C60.2146 16.9544 60.1696 17.2261 60.0504 17.4681C59.9313 17.71 59.7433 17.9114 59.51 18.0468C59.2768 18.1822 59.0088 18.2457 58.7396 18.2293C58.4704 18.2128 58.2121 18.1172 57.997 17.9544C57.782 17.7916 57.6199 17.5689 57.5311 17.3143C57.4422 17.0596 57.4306 16.7844 57.4977 16.5232C57.5648 16.262 57.7076 16.0264 57.9082 15.8461C58.1087 15.6658 58.3581 15.5487 58.6249 15.5097C58.8046 15.4828 58.9878 15.4921 59.1639 15.537C59.3399 15.5819 59.5052 15.6615 59.65 15.7712C59.7949 15.8809 59.9164 16.0184 60.0073 16.1756C60.0983 16.3329 60.1569 16.5067 60.1798 16.6869Z" fill="#EBEBEB"/>
<path id="Vector_2" d="M36.493 125.054C36.5293 125.324 36.485 125.597 36.3656 125.841C36.2461 126.085 36.0571 126.288 35.8222 126.425C35.5874 126.561 35.3174 126.625 35.0463 126.608C34.7752 126.591 34.5154 126.494 34.2995 126.329C34.0837 126.164 33.9216 125.939 33.8337 125.682C33.7459 125.425 33.7363 125.147 33.8061 124.885C33.8759 124.623 34.022 124.387 34.2259 124.207C34.4298 124.028 34.6823 123.913 34.9515 123.877C35.312 123.829 35.6768 123.926 35.9658 124.147C36.2548 124.368 36.4444 124.694 36.493 125.054Z" fill="#EBEBEB"/>
<path id="Vector_3" d="M61.1038 64.9578C61.1392 65.2261 61.0943 65.4987 60.9747 65.7415C60.8552 65.9842 60.6664 66.186 60.4321 66.3214C60.1979 66.4568 59.9288 66.5198 59.6588 66.5023C59.3888 66.4848 59.1301 66.3876 58.9153 66.2231C58.7005 66.0586 58.5393 65.8341 58.4521 65.578C58.3649 65.3219 58.3555 65.0457 58.4252 64.7843C58.4949 64.5229 58.6406 64.288 58.8438 64.1094C59.0469 63.9307 59.2985 63.8163 59.5667 63.7806C59.9265 63.7339 60.2901 63.8315 60.5781 64.0521C60.8661 64.2727 61.0551 64.5983 61.1038 64.9578Z" fill="#EBEBEB"/>
<path id="Vector_4" d="M21.5622 36.0868C21.5796 36.221 21.5567 36.3575 21.4965 36.4788C21.4364 36.6001 21.3415 36.7008 21.2241 36.7681C21.1066 36.8355 20.9718 36.8665 20.8367 36.8572C20.7016 36.8479 20.5723 36.7987 20.4652 36.7159C20.3581 36.633 20.278 36.5203 20.235 36.3919C20.192 36.2635 20.1881 36.1252 20.2237 35.9946C20.2594 35.864 20.333 35.7468 20.4352 35.6581C20.5374 35.5693 20.6637 35.5129 20.7981 35.4959C20.9777 35.4733 21.159 35.5227 21.3022 35.6335C21.4454 35.7442 21.5389 35.9072 21.5622 36.0868Z" fill="#EBEBEB"/>
<path id="Vector_5" d="M156.93 64.4958C156.949 64.6299 156.927 64.7664 156.867 64.888C156.808 65.0096 156.713 65.1109 156.596 65.1789C156.479 65.247 156.345 65.2788 156.21 65.2703C156.075 65.2618 155.945 65.2135 155.837 65.1314C155.73 65.0493 155.649 64.9371 155.605 64.809C155.561 64.681 155.557 64.5428 155.591 64.412C155.626 64.2812 155.699 64.1636 155.8 64.0741C155.902 63.9846 156.028 63.9273 156.162 63.9094C156.342 63.8854 156.523 63.9337 156.667 64.0436C156.812 64.1536 156.906 64.3162 156.93 64.4958Z" fill="#EBEBEB"/>
<path id="Vector_6" d="M20.0295 127.187C20.0512 127.321 20.0324 127.459 19.9755 127.582C19.9186 127.706 19.8262 127.809 19.71 127.88C19.5939 127.951 19.4593 127.985 19.3234 127.979C19.1875 127.973 19.0566 127.927 18.9473 127.846C18.8379 127.765 18.7552 127.653 18.7096 127.525C18.664 127.397 18.6577 127.258 18.6913 127.126C18.725 126.995 18.7972 126.876 18.8987 126.785C19.0001 126.695 19.1263 126.637 19.261 126.618C19.438 126.594 19.6175 126.64 19.7611 126.746C19.9047 126.852 20.001 127.01 20.0295 127.187Z" fill="#EBEBEB"/>
<path id="Vector_7" d="M158.179 20.1253C158.2 20.2595 158.182 20.3972 158.125 20.5207C158.068 20.6442 157.975 20.748 157.859 20.8187C157.743 20.8895 157.608 20.924 157.473 20.9179C157.337 20.9117 157.206 20.8653 157.096 20.7844C156.987 20.7035 156.904 20.5919 156.859 20.4637C156.813 20.3356 156.807 20.1968 156.841 20.065C156.874 19.9333 156.946 19.8145 157.048 19.724C157.149 19.6334 157.276 19.5752 157.41 19.5567C157.587 19.5346 157.765 19.5814 157.908 19.6872C158.051 19.7931 158.148 19.95 158.179 20.1253Z" fill="#EBEBEB"/>
<path id="Vector_8" d="M164.243 104.157C164.26 104.291 164.237 104.428 164.177 104.549C164.117 104.67 164.022 104.77 163.905 104.838C163.788 104.905 163.653 104.936 163.518 104.927C163.384 104.918 163.254 104.869 163.147 104.787C163.04 104.705 162.96 104.592 162.916 104.464C162.873 104.336 162.868 104.198 162.903 104.068C162.938 103.937 163.011 103.82 163.113 103.731C163.214 103.641 163.34 103.584 163.474 103.567C163.654 103.544 163.836 103.593 163.98 103.704C164.124 103.814 164.218 103.977 164.243 104.157Z" fill="#EBEBEB"/>
<path id="Vector_9" d="M186.881 63.092C186.898 63.2261 186.875 63.3623 186.815 63.4834C186.755 63.6045 186.661 63.7051 186.543 63.7725C186.426 63.8399 186.292 63.871 186.157 63.862C186.022 63.8529 185.893 63.8041 185.785 63.7218C185.678 63.6394 185.598 63.527 185.555 63.399C185.511 63.271 185.507 63.1329 185.542 63.0024C185.577 62.8718 185.649 62.7545 185.751 62.6653C185.853 62.5761 185.978 62.519 186.112 62.5012C186.202 62.4887 186.293 62.4942 186.38 62.5173C186.467 62.5403 186.549 62.5805 186.621 62.6355C186.692 62.6905 186.752 62.7592 186.797 62.8376C186.841 62.916 186.87 63.0025 186.881 63.092Z" fill="#EBEBEB"/>
<path id="Vector_10" d="M146.167 27.5529C146.185 27.6872 146.163 27.824 146.103 27.9457C146.044 28.0675 145.949 28.1689 145.832 28.2369C145.715 28.3049 145.58 28.3366 145.445 28.3279C145.309 28.3192 145.18 28.2704 145.072 28.1879C144.965 28.1054 144.884 27.9927 144.841 27.8643C144.797 27.7359 144.793 27.5975 144.828 27.4666C144.864 27.3357 144.937 27.2183 145.039 27.1293C145.142 27.0402 145.268 26.9836 145.402 26.9665C145.491 26.9546 145.581 26.9604 145.668 26.9835C145.754 27.0066 145.835 27.0465 145.906 27.101C145.977 27.1555 146.037 27.2234 146.082 27.301C146.126 27.3785 146.155 27.4641 146.167 27.5529Z" fill="#EBEBEB"/>
<path id="Vector_11" d="M1.36265 84.6242C1.37991 84.7583 1.35706 84.8945 1.29698 85.0156C1.23689 85.1367 1.14227 85.2373 1.02506 85.3047C0.907855 85.372 0.773313 85.4032 0.638422 85.3941C0.50353 85.3851 0.374338 85.3363 0.267158 85.2539C0.159977 85.1715 0.0796146 85.0592 0.0362129 84.9312C-0.0071888 84.8031 -0.0116826 84.6651 0.0232998 84.5345C0.0582822 84.4039 0.131172 84.2866 0.232767 84.1974C0.334361 84.1083 0.460104 84.0512 0.594122 84.0334C0.774242 84.0106 0.956047 84.06 1.09998 84.1706C1.24391 84.2813 1.33831 84.4443 1.36265 84.6242Z" fill="#EBEBEB"/>
<path id="Vector_12" d="M103.937 31.7155C103.969 31.811 103.979 31.9123 103.967 32.0121C103.955 32.112 103.921 32.208 103.867 32.2932C103.814 32.3785 103.743 32.4509 103.658 32.5054C103.573 32.5598 103.478 32.5949 103.378 32.6082C103.278 32.6215 103.177 32.6127 103.081 32.5823C102.985 32.5519 102.897 32.5007 102.823 32.4325C102.749 32.3642 102.692 32.2805 102.654 32.1872C102.616 32.094 102.599 31.9936 102.605 31.8932C102.613 31.734 102.677 31.5828 102.785 31.4657C102.894 31.3486 103.039 31.273 103.197 31.252C103.355 31.2309 103.516 31.2657 103.651 31.3503C103.786 31.4349 103.887 31.5641 103.937 31.7155Z" fill="#EBEBEB"/>
<path id="Vector_13" d="M27.5283 91.6566C27.5481 91.7906 27.5276 91.9275 27.4695 92.0498C27.4114 92.1722 27.3183 92.2746 27.2019 92.344C27.0856 92.4133 26.9513 92.4466 26.816 92.4396C26.6807 92.4326 26.5505 92.3855 26.442 92.3045C26.3335 92.2234 26.2515 92.1119 26.2064 91.9842C26.1613 91.8564 26.1551 91.7182 26.1887 91.5869C26.2222 91.4557 26.294 91.3374 26.3949 91.247C26.4957 91.1565 26.6212 91.0981 26.7553 91.0791C26.9343 91.0536 27.1161 91.1001 27.261 91.2083C27.4058 91.3166 27.5019 91.4777 27.5283 91.6566Z" fill="#EBEBEB"/>
<path id="Vector_14" d="M38.4655 71.8524C38.501 72.1217 38.4559 72.3955 38.3357 72.6391C38.2156 72.8828 38.0259 73.0853 37.7906 73.221C37.5553 73.3568 37.285 73.4197 37.014 73.4018C36.7429 73.3838 36.4833 73.2859 36.2679 73.1203C36.0526 72.9547 35.8912 72.729 35.8042 72.4717C35.7172 72.2143 35.7085 71.937 35.7792 71.6747C35.8499 71.4124 35.9969 71.177 36.2014 70.9983C36.406 70.8196 36.659 70.7056 36.9284 70.6707C37.107 70.647 37.2884 70.6588 37.4624 70.7054C37.6364 70.752 37.7995 70.8325 37.9423 70.9423C38.0851 71.0521 38.2049 71.189 38.2946 71.3452C38.3844 71.5014 38.4425 71.6737 38.4655 71.8524Z" fill="#EBEBEB"/>
<path id="Vector_15" d="M93.4399 50.4001C93.4753 50.6683 93.4304 50.941 93.3108 51.1837C93.1913 51.4264 93.0025 51.6282 92.7683 51.7637C92.534 51.8991 92.2649 51.962 91.995 51.9445C91.725 51.927 91.4662 51.8299 91.2514 51.6654C91.0367 51.5009 90.8755 51.2764 90.7882 51.0203C90.701 50.7642 90.6916 50.488 90.7614 50.2266C90.8311 49.9652 90.9767 49.7303 91.1799 49.5516C91.3831 49.373 91.6346 49.2586 91.9028 49.2229C92.0812 49.1985 92.2625 49.2097 92.4365 49.2558C92.6105 49.3019 92.7736 49.382 92.9165 49.4914C93.0594 49.6008 93.1792 49.7375 93.269 49.8934C93.3588 50.0494 93.4169 50.2216 93.4399 50.4001Z" fill="#EBEBEB"/>
<path id="Vector_16" d="M148.219 45.3225C148.254 45.5918 148.209 45.8656 148.089 46.1092C147.969 46.3529 147.779 46.5554 147.544 46.6911C147.309 46.8269 147.039 46.8898 146.767 46.8718C146.496 46.8539 146.237 46.756 146.021 46.5904C145.806 46.4248 145.645 46.1991 145.558 45.9418C145.471 45.6844 145.462 45.4071 145.533 45.1448C145.603 44.8825 145.75 44.6471 145.955 44.4684C146.159 44.2897 146.412 44.1757 146.682 44.1408C146.86 44.1171 147.042 44.1289 147.216 44.1755C147.39 44.2221 147.553 44.3026 147.696 44.4124C147.839 44.5222 147.958 44.6591 148.048 44.8153C148.138 44.9715 148.196 45.1438 148.219 45.3225Z" fill="#EBEBEB"/>
<path id="Vector_17" d="M113.364 42.577L111.449 41.8574C111.449 41.8574 112.045 43.2212 110.707 44.8649C109.37 46.5085 107.433 46.0199 106.834 48.0012L108.873 48.9163C109.003 48.3708 109.246 47.8587 109.586 47.4133C109.927 46.9679 110.357 46.5991 110.85 46.3308C112.062 45.74 113.377 44.9448 113.364 42.577Z" fill="#EBEBEB"/>
<path id="Vector_18" d="M27.7593 132.153L25.8446 131.434C25.8446 131.434 26.4399 132.797 25.1028 134.441C23.7656 136.085 21.8287 135.592 21.229 137.577L23.2681 138.493C23.3979 137.947 23.6409 137.435 23.9815 136.99C24.3221 136.544 24.7525 136.175 25.2449 135.907C26.4577 135.316 27.7726 134.517 27.7593 132.153Z" fill="#EBEBEB"/>
<path id="Vector_19" d="M69.0202 53.4121L67.1055 52.6924C67.1055 52.6924 67.7008 54.0562 66.3636 55.7043C65.0265 57.3524 63.0896 56.8549 62.4854 58.8406L64.5289 59.7291C64.6582 59.184 64.9006 58.6722 65.2404 58.2268C65.5802 57.7814 66.0098 57.4124 66.5013 57.1437C67.7185 56.5795 69.0335 55.7798 69.0202 53.4121Z" fill="#EBEBEB"/>
<path id="Vector_20" d="M165.442 69.0848L163.527 68.3651C163.527 68.3651 164.123 69.7289 162.786 71.3726C161.448 73.0163 159.512 72.5232 158.907 74.5089L160.951 75.4241C161.08 74.879 161.323 74.3671 161.662 73.9217C162.002 73.4763 162.432 73.1073 162.923 72.8386C164.14 72.2478 165.455 71.4481 165.442 69.0848Z" fill="#EBEBEB"/>
<path id="Vector_21" d="M46.8393 53.8518L47.1147 51.8261C47.1147 51.8261 45.9153 52.7145 44.0051 51.7683C42.0948 50.8221 42.157 48.8319 40.0869 48.6853L39.6426 50.8754C40.2032 50.8812 40.7563 51.0048 41.266 51.2382C41.7757 51.4717 42.2307 51.8097 42.6013 52.2303C43.4631 53.2832 44.5337 54.3893 46.8393 53.8518Z" fill="#EBEBEB"/>
<path id="Vector_22" d="M131.658 50.2358L131.933 48.2101C131.933 48.2101 130.738 49.0986 128.823 48.1523C126.909 47.2061 126.975 45.2159 124.905 45.0427L124.461 47.2372C125.02 47.2402 125.572 47.3604 126.082 47.5899C126.591 47.8195 127.047 48.1533 127.42 48.5699C128.281 49.6672 129.352 50.7733 131.658 50.2358Z" fill="#EBEBEB"/>
<path id="Vector_23" d="M39.9669 102.603L40.2468 100.577C40.2468 100.577 39.0474 101.465 37.1371 100.519C35.2269 99.5729 35.2891 97.5827 33.219 97.4316L32.7747 99.6262C33.3329 99.6298 33.8841 99.7502 34.3929 99.9798C34.9017 100.209 35.3568 100.543 35.7289 100.959C36.5818 102.034 37.648 103.14 39.9669 102.603Z" fill="#EBEBEB"/>
<path id="Vector_24" d="M170.742 43.6966L171.017 41.6709C171.017 41.6709 169.822 42.5594 167.908 41.6131C165.993 40.6669 166.06 38.6767 163.989 38.5035L163.545 40.698C164.104 40.701 164.656 40.8212 165.166 41.0507C165.675 41.2803 166.131 41.6141 166.504 42.0307C167.366 43.128 168.436 44.2341 170.742 43.6966Z" fill="#EBEBEB"/>
<path id="Vector_25" d="M152.532 120.026L152.919 122.034C152.919 122.034 153.767 120.812 155.873 121.092C157.979 121.372 158.565 123.282 160.569 122.758L160.28 120.536C159.748 120.711 159.185 120.772 158.628 120.716C158.071 120.659 157.532 120.486 157.046 120.208C155.913 119.479 154.54 118.777 152.532 120.026Z" fill="#EBEBEB"/>
<path id="Vector_26" d="M160.591 144.068L163.856 143.139C163.856 143.139 165.411 147.222 162.177 148.372C162.177 148.386 163.279 146.2 160.591 144.068Z" fill="#EBEBEB"/>
<path id="Vector_27" d="M161.124 152.686L158.321 150.856C158.321 150.856 158.734 148.19 162.177 148.372C162.177 148.386 159.56 150.283 161.124 152.686Z" fill="#EBEBEB"/>
<path id="Vector_28" d="M16.7244 102.296L14.5699 101.123C14.5699 101.123 12.824 103.753 14.9253 105.081C14.9253 105.081 14.4899 103.376 16.7244 102.296Z" fill="#EBEBEB"/>
<path id="Vector_29" d="M14.9785 108.284L17.2486 107.445C17.2486 107.445 17.3774 105.499 14.9252 105.081C14.9252 105.081 16.4623 106.841 14.9785 108.284Z" fill="#EBEBEB"/>
<path id="Vector_30" d="M171.364 124.219L169.085 125.108C169.085 125.108 169.973 128.133 172.35 127.369C172.35 127.387 170.764 126.618 171.364 124.219Z" fill="#EBEBEB"/>
<path id="Vector_31" d="M174.851 129.395L175.651 127.111C175.651 127.111 174.242 125.778 172.35 127.387C172.35 127.387 174.691 127.329 174.851 129.395Z" fill="#EBEBEB"/>
<path id="Vector_32" d="M157.552 131.611C157.517 131.343 157.562 131.07 157.681 130.828C157.801 130.585 157.99 130.383 158.224 130.248C158.458 130.112 158.727 130.049 158.997 130.067C159.267 130.084 159.526 130.182 159.741 130.346C159.956 130.511 160.117 130.735 160.204 130.991C160.291 131.247 160.301 131.523 160.231 131.785C160.161 132.046 160.016 132.281 159.812 132.46C159.609 132.638 159.358 132.753 159.089 132.789C158.911 132.813 158.73 132.802 158.556 132.756C158.382 132.71 158.219 132.629 158.076 132.52C157.933 132.411 157.813 132.274 157.723 132.118C157.633 131.962 157.575 131.79 157.552 131.611Z" fill="#EBEBEB"/>
<path id="Vector_33" d="M188.267 92.6117C188.231 92.3423 188.275 92.0682 188.394 91.8241C188.514 91.58 188.703 91.3768 188.938 91.2404C189.173 91.104 189.444 91.0404 189.715 91.0577C189.986 91.0751 190.246 91.1726 190.462 91.3378C190.678 91.5031 190.84 91.7287 190.927 91.9861C191.015 92.2434 191.024 92.521 190.953 92.7835C190.883 93.046 190.736 93.2817 190.531 93.4607C190.327 93.6397 190.074 93.7539 189.804 93.7889C189.444 93.8356 189.081 93.738 188.793 93.5174C188.505 93.2968 188.316 92.9712 188.267 92.6117Z" fill="#EBEBEB"/>
<path id="Vector_34" d="M112.444 60.2044C112.408 59.9351 112.452 59.661 112.572 59.4169C112.691 59.1727 112.881 58.9696 113.116 58.8332C113.351 58.6967 113.621 58.6332 113.892 58.6505C114.164 58.6679 114.424 58.7653 114.639 58.9306C114.855 59.0959 115.017 59.3215 115.104 59.5789C115.192 59.8362 115.201 60.1137 115.13 60.3763C115.06 60.6388 114.913 60.8745 114.709 61.0534C114.504 61.2324 114.251 61.3467 113.981 61.3817C113.803 61.4054 113.622 61.3938 113.448 61.3474C113.275 61.3011 113.112 61.221 112.969 61.1116C112.826 61.0023 112.706 60.8659 112.616 60.7102C112.526 60.5546 112.468 60.3827 112.444 60.2044Z" fill="#EBEBEB"/>
<path id="Vector_35" d="M74.0578 46.3264L70.7926 47.2505C70.7926 47.2505 69.2378 43.1679 72.4718 42.0173C72.4718 42.0173 71.3701 44.1897 74.0578 46.3264Z" fill="#EBEBEB"/>
<path id="Vector_36" d="M73.5203 37.7083L76.3279 39.5341C76.3279 39.5341 75.9148 42.1995 72.4719 42.0174C72.4719 42.0174 75.084 40.1071 73.5203 37.7083Z" fill="#EBEBEB"/>
<path id="Vector_37" d="M160.933 101.372L157.69 102.296C157.69 102.296 156.135 98.2179 159.369 97.0629C159.347 97.0629 158.245 99.2397 160.933 101.372Z" fill="#EBEBEB"/>
<path id="Vector_38" d="M160.4 92.7538L163.203 94.5796C163.203 94.5796 162.79 97.245 159.347 97.0629C159.347 97.0629 161.964 95.1527 160.4 92.7538Z" fill="#EBEBEB"/>
<path id="Vector_39" d="M26.6398 75.8772L23.3702 76.8012C23.3702 76.8012 21.8154 72.7231 25.0539 71.5681C25.0628 71.5681 23.9744 73.7537 26.6398 75.8772Z" fill="#EBEBEB"/>
<path id="Vector_40" d="M26.1112 67.259L28.9144 69.0849C28.9144 69.0849 28.5012 71.7503 25.0628 71.5681C25.0628 71.5681 27.6749 69.6579 26.1112 67.259Z" fill="#EBEBEB"/>
<path id="Vector_41" d="M175.784 110.697L177.938 111.865C177.938 111.865 179.68 109.235 177.583 107.911C177.583 107.911 178.014 109.617 175.784 110.697Z" fill="#EBEBEB"/>
<path id="Vector_42" d="M177.525 104.704L175.26 105.548C175.26 105.548 175.126 107.494 177.583 107.911C177.583 107.911 176.042 106.148 177.525 104.704Z" fill="#EBEBEB"/>
<path id="Vector_43" d="M135.771 63.9539L137.926 65.1267C137.926 65.1267 139.672 62.4968 137.571 61.1685C137.571 61.1685 138.006 62.8788 135.771 63.9539Z" fill="#EBEBEB"/>
<path id="Vector_44" d="M137.517 57.9655L135.247 58.8051C135.247 58.8051 135.118 60.7509 137.571 61.1685C137.571 61.1685 136.033 59.4093 137.517 57.9655Z" fill="#EBEBEB"/>
<path id="Vector_45" d="M31.6909 145.485L32.0507 147.91C32.0507 147.91 35.2003 147.728 35.0004 145.245C35.0004 145.276 33.8943 146.609 31.6909 145.485Z" fill="#EBEBEB"/>
<path id="Vector_46" d="M37.528 143.282L35.4934 141.975C35.4934 141.975 33.8586 143.037 35.0003 145.254C35.0003 145.276 35.4845 142.962 37.528 143.282Z" fill="#EBEBEB"/>
</g>
<path id="Vector_47" d="M84.8679 -6.60527e-05L84.4266 0.0511475L87.6439 27.7721L88.0851 27.7209L84.8679 -6.60527e-05Z" fill="#EBEBEB"/>
<path id="Vector_48" d="M95.4967 95.4992L88.6288 36.2823L89.0686 36.2334L95.4967 91.6432L100.086 52.0794L100.525 52.1282L95.4967 95.4992Z" fill="#EBEBEB"/>
<path id="Vector_49" d="M106.116 0.00342457L101.01 44.0613L101.451 44.1125L106.557 0.0545609L106.116 0.00342457Z" fill="#EBEBEB"/>
<path id="Vector_50" d="M39.5068 17.8473L39.1503 18.1123L52.1003 35.5369L52.4569 35.2719L39.5068 17.8473Z" fill="#EBEBEB"/>
<path id="Vector_51" d="M96.4607 95.2416L55.1155 39.6008L55.4709 39.3342L94.5327 91.9009L81.25 61.1819L81.6587 61.0086L96.4607 95.2416Z" fill="#EBEBEB"/>
<path id="Vector_52" d="M58.3287 7.05534L57.921 7.23163L79.0735 56.1591L79.4813 55.9828L58.3287 7.05534Z" fill="#EBEBEB"/>
<path id="Vector_53" d="M9.15083 55.9866L8.97455 56.3943L30.9693 65.9032L31.1456 65.4954L9.15083 55.9866Z" fill="#EBEBEB"/>
<path id="Vector_54" d="M97.167 94.5352L35.9199 68.0541L36.0976 67.6454L93.8264 92.6072L56.1994 64.6468L56.4659 64.2914L97.167 94.5352Z" fill="#EBEBEB"/>
<path id="Vector_55" d="M20.0469 37.2308L19.7819 37.5873L51.226 60.9568L51.491 60.6003L20.0469 37.2308Z" fill="#EBEBEB"/>
<path id="Vector_56" d="M40.7531 99.6942L1.93402 104.199L1.98523 104.641L40.8043 100.135L40.7531 99.6942Z" fill="#EBEBEB"/>
<path id="Vector_57" d="M47.248 99.3907L47.1947 98.9509L93.5687 93.5712L63.245 90.0528L63.2939 89.613L97.4247 93.5712L47.248 99.3907Z" fill="#EBEBEB"/>
<path id="Vector_58" d="M1.98755 82.5057L1.93634 82.947L55.269 89.1366L55.3202 88.6953L1.98755 82.5057Z" fill="#EBEBEB"/>
<path id="Vector_59" d="M36.5659 136.792L20.2108 149.058L20.4774 149.414L36.8324 137.147L36.5659 136.792Z" fill="#EBEBEB"/>
<path id="Vector_60" d="M42.8456 132.975L42.5791 132.615L93.8264 94.5352L64.8043 107.085L64.6266 106.676L97.1671 92.6072L42.8456 132.975Z" fill="#EBEBEB"/>
<path id="Vector_61" d="M57.5078 109.767L8.9726 130.73L9.14874 131.138L57.684 110.175L57.5078 109.767Z" fill="#EBEBEB"/>
<path id="Vector_62" d="M66.7925 159.387L57.9237 179.921L58.3315 180.097L67.2004 159.563L66.7925 159.387Z" fill="#EBEBEB"/>
<path id="Vector_63" d="M70.6105 151.682L70.2018 151.504L94.5328 95.2415L67.9007 131.078L67.5453 130.812L96.4608 91.9009L70.6105 151.682Z" fill="#EBEBEB"/>
<path id="Vector_64" d="M62.6351 137.403L39.1631 169.031L39.5198 169.296L62.9918 137.668L62.6351 137.403Z" fill="#EBEBEB"/>
<path id="Vector_65" d="M100.07 130.964L99.6284 131.016L106.141 187.128L106.582 187.077L100.07 130.964Z" fill="#EBEBEB"/>
<path id="Vector_66" d="M90.1881 141.256L89.7483 141.207L95.4967 91.6432L99.3527 124.881L98.9129 124.934L95.4967 95.4992L90.1881 141.256Z" fill="#EBEBEB"/>
<path id="Vector_67" d="M88.8905 148.634L84.4272 187.091L84.8685 187.143L89.3318 148.685L88.8905 148.634Z" fill="#EBEBEB"/>
<path id="Vector_68" d="M126.497 134.903L126.14 135.168L151.487 169.272L151.843 169.007L126.497 134.903Z" fill="#EBEBEB"/>
<path id="Vector_69" d="M122.933 157.577L94.5327 91.9009L122.346 129.337L121.991 129.599L96.4607 95.2415L123.337 157.399L122.933 157.577Z" fill="#EBEBEB"/>
<path id="Vector_70" d="M126.579 164.919L126.171 165.095L132.659 180.101L133.067 179.925L126.579 164.919Z" fill="#EBEBEB"/>
<path id="Vector_71" d="M146.617 115.425L146.441 115.832L181.831 131.132L182.007 130.724L146.617 115.425Z" fill="#EBEBEB"/>
<path id="Vector_72" d="M139.476 126.529L93.8264 92.6072L139.045 112.163L138.872 112.567L97.1671 94.5352L139.743 126.174L139.476 126.529Z" fill="#EBEBEB"/>
<path id="Vector_73" d="M145.447 130.426L145.182 130.782L170.95 149.933L171.215 149.576L145.447 130.426Z" fill="#EBEBEB"/>
<path id="Vector_74" d="M189.015 82.4939L172.82 84.3734L172.871 84.8147L189.066 82.9352L189.015 82.4939Z" fill="#EBEBEB"/>
<path id="Vector_75" d="M132.053 98.0358L93.5688 93.5712L165.562 85.2195L165.611 85.6638L97.4248 93.5712L132.102 97.5916L132.053 98.0358Z" fill="#EBEBEB"/>
<path id="Vector_76" d="M138.821 98.3759L138.77 98.8172L189.027 104.65L189.078 104.209L138.821 98.3759Z" fill="#EBEBEB"/>
<path id="Vector_77" d="M170.947 37.2313L163.009 43.1218L163.274 43.4785L171.211 37.588L170.947 37.2313Z" fill="#EBEBEB"/>
<path id="Vector_78" d="M93.8264 94.5353L158.219 46.6864L158.485 47.0418L97.1671 92.6073L151.648 69.0494L151.826 69.4536L93.8264 94.5353Z" fill="#EBEBEB"/>
<path id="Vector_79" d="M181.841 56.0023L157.967 66.3138L158.143 66.7216L182.017 56.4102L181.841 56.0023Z" fill="#EBEBEB"/>
<path id="Vector_80" d="M132.666 7.04689L124.66 25.5825L125.068 25.7587L133.074 7.22303L132.666 7.04689Z" fill="#EBEBEB"/>
<path id="Vector_81" d="M94.5327 95.2416L121.436 33.0216L121.844 33.1993L96.4607 91.9009L122.298 57.1304L122.657 57.397L94.5327 95.2416Z" fill="#EBEBEB"/>
<path id="Vector_82" d="M151.478 17.8465L126.068 52.036L126.424 52.301L151.834 18.1114L151.478 17.8465Z" fill="#EBEBEB"/>
<path id="Vector_83" d="M163.741 157.955C163.741 157.955 182.212 55.7799 181.466 55.2735C180.719 54.7671 172.772 53.9408 172.581 54.696C172.39 55.4512 159.254 157.16 159.254 157.16C159.254 157.16 151.324 157.431 150.751 158.07C150.178 158.71 149.694 193.254 149.694 193.6C149.658 194.462 150.644 194.556 150.862 193.747C151.182 192.583 153.95 164.938 154.043 164.707C154.136 164.476 158.103 164.467 158.192 164.596C158.281 164.725 155.589 195.351 155.727 196.03C155.864 196.71 156.584 197.07 156.997 195.982C157.41 194.893 162.501 165.413 162.603 165.231C162.706 165.049 165.984 165.773 166.157 166.186C166.331 166.6 162.372 193.285 162.315 194.44C162.27 195.377 163.168 195.653 163.603 194.649C164.038 193.645 171.777 161.891 171.333 161.042C170.888 160.194 163.741 157.955 163.741 157.955Z" fill="#EBEBEB"/>
</g>
<g id="Cake">
<path id="Vector_84" d="M175.522 193.956L165.033 201.526H25.9601L15.4717 193.956H175.522Z" fill="#455A64"/>
<path id="Vector_85" d="M164.66 201.526H25.9601V204.351H164.66V201.526Z" fill="#37474F"/>
<path id="Vector_86" d="M156.553 69.6623L106.367 57.6456L38.1944 69.6623V193.956H156.553V69.6623Z" fill="#F06D3D"/>
<path id="Vector_87" opacity="0.8" d="M156.553 69.6623L106.367 57.6456L38.1944 69.6623V193.956H156.553V69.6623Z" fill="white"/>
<path id="Vector_88" d="M43.3654 69.6623C72.2408 68.7738 101.507 68.7472 130.387 69.6623C101.512 70.5819 72.2453 70.573 43.3654 69.6623Z" fill="#F06D3D"/>
<path id="Vector_89" d="M134.452 69.6623C139.306 68.7427 144.289 68.7427 149.143 69.6623C144.289 70.5818 139.306 70.5818 134.452 69.6623Z" fill="#F06D3D"/>
<path id="Vector_90" d="M150.249 178.056H38.1944V193.951H150.249V178.056Z" fill="#F06D3D"/>
<path id="Vector_91" opacity="0.5" d="M150.249 178.056H38.1944V193.951H150.249V178.056Z" fill="#354458"/>
<path id="Vector_92" d="M150.249 157.47H38.1944V173.365H150.249V157.47Z" fill="#F06D3D"/>
<path id="Vector_93" opacity="0.4" d="M150.249 157.47H38.1944V173.365H150.249V157.47Z" fill="#354458"/>
<path id="Vector_94" d="M150.249 136.88H38.1944V152.775H150.249V136.88Z" fill="#F06D3D"/>
<path id="Vector_95" opacity="0.3" d="M150.249 136.88H38.1944V152.775H150.249V136.88Z" fill="#354458"/>
<path id="Vector_96" d="M150.249 116.29H38.1944V132.184H150.249V116.29Z" fill="#F06D3D"/>
<path id="Vector_97" opacity="0.2" d="M150.249 116.29H38.1944V132.184H150.249V116.29Z" fill="#354458"/>
<path id="Vector_98" d="M150.249 95.7036H38.1944V111.598H150.249V95.7036Z" fill="#F06D3D"/>
<path id="Vector_99" opacity="0.1" d="M150.249 95.7036H38.1944V111.598H150.249V95.7036Z" fill="#354458"/>
<path id="Vector_100" d="M150.249 75.113H38.1944V91.0079H150.249V75.113Z" fill="#F06D3D"/>
<g id="Group_2" opacity="0.1">
<path id="Vector_101" d="M68.7536 187.821C71.0858 187.821 71.0903 184.191 68.7536 184.191C66.4169 184.191 66.4169 187.821 68.7536 187.821Z" fill="#354458"/>
<path id="Vector_102" d="M139.285 184.676C139.366 184.864 139.46 185.046 139.565 185.222C139.638 185.343 139.742 185.444 139.865 185.514C139.988 185.583 140.128 185.62 140.269 185.62C140.411 185.62 140.55 185.583 140.674 185.514C140.797 185.444 140.9 185.343 140.973 185.222C141.077 185.045 141.171 184.863 141.253 184.676C142.284 182.525 138.255 182.525 139.285 184.676Z" fill="#354458"/>
<path id="Vector_103" d="M58.625 184.191C60.4019 184.191 60.4019 181.419 58.625 181.419C56.848 181.419 56.848 184.191 58.625 184.191Z" fill="#354458"/>
<path id="Vector_104" d="M141.458 84.4465C143.235 84.4465 143.235 81.6745 141.458 81.6745C139.681 81.6745 139.672 84.4465 141.458 84.4465Z" fill="#354458"/>
<path id="Vector_105" d="M71.8411 146.213C73.618 146.213 73.618 143.441 71.8411 143.441C70.0641 143.441 70.0552 146.213 71.8411 146.213Z" fill="#354458"/>
<path id="Vector_106" d="M117.3 164.569C119.077 164.569 119.077 161.797 117.3 161.797C115.523 161.797 115.514 164.569 117.3 164.569Z" fill="#354458"/>
<path id="Vector_107" d="M65.6617 102.86C67.4387 102.86 67.4387 100.088 65.6617 100.088C63.8848 100.088 63.8759 102.86 65.6617 102.86Z" fill="#354458"/>
<path id="Vector_108" d="M48.1987 164.569C49.9756 164.569 49.9756 161.797 48.1987 161.797C46.4217 161.797 46.4084 164.569 48.1987 164.569Z" fill="#354458"/>
<path id="Vector_109" d="M142.795 123.864C144.572 123.864 144.572 121.092 142.795 121.092C141.018 121.092 141.009 123.864 142.795 123.864Z" fill="#354458"/>
<path id="Vector_110" d="M121.596 102.86C123.373 102.86 123.373 100.088 121.596 100.088C119.819 100.088 119.81 102.86 121.596 102.86Z" fill="#354458"/>
<path id="Vector_111" d="M131.369 128.306C131.73 128.663 132.217 128.862 132.724 128.862C133.231 128.862 133.718 128.663 134.079 128.306C134.825 127.48 134.941 126.769 134.741 125.685C134.372 123.695 131.08 123.69 130.712 125.685C130.516 126.76 130.627 127.475 131.369 128.306Z" fill="#354458"/>
<path id="Vector_112" d="M92.2227 86.8144C92.5836 87.1709 93.0704 87.3708 93.5776 87.3708C94.0849 87.3708 94.5717 87.1709 94.9326 86.8144C95.6789 85.9881 95.79 85.2773 95.5901 84.1978C95.2258 82.2032 91.9295 82.2032 91.5653 84.1978C91.3653 85.2684 91.4986 85.9881 92.2227 86.8144Z" fill="#354458"/>
<path id="Vector_113" d="M53.0631 108.36C53.4239 108.716 53.9108 108.916 54.418 108.916C54.9253 108.916 55.4121 108.716 55.7729 108.36C56.5148 107.534 56.6303 106.823 56.4304 105.743C56.0661 103.749 52.7699 103.749 52.4012 105.743C52.2057 106.814 52.3168 107.516 53.0631 108.36Z" fill="#354458"/>
</g>
<path id="Vector_114" d="M128.992 193.956H112.498C112.548 191.802 113.439 189.752 114.98 188.247C116.521 186.741 118.59 185.898 120.745 185.898C122.9 185.898 124.969 186.741 126.51 188.247C128.051 189.752 128.942 191.802 128.992 193.956Z" fill="#F06D3D"/>
<path id="Vector_115" opacity="0.8" d="M128.992 193.956H112.498C112.548 191.802 113.439 189.752 114.98 188.247C116.521 186.741 118.59 185.898 120.745 185.898C122.9 185.898 124.969 186.741 126.51 188.247C128.051 189.752 128.942 191.802 128.992 193.956Z" fill="white"/>
<path id="Vector_116" d="M101.587 193.956H85.0927C85.1427 191.802 86.0335 189.752 87.5747 188.247C89.1159 186.741 91.1852 185.898 93.3399 185.898C95.4947 185.898 97.5639 186.741 99.1051 188.247C100.646 189.752 101.537 191.802 101.587 193.956Z" fill="#F06D3D"/>
<path id="Vector_117" opacity="0.8" d="M101.587 193.956H85.0927C85.1427 191.802 86.0335 189.752 87.5747 188.247C89.1159 186.741 91.1852 185.898 93.3399 185.898C95.4947 185.898 97.5639 186.741 99.1051 188.247C100.646 189.752 101.537 191.802 101.587 193.956Z" fill="white"/>
<path id="Vector_118" d="M59.6822 193.956H47.4035C47.4035 192.327 48.0503 190.766 49.2017 189.614C50.353 188.463 51.9146 187.816 53.5429 187.816C55.1711 187.816 56.7327 188.463 57.8841 189.614C59.0354 190.766 59.6822 192.327 59.6822 193.956Z" fill="#F06D3D"/>
<path id="Vector_119" opacity="0.8" d="M59.6822 193.956H47.4035C47.4035 192.327 48.0503 190.766 49.2017 189.614C50.353 188.463 51.9146 187.816 53.5429 187.816C55.1711 187.816 56.7327 188.463 57.8841 189.614C59.0354 190.766 59.6822 192.327 59.6822 193.956Z" fill="white"/>
<path id="Vector_120" d="M163.572 193.956H151.297C151.341 192.357 152.006 190.838 153.152 189.722C154.298 188.606 155.835 187.982 157.435 187.982C159.034 187.982 160.571 188.606 161.717 189.722C162.863 190.838 163.529 192.357 163.572 193.956Z" fill="#F06D3D"/>
<path id="Vector_121" opacity="0.8" d="M163.572 193.956H151.297C151.341 192.357 152.006 190.838 153.152 189.722C154.298 188.606 155.835 187.982 157.435 187.982C159.034 187.982 160.571 188.606 161.717 189.722C162.863 190.838 163.529 192.357 163.572 193.956Z" fill="white"/>
<path id="Vector_122" d="M88.4689 193.956H76.1946C76.2376 192.357 76.9031 190.838 78.0493 189.722C79.1956 188.606 80.7321 187.982 82.3317 187.982C83.9314 187.982 85.4679 188.606 86.6141 189.722C87.7604 190.838 88.4258 192.357 88.4689 193.956Z" fill="#F06D3D"/>
<path id="Vector_123" opacity="0.8" d="M88.4689 193.956H76.1946C76.2376 192.357 76.9031 190.838 78.0493 189.722C79.1956 188.606 80.7321 187.982 82.3317 187.982C83.9314 187.982 85.4679 188.606 86.6141 189.722C87.7604 190.838 88.4258 192.357 88.4689 193.956Z" fill="white"/>
<path id="Vector_124" d="M152.928 193.956H125.385C125.385 190.303 126.836 186.801 129.419 184.218C132.001 181.635 135.504 180.184 139.156 180.184C142.809 180.184 146.312 181.635 148.894 184.218C151.477 186.801 152.928 190.303 152.928 193.956Z" fill="#F06D3D"/>
<path id="Vector_125" opacity="0.8" d="M152.928 193.956H125.385C125.385 190.303 126.836 186.801 129.419 184.218C132.001 181.635 135.504 180.184 139.156 180.184C142.809 180.184 146.312 181.635 148.894 184.218C151.477 186.801 152.928 190.303 152.928 193.956Z" fill="white"/>
<path id="Vector_126" d="M49.7402 193.956H27.4216C27.4799 191.036 28.6805 188.256 30.7657 186.212C32.8509 184.168 35.6543 183.023 38.5742 183.023C41.4941 183.023 44.2976 184.168 46.3828 186.212C48.468 188.256 49.6686 191.036 49.7268 193.956H49.7402Z" fill="#F06D3D"/>
<path id="Vector_127" opacity="0.8" d="M49.7402 193.956H27.4216C27.4799 191.036 28.6805 188.256 30.7657 186.212C32.8509 184.168 35.6543 183.023 38.5742 183.023C41.4941 183.023 44.2976 184.168 46.3828 186.212C48.468 188.256 49.6686 191.036 49.7268 193.956H49.7402Z" fill="white"/>
<path id="Vector_128" d="M37.3015 187.159C37.3024 187.638 37.1611 188.106 36.8956 188.505C36.6301 188.904 36.2523 189.215 35.81 189.399C35.3677 189.583 34.8807 189.631 34.4108 189.538C33.9408 189.445 33.509 189.215 33.17 188.877C32.8309 188.538 32.5999 188.107 32.5061 187.637C32.4124 187.167 32.46 186.68 32.6432 186.238C32.8263 185.795 33.1366 185.417 33.5348 185.151C33.9331 184.884 34.4014 184.742 34.8804 184.742C35.5217 184.742 36.1369 184.997 36.5908 185.45C37.0447 185.903 37.3003 186.517 37.3015 187.159Z" fill="white"/>
<path id="Vector_129" d="M80.8413 191.583C81.6632 191.583 82.3295 190.917 82.3295 190.095C82.3295 189.273 81.6632 188.607 80.8413 188.607C80.0194 188.607 79.3531 189.273 79.3531 190.095C79.3531 190.917 80.0194 191.583 80.8413 191.583Z" fill="white"/>
<path id="Vector_130" d="M51.766 191.583C52.5879 191.583 53.2542 190.917 53.2542 190.095C53.2542 189.273 52.5879 188.607 51.766 188.607C50.9441 188.607 50.2778 189.273 50.2778 190.095C50.2778 190.917 50.9441 191.583 51.766 191.583Z" fill="white"/>
<path id="Vector_131" d="M156.553 191.583C157.375 191.583 158.041 190.917 158.041 190.095C158.041 189.273 157.375 188.607 156.553 188.607C155.731 188.607 155.065 189.273 155.065 190.095C155.065 190.917 155.731 191.583 156.553 191.583Z" fill="white"/>
<path id="Vector_132" d="M120.125 189.309C120.947 189.309 121.613 188.643 121.613 187.821C121.613 186.999 120.947 186.333 120.125 186.333C119.303 186.333 118.637 186.999 118.637 187.821C118.637 188.643 119.303 189.309 120.125 189.309Z" fill="white"/>
<path id="Vector_133" d="M39.7626 184.644C39.7618 184.853 39.699 185.057 39.5823 185.231C39.4656 185.404 39.3002 185.539 39.1069 185.618C38.9136 185.697 38.7012 185.718 38.4964 185.676C38.2916 185.635 38.1036 185.534 37.9562 185.386C37.8088 185.238 37.7085 185.05 37.6681 184.845C37.6276 184.64 37.6488 184.427 37.729 184.234C37.8091 184.041 37.9446 183.877 38.1184 183.761C38.2922 183.645 38.4964 183.583 38.7054 183.583C38.8446 183.583 38.9824 183.61 39.111 183.664C39.2396 183.717 39.3563 183.795 39.4545 183.894C39.5528 183.993 39.6306 184.11 39.6834 184.238C39.7363 184.367 39.7632 184.505 39.7626 184.644Z" fill="white"/>
<path id="Vector_134" d="M136.709 184.92C136.709 185.399 136.567 185.867 136.301 186.265C136.035 186.663 135.657 186.973 135.214 187.157C134.772 187.34 134.285 187.388 133.815 187.294C133.346 187.201 132.914 186.97 132.576 186.632C132.237 186.293 132.006 185.862 131.913 185.392C131.82 184.923 131.868 184.436 132.051 183.993C132.234 183.551 132.544 183.173 132.943 182.907C133.341 182.641 133.809 182.499 134.288 182.499C134.606 182.498 134.921 182.56 135.215 182.682C135.509 182.803 135.776 182.982 136.001 183.207C136.226 183.432 136.404 183.699 136.526 183.993C136.647 184.287 136.709 184.602 136.709 184.92Z" fill="white"/>
<path id="Vector_135" d="M94.8081 189.167C94.8081 189.646 94.6661 190.114 94.4001 190.512C94.1341 190.91 93.756 191.22 93.3136 191.404C92.8712 191.587 92.3844 191.635 91.9147 191.541C91.4451 191.448 91.0137 191.217 90.6751 190.879C90.3365 190.54 90.1059 190.109 90.0125 189.639C89.919 189.17 89.967 188.683 90.1502 188.24C90.3335 187.798 90.6438 187.42 91.0419 187.154C91.4401 186.888 91.9082 186.746 92.387 186.746C93.0292 186.746 93.645 187.001 94.099 187.455C94.5531 187.909 94.8081 188.525 94.8081 189.167Z" fill="white"/>
<path id="Vector_136" d="M139.156 182.401C139.156 182.61 139.094 182.815 138.978 182.988C138.862 183.162 138.697 183.298 138.504 183.378C138.311 183.458 138.098 183.479 137.893 183.438C137.688 183.397 137.499 183.297 137.352 183.149C137.204 183.001 137.103 182.812 137.062 182.607C137.021 182.402 137.042 182.19 137.122 181.996C137.202 181.803 137.338 181.638 137.512 181.522C137.686 181.406 137.89 181.344 138.099 181.344C138.38 181.344 138.648 181.455 138.847 181.653C139.045 181.852 139.156 182.121 139.156 182.401Z" fill="white"/>
<path id="Vector_137" d="M152.248 100.555L145.873 101.732L144.452 108.449L143.03 101.732L136.655 100.55L142.999 98.9998L144.452 92.6561L145.904 98.9998L152.248 100.555Z" fill="white"/>
<path id="Vector_138" d="M106.691 184.191L103.133 184.853L102.334 188.607L101.538 184.853L97.98 184.191L101.525 183.325L102.334 179.78L103.146 183.325L106.691 184.191Z" fill="white"/>
<path id="Vector_139" d="M68.5803 106.685L65.0219 107.343L64.2268 111.096L63.4316 107.343L59.8688 106.681L63.4138 105.814L64.2268 102.269L65.0353 105.814L68.5803 106.685Z" fill="white"/>
<path id="Vector_140" d="M45.9375 150.265L42.3792 150.922L41.584 154.676L40.7844 150.922L37.226 150.26L40.771 149.394L41.584 145.849L42.3925 149.394L45.9375 150.265Z" fill="white"/>
<path id="Vector_141" d="M138.29 77.9873L134.732 78.6447L133.937 82.3986L133.141 78.6447L129.579 77.9828L133.124 77.1166L133.937 73.5715L134.745 77.1166L138.29 77.9873Z" fill="white"/>
<path id="Vector_142" d="M46.1286 159.416C44.7958 159.416 44.7958 161.477 46.1286 161.477C47.4613 161.477 47.4613 159.416 46.1286 159.416Z" fill="white"/>
<path id="Vector_143" d="M74.7774 184.191C73.4447 184.191 73.4447 186.257 74.7774 186.257C76.1101 186.257 76.1057 184.191 74.7774 184.191Z" fill="white"/>
<path id="Vector_144" d="M52.761 100.093C51.4283 100.093 51.4283 102.158 52.761 102.158C54.0937 102.158 54.0937 100.093 52.761 100.093Z" fill="white"/>
<path id="Vector_145" d="M122.151 84.4154C120.818 84.4154 120.818 86.4767 122.151 86.4767C123.484 86.4767 123.484 84.4154 122.151 84.4154Z" fill="white"/>
<path id="Vector_146" d="M144.203 163.965C142.87 163.965 142.87 166.031 144.203 166.031C145.536 166.031 145.531 163.965 144.203 163.965Z" fill="white"/>
<path id="Vector_147" d="M97.8512 169.74C97.6579 169.74 97.4726 169.817 97.336 169.954C97.1994 170.09 97.1226 170.276 97.1226 170.469C97.1226 170.662 97.1994 170.847 97.336 170.984C97.4726 171.121 97.6579 171.197 97.8512 171.197C98.0444 171.197 98.2297 171.121 98.3663 170.984C98.503 170.847 98.5797 170.662 98.5797 170.469C98.5797 170.276 98.503 170.09 98.3663 169.954C98.2297 169.817 98.0444 169.74 97.8512 169.74Z" fill="white"/>
<path id="Vector_148" d="M45.9375 46.5796C45.7535 46.5939 45.5818 46.6772 45.4564 46.8126C45.3311 46.9481 45.2615 47.1258 45.2615 47.3104C45.2615 47.4949 45.3311 47.6726 45.4564 47.8081C45.5818 47.9436 45.7535 48.0268 45.9375 48.0411C46.1215 48.0268 46.2933 47.9436 46.4186 47.8081C46.5439 47.6726 46.6135 47.4949 46.6135 47.3104C46.6135 47.1258 46.5439 46.9481 46.4186 46.8126C46.2933 46.6772 46.1215 46.5939 45.9375 46.5796Z" fill="white"/>
<path id="Vector_149" d="M50.4154 144.041C48.0876 144.041 48.0832 147.657 50.4154 147.657C52.7477 147.657 52.7477 144.041 50.4154 144.041Z" fill="white"/>
<path id="Vector_150" d="M137.815 107.107C135.487 107.107 135.483 110.723 137.815 110.723C140.147 110.723 140.147 107.107 137.815 107.107Z" fill="white"/>
<path id="Vector_151" d="M152.022 91.3544C149.689 91.3544 149.689 94.9705 152.022 94.9705C154.354 94.9705 154.354 91.3544 152.022 91.3544Z" fill="white"/>
<path id="Vector_152" d="M95.5012 59.0938L93.8575 24.3099H99.7259V59.0938H95.5012Z" fill="#37474F"/>
<path id="Vector_153" d="M96.7983 21.5469C88.6954 16.4559 96.7983 6.79816 96.7983 6.79816C96.7983 6.79816 104.888 16.447 96.7983 21.5469Z" fill="#F06D3D"/>
<path id="Vector_154" opacity="0.1" d="M96.7983 21.5468C91.5474 18.2461 96.7983 11.9913 96.7983 11.9913C96.7983 11.9913 102.04 18.2461 96.7983 21.5468Z" fill="#354458"/>
<path id="Vector_155" d="M74.7294 28.2453L73.4462 28.6052L82.9396 62.447L84.2228 62.0871L74.7294 28.2453Z" fill="#263238"/>
<path id="Vector_156" d="M72.0187 21.5469L76.1812 25.3807L81.8364 25.1541L79.4775 30.2984L81.441 35.6026L75.8214 34.9495L71.379 38.459L70.264 32.9105L65.5551 29.7697L70.4861 26.9932L72.0187 21.5469Z" fill="#F06D3D"/>
<path id="Vector_157" d="M72.4852 23.2972C72.233 24.7958 71.8963 26.279 71.4767 27.7396C70.1645 28.4916 68.8103 29.1679 67.4208 29.7653C68.6265 28.9036 69.8814 28.113 71.1791 27.3975L71.0725 27.5308C71.4644 26.1017 71.9361 24.6957 72.4852 23.3194V23.2972Z" fill="white"/>
<path id="Vector_158" d="M68.9179 30.9736C69.7598 31.3488 70.576 31.7792 71.3612 32.2619C71.5034 32.9549 71.6366 33.6479 71.7388 34.3453C71.8366 35.0153 71.8989 35.69 71.9254 36.3666C71.7023 35.7272 71.514 35.0762 71.3612 34.4164C71.2013 33.7634 71.0769 33.0837 70.9614 32.4396L71.0547 32.5773C70.3075 32.091 69.5936 31.5552 68.9179 30.9736Z" fill="white"/>
<path id="Vector_159" opacity="0.1" d="M71.379 38.459L75.0307 33.2214H78.8333L77.394 30.0007L79.2154 26.3002L76.1812 25.3806L81.8364 25.1541L79.4775 30.2983L81.441 35.6025L75.8214 34.9495L71.379 38.459Z" fill="#354458"/>
<path id="Vector_160" d="M130.513 33.8112L112.434 61.9188L113.554 62.6397L131.634 34.5322L130.513 33.8112Z" fill="#263238"/>
<path id="Vector_161" d="M135.163 28.4814L134.865 34.1321L138.65 38.339L133.186 39.805L130.352 44.705L127.269 39.9605L121.734 38.7833L125.292 34.3809L124.705 28.7524L129.987 30.7781L135.163 28.4814Z" fill="#F06D3D"/>
<path id="Vector_162" d="M134.11 29.9607C132.802 30.7161 131.452 31.3969 130.067 31.9998C128.65 31.472 127.265 30.8624 125.918 30.174C127.353 30.5509 128.765 31.0107 130.147 31.5511H129.978C131.327 30.9396 132.709 30.4056 134.119 29.9518L134.11 29.9607Z" fill="white"/>
<path id="Vector_163" d="M125.923 32.1108C126.171 32.9978 126.361 33.9 126.491 34.8117C126.047 35.367 125.603 35.909 125.127 36.4332C124.676 36.9378 124.197 37.4168 123.693 37.8681C124.037 37.2887 124.412 36.7282 124.816 36.1889C125.216 35.6514 125.647 35.1316 126.083 34.6163L126.038 34.7806C125.934 33.8962 125.889 33.0057 125.905 32.1152L125.923 32.1108Z" fill="white"/>
<path id="Vector_164" opacity="0.1" d="M121.734 38.7833L128.095 38.2502L130.525 41.1778L132.084 38.0148L136.096 37.0552L134.865 34.1321L138.65 38.3391L133.186 39.8051L130.352 44.705L127.269 39.9605L121.734 38.7833Z" fill="#354458"/>
<path id="Vector_165" d="M111.53 15.5694L107.361 61.899L108.693 62.019L112.863 15.6894L111.53 15.5694Z" fill="#263238"/>
<path id="Vector_166" d="M112.969 9.74341L115.247 14.9232L120.521 16.98L116.296 20.7472L115.972 26.3979L111.081 23.5459L105.608 24.9808L106.807 19.45L103.751 14.6878L109.384 14.1236L112.969 9.74341Z" fill="#F06D3D"/>
<path id="Vector_167" d="M112.693 11.5338C111.865 12.7992 110.966 14.0168 110.001 15.1809C108.498 15.3424 106.986 15.4195 105.474 15.412C106.923 15.1062 108.389 14.8837 109.863 14.7456L109.712 14.8256C110.644 13.6741 111.64 12.5751 112.693 11.5338Z" fill="white"/>
<path id="Vector_168" d="M106.349 17.14C106.971 17.8212 107.546 18.5425 108.073 19.299C107.927 19.9876 107.771 20.6762 107.584 21.3603C107.398 22.0444 107.198 22.653 106.949 23.2883C106.997 22.6117 107.083 21.9383 107.207 21.2714C107.327 20.6095 107.478 19.9387 107.651 19.299L107.682 19.4634C107.187 18.7192 106.742 17.9431 106.349 17.14Z" fill="white"/>
<path id="Vector_169" opacity="0.1" d="M105.608 24.9808L111.05 21.6445L114.537 23.1683L114.506 19.641L117.655 16.98L115.248 14.9232L120.521 16.98L116.296 20.7472L115.972 26.3979L111.081 23.5459L105.608 24.9808Z" fill="#354458"/>
<path id="Vector_170" d="M85.7235 66.1528H65.755C65.8101 63.5412 66.8862 61.0552 68.7526 59.2278C70.619 57.4003 73.1272 56.3769 75.7393 56.3769C78.3514 56.3769 80.8595 57.4003 82.7259 59.2278C84.5923 61.0552 85.6684 63.5412 85.7235 66.1528Z" fill="#F06D3D"/>
<path id="Vector_171" opacity="0.8" d="M85.7235 66.1528H65.755C65.8101 63.5412 66.8862 61.0552 68.7526 59.2278C70.619 57.4003 73.1272 56.3769 75.7393 56.3769C78.3514 56.3769 80.8595 57.4003 82.7259 59.2278C84.5923 61.0552 85.6684 63.5412 85.7235 66.1528Z" fill="white"/>
<path id="Vector_172" d="M131.533 66.1528H111.565C111.62 63.5412 112.696 61.0552 114.562 59.2278C116.429 57.4003 118.937 56.3769 121.549 56.3769C124.161 56.3769 126.669 57.4003 128.536 59.2278C130.402 61.0552 131.478 63.5412 131.533 66.1528Z" fill="#F06D3D"/>
<path id="Vector_173" opacity="0.8" d="M131.533 66.1528H111.565C111.62 63.5412 112.696 61.0552 114.562 59.2278C116.429 57.4003 118.937 56.3769 121.549 56.3769C124.161 56.3769 126.669 57.4003 128.536 59.2278C130.402 61.0552 131.478 63.5412 131.533 66.1528Z" fill="white"/>
<path id="Vector_174" d="M114.71 66.1528H81.3566C81.3566 61.7298 83.1136 57.4881 86.2411 54.3606C89.3686 51.2331 93.6104 49.4761 98.0333 49.4761C102.456 49.4761 106.698 51.2331 109.826 54.3606C112.953 57.4881 114.71 61.7298 114.71 66.1528Z" fill="#F06D3D"/>
<path id="Vector_175" opacity="0.8" d="M114.71 66.1528H81.3566C81.3566 61.7298 83.1136 57.4881 86.2411 54.3606C89.3686 51.2331 93.6104 49.4761 98.0333 49.4761C102.456 49.4761 106.698 51.2331 109.826 54.3606C112.953 57.4881 114.71 61.7298 114.71 66.1528Z" fill="white"/>
<path id="Vector_176" d="M93.7731 54.3006C93.7731 54.7796 93.631 55.2479 93.3648 55.6461C93.0985 56.0444 92.7202 56.3547 92.2775 56.5378C91.8348 56.7209 91.3478 56.7686 90.878 56.6748C90.4083 56.581 89.9769 56.35 89.6385 56.011C89.3 55.6719 89.0698 55.2401 88.9769 54.7702C88.884 54.3002 88.9326 53.8133 89.1165 53.371C89.3004 52.9286 89.6114 52.5508 90.0102 52.2853C90.4089 52.0198 90.8774 51.8786 91.3564 51.8795C91.9978 51.8806 92.6125 52.1362 93.0656 52.5902C93.5186 53.0441 93.7731 53.6592 93.7731 54.3006Z" fill="white"/>
<path id="Vector_177" d="M72.8495 60.1689C73.6714 60.1689 74.3377 59.5026 74.3377 58.6807C74.3377 57.8588 73.6714 57.1925 72.8495 57.1925C72.0276 57.1925 71.3613 57.8588 71.3613 58.6807C71.3613 59.5026 72.0276 60.1689 72.8495 60.1689Z" fill="white"/>
<path id="Vector_178" d="M117.722 61.3773C118.544 61.3773 119.21 60.711 119.21 59.8891C119.21 59.0672 118.544 58.4009 117.722 58.4009C116.9 58.4009 116.234 59.0672 116.234 59.8891C116.234 60.711 116.9 61.3773 117.722 61.3773Z" fill="white"/>
<path id="Vector_179" d="M96.2208 51.7817C96.2208 51.9908 96.1588 52.1952 96.0427 52.3691C95.9265 52.5429 95.7613 52.6784 95.5682 52.7585C95.375 52.8385 95.1624 52.8594 94.9573 52.8186C94.7522 52.7778 94.5638 52.6771 94.4159 52.5293C94.2681 52.3814 94.1674 52.193 94.1266 51.9879C94.0858 51.7828 94.1067 51.5702 94.1867 51.3771C94.2668 51.1839 94.4023 51.0187 94.5762 50.9026C94.75 50.7864 94.9544 50.7244 95.1636 50.7244C95.3026 50.7238 95.4403 50.7507 95.5689 50.8037C95.6974 50.8566 95.8142 50.9344 95.9125 51.0327C96.0108 51.131 96.0886 51.2478 96.1416 51.3764C96.1945 51.5049 96.2214 51.6426 96.2208 51.7817Z" fill="white"/>
<path id="Vector_180" d="M122.209 57.8188C122.209 58.0279 122.147 58.2323 122.031 58.4062C121.914 58.5801 121.749 58.7156 121.556 58.7956C121.363 58.8756 121.15 58.8966 120.945 58.8558C120.74 58.815 120.552 58.7143 120.404 58.5664C120.256 58.4186 120.155 58.2302 120.115 58.0251C120.074 57.82 120.095 57.6074 120.175 57.4142C120.255 57.221 120.39 57.0559 120.564 56.9397C120.738 56.8235 120.942 56.7615 121.152 56.7615C121.432 56.7615 121.701 56.8729 121.899 57.0712C122.097 57.2695 122.209 57.5384 122.209 57.8188Z" fill="white"/>
<path id="Vector_181" d="M111.543 64.4825C108.491 65.9174 104.533 66.1573 101.258 65.4021C99.9264 65.1174 98.6554 64.5985 97.5047 63.8695C96.7302 63.3831 96.0781 62.7249 95.5989 61.9459C95.5291 61.8278 95.4654 61.7062 95.4079 61.5816C94.9323 60.4438 94.8236 59.1859 95.0969 57.9833C95.0969 57.9833 95.0969 57.9522 95.0969 57.9389C95.0969 57.9255 95.1191 57.8234 95.1325 57.7612L95.1858 57.5124C95.2435 57.2681 95.3101 57.0193 95.3857 56.7705C95.4612 56.5218 95.5234 56.3263 95.5989 56.1353C95.7366 55.7621 95.8965 55.3845 96.0698 55.0113C96.1453 54.8559 96.2208 54.7004 96.3008 54.5449C97.8201 51.5774 100.472 48.7165 103.475 47.3038C105.67 46.2776 107.824 46.0955 109.761 46.7929L109.979 46.8773C110.349 47.023 110.705 47.1998 111.045 47.406C111.093 47.4288 111.137 47.4572 111.178 47.4904L111.232 47.5215C111.289 47.557 111.347 47.5926 111.4 47.6325C111.595 47.7594 111.782 47.8973 111.96 48.0457L112.165 48.2145C112.276 48.3078 112.382 48.4011 112.489 48.5033C113.112 49.0996 113.662 49.7676 114.128 50.4934L114.328 50.8044C114.626 51.2906 114.896 51.7934 115.136 52.3104C115.363 52.7901 115.554 53.261 115.723 53.7275L115.843 54.0784C116.536 56.2241 116.563 58.161 116.007 59.8136L115.954 59.969C115.252 61.9059 113.737 63.4519 111.543 64.4825Z" fill="#F06D3D"/>
<g id="Group_3" opacity="0.1">
<path id="Vector_182" d="M111.543 64.478C108.491 65.9174 104.537 66.1573 101.259 65.3976C99.9946 65.1276 98.7845 64.6486 97.678 63.9805L97.4959 63.8694C96.7243 63.3794 96.073 62.722 95.5901 61.9459C95.5235 61.8259 95.4613 61.706 95.3991 61.5861C94.9282 60.4439 94.8197 59.1847 95.0881 57.9788C95.0881 57.9788 95.0881 57.9522 95.0881 57.9389C95.0881 57.9255 95.1103 57.8234 95.1236 57.7656C95.137 57.7079 95.1592 57.5968 95.1769 57.5079C95.2347 57.2681 95.3013 57.0193 95.3768 56.775C95.4524 56.5306 95.5146 56.3307 95.5945 56.1352C95.7322 55.7621 95.8877 55.3889 96.0388 55.0113C96.1143 54.8558 96.1898 54.7004 96.2698 54.5449C97.4792 52.1873 99.2151 50.1399 101.343 48.561C99.6873 49.8965 98.326 51.5603 97.3448 53.4476C97.2737 53.5809 97.2116 53.723 97.1449 53.8563C96.9903 54.1792 96.8524 54.5099 96.7318 54.847C96.6651 55.0335 96.6029 55.2157 96.5496 55.4023C96.4963 55.5888 96.4208 55.8465 96.3675 56.0508C96.3675 56.1264 96.3364 56.1974 96.3231 56.273C96.3097 56.3485 96.2964 56.3707 96.2875 56.424C96.2787 56.4773 96.2875 56.4551 96.2875 56.464C96.0463 57.5212 96.1426 58.6274 96.563 59.627C96.6098 59.7361 96.6647 59.8415 96.7273 59.9424C97.1467 60.6274 97.7183 61.2065 98.3977 61.6349C99.4106 62.2674 100.526 62.7184 101.694 62.9676C104.573 63.6207 108.047 63.4119 110.73 62.1502C112.653 61.2618 113.982 59.8935 114.599 58.1876C114.599 58.1432 114.63 58.0988 114.643 58.0544C115.139 56.4032 115.087 54.6362 114.497 53.0167C114.468 52.9128 114.434 52.8105 114.395 52.7102C114.253 52.3059 114.079 51.8883 113.884 51.4707C113.672 51.0138 113.434 50.5689 113.173 50.138C113.12 50.0447 113.053 49.9515 112.995 49.8626C112.588 49.2246 112.105 48.6384 111.556 48.1168C111.463 48.0279 111.374 47.9435 111.272 47.8635C111.17 47.7836 111.152 47.7569 111.09 47.7125C110.934 47.5837 110.765 47.4637 110.605 47.3438L110.29 47.1528C109.992 46.9759 109.678 46.8272 109.353 46.7085L109.162 46.633C108.983 46.5675 108.8 46.5126 108.615 46.4686C108.995 46.5385 109.367 46.6395 109.73 46.7707C109.805 46.7922 109.877 46.8189 109.948 46.8507C110.317 46.9992 110.675 47.1744 111.018 47.3749L111.147 47.4637L111.205 47.4904L111.369 47.6059C111.563 47.735 111.75 47.8744 111.929 48.0235C111.996 48.0723 112.067 48.1301 112.134 48.1878C112.2 48.2456 112.347 48.3744 112.453 48.4766C113.079 49.0726 113.633 49.7406 114.101 50.4668L114.297 50.7822C114.595 51.2677 114.866 51.7689 115.11 52.2837C115.332 52.7679 115.528 53.2388 115.687 53.6964C115.736 53.8163 115.772 53.9318 115.812 54.0473C116.509 56.1974 116.531 58.1299 115.972 59.7913C115.972 59.8402 115.941 59.8891 115.923 59.9424C115.252 61.9059 113.737 63.4519 111.543 64.478Z" fill="#354458"/>
</g>
<path id="Vector_183" d="M109.979 46.8774C109.939 46.892 109.894 46.8915 109.854 46.8759C109.814 46.8604 109.781 46.831 109.761 46.793L109.979 46.8774Z" fill="#F06D3D"/>
<path id="Vector_184" d="M114.328 50.8088C114.208 50.8666 114.088 50.871 114.026 50.7422C114.014 50.7194 114.008 50.6944 114.007 50.6689C114.006 50.6434 114.01 50.618 114.02 50.5944C114.03 50.5708 114.044 50.5496 114.063 50.5321C114.082 50.5147 114.104 50.5015 114.128 50.4934C114.199 50.5956 114.261 50.6978 114.328 50.8088Z" fill="#F06D3D"/>
<path id="Vector_185" d="M111.934 49.7648C111.978 49.8626 111.454 50.3868 111.303 50.0625C111.152 49.7382 111.871 49.6493 111.934 49.7648Z" fill="#F06D3D"/>
<path id="Vector_186" d="M115.843 54.0784C115.727 54.1273 115.616 54.1273 115.559 54.0029C115.501 53.8785 115.59 53.7763 115.723 53.7275L115.843 54.0784Z" fill="#F06D3D"/>
<path id="Vector_187" d="M113.448 53.0033C113.493 53.0966 112.969 53.6253 112.818 53.301C112.666 52.9767 113.404 52.91 113.448 53.0033Z" fill="#F06D3D"/>
<path id="Vector_188" d="M114.981 56.264C115.025 56.3573 114.497 56.886 114.346 56.5617C114.195 56.2374 114.937 56.1663 114.981 56.264Z" fill="#F06D3D"/>
<path id="Vector_189" d="M109.175 49.0096C109.219 49.1029 108.695 49.6316 108.54 49.3073C108.384 48.983 109.13 48.9119 109.175 49.0096Z" fill="#F06D3D"/>
<path id="Vector_190" d="M106.429 48.3077C106.474 48.401 105.95 48.9252 105.799 48.6053C105.648 48.2855 106.385 48.21 106.429 48.3077Z" fill="#F06D3D"/>
<path id="Vector_191" d="M110.707 52.2659C110.752 52.3636 110.223 52.8878 110.072 52.5635C109.921 52.2392 110.663 52.1726 110.707 52.2659Z" fill="#F06D3D"/>
<path id="Vector_192" d="M107.962 51.564C108.007 51.6617 107.482 52.1859 107.327 51.8616C107.171 51.5373 107.935 51.4707 107.962 51.564Z" fill="#F06D3D"/>
<path id="Vector_193" d="M112.236 55.54C112.28 55.6333 111.756 56.1619 111.605 55.8376C111.454 55.5133 112.191 55.4334 112.236 55.54Z" fill="#F06D3D"/>
<path id="Vector_194" d="M109.495 54.8247C109.539 54.918 109.01 55.4466 108.859 55.1223C108.708 54.798 109.45 54.7314 109.495 54.8247Z" fill="#F06D3D"/>
<path id="Vector_195" d="M115.954 59.9818C115.948 59.9536 115.95 59.9242 115.959 59.8969C115.968 59.8696 115.985 59.8454 116.007 59.8268L115.954 59.9818Z" fill="#F06D3D"/>
<path id="Vector_196" d="M113.862 58.9828C113.906 59.0805 113.377 59.6047 113.226 59.2804C113.075 58.9561 113.817 58.8895 113.862 58.9828Z" fill="#F06D3D"/>
<path id="Vector_197" d="M111.116 58.2809C111.161 58.3742 110.636 58.9028 110.485 58.5785C110.334 58.2543 111.072 58.2054 111.116 58.2809Z" fill="#F06D3D"/>
<path id="Vector_198" d="M112.649 61.5416C112.693 61.6349 112.165 62.1635 112.013 61.8392C111.862 61.5149 112.604 61.4483 112.649 61.5416Z" fill="#F06D3D"/>
<path id="Vector_199" d="M103.6 47.6858C103.644 47.7791 103.115 48.3078 102.964 47.9835C102.813 47.6592 103.555 47.5925 103.6 47.6858Z" fill="#F06D3D"/>
<path id="Vector_200" d="M105.128 50.9465C105.172 51.0398 104.648 51.5684 104.497 51.2441C104.346 50.9198 105.083 50.8487 105.128 50.9465Z" fill="#F06D3D"/>
<path id="Vector_201" d="M102.387 50.2446C102.431 50.3379 101.903 50.8621 101.752 50.5378C101.601 50.2135 102.342 50.1469 102.387 50.2446Z" fill="#F06D3D"/>
<path id="Vector_202" d="M106.66 54.2073C106.705 54.305 106.181 54.8292 106.025 54.5049C105.87 54.1806 106.603 54.1095 106.66 54.2073Z" fill="#F06D3D"/>
<path id="Vector_203" d="M103.937 53.5009C103.982 53.5986 103.458 54.1228 103.306 53.7985C103.155 53.4742 103.871 53.4076 103.937 53.5009Z" fill="#F06D3D"/>
<path id="Vector_204" d="M101.174 52.7679C101.219 52.8612 100.694 53.3898 100.539 53.0655C100.383 52.7412 101.13 52.6701 101.174 52.7679Z" fill="#F06D3D"/>
<path id="Vector_205" d="M98.4287 52.066C98.4731 52.1593 97.9489 52.6835 97.7979 52.3637C97.6468 52.0438 98.3843 51.986 98.4287 52.066Z" fill="#F06D3D"/>
<path id="Vector_206" d="M108.282 57.659C108.326 57.7567 107.802 58.2809 107.651 57.9566C107.5 57.6323 108.237 57.5657 108.282 57.659Z" fill="#F06D3D"/>
<path id="Vector_207" d="M105.541 56.9571C105.585 57.0548 105.061 57.579 104.906 57.2547C104.75 56.9304 105.497 56.8727 105.541 56.9571Z" fill="#F06D3D"/>
<path id="Vector_208" d="M109.815 60.9196C109.859 61.0129 109.335 61.5416 109.179 61.2173C109.024 60.893 109.77 60.8264 109.815 60.9196Z" fill="#F06D3D"/>
<path id="Vector_209" d="M107.069 60.2177C107.114 60.311 106.589 60.8397 106.438 60.5154C106.287 60.1911 107.047 60.1245 107.069 60.2177Z" fill="#F06D3D"/>
<path id="Vector_210" d="M111.347 64.1803C111.392 64.2736 110.863 64.8023 110.712 64.478C110.561 64.1537 111.303 64.087 111.347 64.1803Z" fill="#F06D3D"/>
<path id="Vector_211" d="M108.602 63.4784C108.646 63.5717 108.122 64.1004 107.971 63.7761C107.82 63.4518 108.557 63.3851 108.602 63.4784Z" fill="#F06D3D"/>
<path id="Vector_212" d="M102.796 56.2241C102.84 56.3174 102.316 56.846 102.165 56.5217C102.014 56.1974 102.751 56.1308 102.796 56.2241Z" fill="#F06D3D"/>
<path id="Vector_213" d="M100.055 55.54C100.099 55.6333 99.5749 56.1575 99.4194 55.8376C99.2639 55.5178 100.01 55.4245 100.055 55.54Z" fill="#F06D3D"/>
<path id="Vector_214" d="M104.328 59.4848C104.373 59.5781 103.848 60.1023 103.693 59.778C103.537 59.4537 104.284 59.3871 104.328 59.4848Z" fill="#F06D3D"/>
<path id="Vector_215" d="M101.583 58.7785C101.627 58.8762 101.103 59.4004 100.952 59.0761C100.801 58.7518 101.538 58.6852 101.583 58.7785Z" fill="#F06D3D"/>
<path id="Vector_216" d="M105.861 62.7411C105.905 62.8388 105.377 63.363 105.226 63.0387C105.074 62.7144 105.816 62.6478 105.861 62.7411Z" fill="#F06D3D"/>
<path id="Vector_217" d="M103.115 62.0392C103.16 62.1324 102.636 62.6611 102.485 62.3368C102.334 62.0125 103.071 61.9459 103.115 62.0392Z" fill="#F06D3D"/>
<path id="Vector_218" d="M104.648 65.3132C104.692 65.4065 104.164 65.9351 104.013 65.6108C103.862 65.2865 104.604 65.2065 104.648 65.3132Z" fill="#F06D3D"/>
<path id="Vector_219" d="M97.2471 54.6515C97.2915 54.7448 96.7628 55.2734 96.6118 54.9491C96.4608 54.6248 97.2026 54.5538 97.2471 54.6515Z" fill="#F06D3D"/>
<path id="Vector_220" d="M98.7752 57.9077C98.8196 58.001 98.2954 58.5297 98.1444 58.2054C97.9933 57.8811 98.7308 57.8145 98.7752 57.9077Z" fill="#F06D3D"/>
<path id="Vector_221" d="M96.0342 57.2059C96.0786 57.2992 95.5544 57.8278 95.399 57.5035C95.2435 57.1792 95.9898 57.1081 96.0342 57.2059Z" fill="#F06D3D"/>
<path id="Vector_222" d="M100.383 61.3639C100.428 61.4572 99.9036 61.9859 99.7481 61.6616C99.5926 61.3373 100.357 61.2706 100.383 61.3639Z" fill="#F06D3D"/>
<path id="Vector_223" d="M97.6558 60.662C97.7002 60.7553 97.176 61.284 97.0249 60.9597C96.8739 60.6354 97.6113 60.5687 97.6558 60.662Z" fill="#F06D3D"/>
<path id="Vector_224" d="M101.929 64.6246C101.974 64.7179 101.45 65.2421 101.298 64.9222C101.147 64.6024 101.885 64.5269 101.929 64.6246Z" fill="#F06D3D"/>
<path id="Vector_225" d="M99.1883 63.9227C99.2327 64.016 98.7085 64.5402 98.553 64.2159C98.3975 63.8917 99.1438 63.825 99.1883 63.9227Z" fill="#F06D3D"/>
<g id="Group_4" opacity="0.8">
<path id="Vector_226" d="M109.979 46.8773C109.938 46.8919 109.894 46.8914 109.854 46.8759C109.814 46.8604 109.781 46.8309 109.761 46.7929L109.979 46.8773Z" fill="white"/>
<path id="Vector_227" d="M114.328 50.8088C114.208 50.8666 114.088 50.871 114.026 50.7422C114.014 50.7194 114.008 50.6944 114.007 50.6689C114.006 50.6434 114.01 50.618 114.02 50.5944C114.03 50.5708 114.044 50.5496 114.063 50.5321C114.082 50.5147 114.104 50.5015 114.128 50.4934C114.199 50.5956 114.261 50.6978 114.328 50.8088Z" fill="white"/>
<path id="Vector_228" d="M111.934 49.7648C111.978 49.8626 111.454 50.3868 111.303 50.0625C111.152 49.7382 111.871 49.6493 111.934 49.7648Z" fill="white"/>
<path id="Vector_229" d="M115.843 54.0784C115.727 54.1273 115.616 54.1273 115.559 54.0029C115.501 53.8785 115.59 53.7763 115.723 53.7275L115.843 54.0784Z" fill="white"/>
<path id="Vector_230" d="M113.448 53.0033C113.493 53.0966 112.969 53.6253 112.818 53.301C112.666 52.9767 113.404 52.91 113.448 53.0033Z" fill="white"/>
<path id="Vector_231" d="M114.981 56.264C115.025 56.3573 114.497 56.886 114.346 56.5617C114.195 56.2374 114.937 56.1663 114.981 56.264Z" fill="white"/>
<path id="Vector_232" d="M109.175 49.0096C109.219 49.1029 108.695 49.6316 108.54 49.3073C108.384 48.983 109.13 48.9119 109.175 49.0096Z" fill="white"/>
<path id="Vector_233" d="M106.429 48.3078C106.474 48.4011 105.95 48.9253 105.799 48.6054C105.648 48.2855 106.385 48.21 106.429 48.3078Z" fill="white"/>
<path id="Vector_234" d="M110.708 52.2659C110.752 52.3636 110.223 52.8878 110.072 52.5635C109.921 52.2392 110.663 52.1726 110.708 52.2659Z" fill="white"/>
<path id="Vector_235" d="M107.962 51.564C108.007 51.6617 107.482 52.1859 107.327 51.8616C107.171 51.5373 107.935 51.4707 107.962 51.564Z" fill="white"/>
<path id="Vector_236" d="M112.236 55.54C112.28 55.6333 111.756 56.1619 111.605 55.8376C111.454 55.5133 112.191 55.4334 112.236 55.54Z" fill="white"/>
<path id="Vector_237" d="M109.495 54.8248C109.539 54.9181 109.01 55.4467 108.859 55.1224C108.708 54.7981 109.45 54.7315 109.495 54.8248Z" fill="white"/>
<path id="Vector_238" d="M115.954 59.9819C115.948 59.9537 115.95 59.9244 115.959 59.8971C115.968 59.8698 115.985 59.8455 116.007 59.8269L115.954 59.9819Z" fill="white"/>
<path id="Vector_239" d="M113.862 58.9828C113.906 59.0805 113.377 59.6047 113.226 59.2804C113.075 58.9561 113.817 58.8895 113.862 58.9828Z" fill="white"/>
<path id="Vector_240" d="M111.116 58.2809C111.161 58.3742 110.636 58.9028 110.485 58.5785C110.334 58.2543 111.072 58.2054 111.116 58.2809Z" fill="white"/>
<path id="Vector_241" d="M112.649 61.5417C112.693 61.6349 112.165 62.1636 112.014 61.8393C111.862 61.515 112.604 61.4484 112.649 61.5417Z" fill="white"/>
<path id="Vector_242" d="M103.6 47.6858C103.644 47.7791 103.115 48.3078 102.964 47.9835C102.813 47.6592 103.555 47.5925 103.6 47.6858Z" fill="white"/>
<path id="Vector_243" d="M105.128 50.9466C105.172 51.0399 104.648 51.5685 104.497 51.2442C104.346 50.9199 105.083 50.8489 105.128 50.9466Z" fill="white"/>
<path id="Vector_244" d="M102.387 50.2446C102.431 50.3379 101.903 50.8621 101.752 50.5378C101.601 50.2135 102.342 50.1469 102.387 50.2446Z" fill="white"/>
<path id="Vector_245" d="M106.66 54.2073C106.705 54.305 106.181 54.8292 106.025 54.5049C105.87 54.1806 106.603 54.1095 106.66 54.2073Z" fill="white"/>
<path id="Vector_246" d="M103.937 53.5009C103.982 53.5986 103.458 54.1228 103.306 53.7985C103.155 53.4742 103.871 53.4076 103.937 53.5009Z" fill="white"/>
<path id="Vector_247" d="M101.174 52.7679C101.219 52.8612 100.694 53.3899 100.539 53.0656C100.383 52.7413 101.13 52.6702 101.174 52.7679Z" fill="white"/>
<path id="Vector_248" d="M98.4287 52.066C98.4731 52.1593 97.9489 52.6835 97.7979 52.3637C97.6468 52.0438 98.3843 51.986 98.4287 52.066Z" fill="white"/>
<path id="Vector_249" d="M108.282 57.659C108.326 57.7567 107.802 58.2809 107.651 57.9566C107.5 57.6323 108.237 57.5657 108.282 57.659Z" fill="white"/>
<path id="Vector_250" d="M105.541 56.9571C105.585 57.0548 105.061 57.579 104.906 57.2547C104.75 56.9304 105.497 56.8727 105.541 56.9571Z" fill="white"/>
<path id="Vector_251" d="M109.815 60.9196C109.859 61.0129 109.335 61.5416 109.179 61.2173C109.024 60.893 109.77 60.8264 109.815 60.9196Z" fill="white"/>
<path id="Vector_252" d="M107.069 60.2177C107.114 60.311 106.589 60.8397 106.438 60.5154C106.287 60.1911 107.047 60.1245 107.069 60.2177Z" fill="white"/>
<path id="Vector_253" d="M111.347 64.1804C111.392 64.2737 110.863 64.8023 110.712 64.478C110.561 64.1537 111.303 64.0871 111.347 64.1804Z" fill="white"/>
<path id="Vector_254" d="M108.602 63.4785C108.646 63.5718 108.122 64.1005 107.971 63.7762C107.82 63.4519 108.557 63.3853 108.602 63.4785Z" fill="white"/>
<path id="Vector_255" d="M102.796 56.2241C102.84 56.3174 102.316 56.846 102.165 56.5217C102.014 56.1974 102.751 56.1308 102.796 56.2241Z" fill="white"/>
<path id="Vector_256" d="M100.055 55.54C100.099 55.6333 99.5748 56.1575 99.4193 55.8376C99.2639 55.5178 100.01 55.4245 100.055 55.54Z" fill="white"/>
<path id="Vector_257" d="M104.328 59.4848C104.373 59.5781 103.848 60.1023 103.693 59.778C103.537 59.4537 104.284 59.3871 104.328 59.4848Z" fill="white"/>
<path id="Vector_258" d="M101.583 58.7785C101.627 58.8762 101.103 59.4004 100.952 59.0761C100.801 58.7518 101.538 58.6852 101.583 58.7785Z" fill="white"/>
<path id="Vector_259" d="M105.861 62.7411C105.905 62.8389 105.377 63.3631 105.226 63.0388C105.075 62.7145 105.816 62.6478 105.861 62.7411Z" fill="white"/>
<path id="Vector_260" d="M103.115 62.0392C103.16 62.1324 102.636 62.6611 102.485 62.3368C102.334 62.0125 103.071 61.9459 103.115 62.0392Z" fill="white"/>
<path id="Vector_261" d="M104.648 65.3132C104.692 65.4065 104.164 65.9352 104.013 65.6109C103.862 65.2866 104.604 65.2066 104.648 65.3132Z" fill="white"/>
<path id="Vector_262" d="M97.2471 54.6515C97.2915 54.7448 96.7628 55.2734 96.6118 54.9491C96.4608 54.6248 97.2026 54.5538 97.2471 54.6515Z" fill="white"/>
<path id="Vector_263" d="M98.7752 57.9077C98.8196 58.001 98.2954 58.5297 98.1444 58.2054C97.9933 57.8811 98.7308 57.8145 98.7752 57.9077Z" fill="white"/>
<path id="Vector_264" d="M96.0342 57.2059C96.0786 57.2992 95.5544 57.8278 95.399 57.5035C95.2435 57.1792 95.9898 57.1081 96.0342 57.2059Z" fill="white"/>
<path id="Vector_265" d="M100.383 61.3639C100.428 61.4572 99.9036 61.9859 99.7481 61.6616C99.5926 61.3373 100.357 61.2706 100.383 61.3639Z" fill="white"/>
<path id="Vector_266" d="M97.6558 60.662C97.7002 60.7553 97.176 61.284 97.0249 60.9597C96.8739 60.6354 97.6113 60.5687 97.6558 60.662Z" fill="white"/>
<path id="Vector_267" d="M101.929 64.6246C101.974 64.7179 101.45 65.2421 101.298 64.9222C101.147 64.6024 101.885 64.5269 101.929 64.6246Z" fill="white"/>
<path id="Vector_268" d="M99.1884 63.9227C99.2328 64.016 98.7086 64.5402 98.5531 64.2159C98.3977 63.8917 99.144 63.825 99.1884 63.9227Z" fill="white"/>
</g>
<path id="Vector_269" d="M119.041 57.6812C117.46 57.9788 114.843 54.1672 114.097 52.5724C113.351 50.9776 112.085 46.5352 113.324 45.5046C114.563 44.474 114.732 49.0585 114.732 49.0585C114.732 49.0585 115.914 45.4113 117.531 45.8644C119.148 46.3175 116.069 50.409 116.069 50.409C116.069 50.409 120.165 47.7169 120.956 49.365C121.747 51.0131 117.047 52.4436 117.047 52.4436C117.047 52.4436 122.16 52.6879 121.489 54.2205C120.818 55.7532 117.242 54.336 117.242 54.336C117.242 54.336 120.632 57.3835 119.041 57.6812Z" fill="#455A64"/>
<g id="Group_5" opacity="0.3">
<path id="Vector_270" d="M106.874 52.0482C108.651 52.0482 110.699 48.9652 109.539 47.9035C108.571 47.0417 107.003 47.4593 106.203 48.0323C105.403 48.6054 104.688 49.7204 105.043 50.6978C105.198 51.0669 105.45 51.3873 105.773 51.625C106.095 51.8628 106.475 52.009 106.874 52.0482Z" fill="white"/>
<path id="Vector_271" d="M102.498 51.3108C103.129 51.4085 103.724 50.3379 103.444 49.7293C103.164 49.1207 102.165 49.1785 101.885 49.6005C101.605 50.0225 101.925 51.222 102.498 51.3108Z" fill="white"/>
</g>
<path id="Vector_272" d="M83.3513 66.4993C86.4076 67.9342 90.3614 68.1741 93.6398 67.4189C94.9736 67.135 96.2462 66.6161 97.3981 65.8863C98.1716 65.3986 98.8234 64.7407 99.3039 63.9627C99.3705 63.8472 99.4371 63.7228 99.4949 63.5984C99.9684 62.4601 100.077 61.2028 99.8059 60.0001C99.8059 60.0001 99.8059 59.9735 99.8059 59.9557C99.8059 59.9379 99.7792 59.8402 99.7703 59.7824C99.7614 59.7247 99.7348 59.6136 99.7126 59.5292C99.6593 59.2849 99.5926 59.0405 99.5171 58.7873C99.4416 58.5341 99.3794 58.3653 99.2994 58.1521C99.1617 57.7789 99.0062 57.4013 98.8285 57.0282C98.7575 56.8712 98.6819 56.7231 98.602 56.5839C97.0827 53.6164 94.4306 50.7599 91.4231 49.3473C89.233 48.3166 87.0784 48.1345 85.1416 48.832L84.9239 48.9164C84.5531 49.0628 84.195 49.2397 83.8533 49.445L83.72 49.5294C83.7022 49.5371 83.6857 49.5476 83.6711 49.5605L83.4979 49.6716C83.3113 49.8004 83.1247 49.9381 82.9426 50.0847C82.8715 50.138 82.8049 50.1958 82.7382 50.2535C82.6272 50.3468 82.5206 50.4445 82.4139 50.5467C81.7896 51.1414 81.2379 51.808 80.7703 52.5325C80.7036 52.6346 80.637 52.7413 80.5748 52.8479C80.2753 53.3339 80.0038 53.8367 79.7618 54.3538C79.5397 54.8336 79.3443 55.3045 79.1799 55.7665C79.1355 55.8865 79.0999 56.002 79.0599 56.1175C78.3669 58.2631 78.3403 60.2 78.8956 61.857L78.9489 62.0081C79.6419 63.9272 81.1612 65.4687 83.3513 66.4993Z" fill="#F06D3D"/>
<g id="Group_6" opacity="0.1">
<path id="Vector_273" d="M83.3512 66.4948C86.4076 67.9342 90.3613 68.174 93.6398 67.4188C94.9023 67.144 96.1117 66.6653 97.2203 66.0017L97.4025 65.8862C98.1725 65.3976 98.8224 64.7416 99.3038 63.9671C99.3749 63.8472 99.4371 63.7228 99.4948 63.6028C99.9679 62.4628 100.076 61.2043 99.8058 60.0001C99.8106 59.9872 99.8106 59.973 99.8058 59.9601C99.8058 59.8979 99.8058 59.8401 99.7747 59.7824C99.7436 59.7246 99.7347 59.6136 99.7214 59.5292C99.6637 59.2893 99.597 59.0405 99.5171 58.7917C99.4371 58.543 99.3838 58.3697 99.2994 58.152C99.1661 57.7789 99.0106 57.4057 98.8329 57.0281C98.7619 56.8771 98.6863 56.7171 98.6064 56.5839C97.393 54.229 95.6578 52.1823 93.5332 50.6C95.1879 51.9365 96.549 53.6 97.5313 55.4866C97.5979 55.6199 97.6646 55.762 97.7268 55.8997C97.8849 56.2211 98.0228 56.5519 98.1399 56.8904C98.211 57.0725 98.2732 57.2547 98.3265 57.4412C98.3798 57.6278 98.4553 57.8855 98.5042 58.0898C98.5042 58.1654 98.5353 58.2409 98.5531 58.312C98.5708 58.383 98.5753 58.4141 98.5886 58.4674V58.503C98.8277 59.5603 98.7315 60.6659 98.3132 61.6659C98.2648 61.7766 98.2084 61.8835 98.1444 61.9858C97.7277 62.6703 97.1574 63.2483 96.4785 63.6739C95.4653 64.309 94.3479 64.7602 93.1778 65.0066C90.3036 65.6641 86.8296 65.4509 84.1464 64.1937C82.2184 63.3052 80.8946 61.9325 80.2727 60.2266C80.2552 60.1846 80.2404 60.1416 80.2282 60.0978C79.7318 58.4453 79.7833 56.6766 80.3748 55.0557C80.4045 54.958 80.44 54.8558 80.4814 54.7492C80.6236 54.3493 80.7969 53.9273 80.9923 53.5097C81.2016 53.0513 81.439 52.6062 81.7031 52.177C81.7571 52.0805 81.8164 51.9871 81.8808 51.8972C82.2869 51.2582 82.7703 50.6718 83.3201 50.1513C83.4134 50.0624 83.5023 49.978 83.6044 49.8981L83.7821 49.747C83.9421 49.6182 84.1064 49.4983 84.2708 49.3828L84.5818 49.1873C84.8826 49.013 85.1977 48.8644 85.5236 48.7431L85.7146 48.672C85.8923 48.6053 86.0744 48.552 86.2565 48.5032C85.879 48.5746 85.5076 48.6756 85.1459 48.8053L84.9283 48.8852C84.5591 49.0353 84.2013 49.212 83.8577 49.4139C83.8131 49.4394 83.7701 49.4676 83.7288 49.4983C83.7078 49.505 83.6882 49.5155 83.6711 49.5294C83.6178 49.5605 83.56 49.6049 83.5067 49.6404C83.3116 49.7699 83.1233 49.9092 82.9425 50.058C82.8759 50.1069 82.8093 50.1691 82.7426 50.2224C82.676 50.2757 82.5249 50.4134 82.4228 50.5156C81.7957 51.1106 81.2424 51.7788 80.7746 52.5058C80.708 52.6035 80.6414 52.7057 80.5747 52.8167C80.2767 53.3029 80.0068 53.8057 79.7662 54.3227C79.5441 54.8025 79.3486 55.2734 79.1887 55.7354C79.1398 55.8553 79.1043 55.9664 79.0643 56.0863C78.3892 57.9312 78.3315 59.9454 78.9 61.8259C78.9 61.8747 78.9355 61.9281 78.9488 61.9769C79.6418 63.9227 81.1567 65.4731 83.3512 66.4948Z" fill="#354458"/>
</g>
<path id="Vector_274" d="M84.9194 48.8765C84.9597 48.8921 85.0044 48.892 85.0446 48.8764C85.0849 48.8608 85.1179 48.8307 85.1371 48.7921L84.9194 48.8765Z" fill="#F06D3D"/>
<path id="Vector_275" d="M80.5703 52.8257C80.6858 52.8834 80.8102 52.8923 80.868 52.7635C80.9257 52.6346 80.868 52.568 80.7658 52.5103C80.6991 52.6124 80.6325 52.719 80.5703 52.8257Z" fill="#F06D3D"/>
<path id="Vector_276" d="M82.978 51.7639C82.9336 51.8572 83.4623 52.3858 83.6133 52.0616C83.7643 51.7373 83.0225 51.6662 82.978 51.7639Z" fill="#F06D3D"/>
<path id="Vector_277" d="M79.0599 56.0953C79.1754 56.1441 79.2865 56.1441 79.3442 56.0242C79.402 55.9042 79.3132 55.7976 79.1799 55.7443L79.0599 56.0953Z" fill="#F06D3D"/>
<path id="Vector_278" d="M81.4499 55.0202C81.4054 55.118 81.9296 55.6422 82.0807 55.3179C82.2317 54.9936 81.4943 54.9269 81.4499 55.0202Z" fill="#F06D3D"/>
<path id="Vector_279" d="M79.9173 58.2809C79.8728 58.3742 80.3971 58.9028 80.5525 58.5785C80.708 58.2543 79.9484 58.2054 79.9173 58.2809Z" fill="#F06D3D"/>
<path id="Vector_280" d="M85.7235 51.0265C85.6791 51.1197 86.2033 51.6484 86.3544 51.3241C86.5054 50.9998 85.768 50.9332 85.7235 51.0265Z" fill="#F06D3D"/>
<path id="Vector_281" d="M88.4644 50.3246C88.42 50.4178 88.9487 50.9465 89.0997 50.6222C89.2507 50.2979 88.5089 50.2313 88.4644 50.3246Z" fill="#F06D3D"/>
<path id="Vector_282" d="M84.1909 54.2871C84.1465 54.3804 84.6707 54.9091 84.8262 54.5848C84.9816 54.2605 84.2353 54.2072 84.1909 54.2871Z" fill="#F06D3D"/>
<path id="Vector_283" d="M86.9363 53.5853C86.8918 53.6786 87.416 54.2073 87.5671 53.883C87.7181 53.5587 86.9807 53.4876 86.9363 53.5853Z" fill="#F06D3D"/>
<path id="Vector_284" d="M82.6627 57.5479C82.6183 57.6412 83.1425 58.1654 83.2935 57.8411C83.4446 57.5168 82.7071 57.4502 82.6627 57.5479Z" fill="#F06D3D"/>
<path id="Vector_285" d="M85.4037 56.8416C85.3592 56.9393 85.8834 57.4635 86.0389 57.1392C86.1944 56.8149 85.4481 56.7483 85.4037 56.8416Z" fill="#F06D3D"/>
<path id="Vector_286" d="M78.9443 61.9854C78.9494 61.9579 78.9472 61.9294 78.9379 61.903C78.9286 61.8766 78.9124 61.853 78.8911 61.8348L78.9443 61.9854Z" fill="#F06D3D"/>
<path id="Vector_287" d="M81.0368 61.0041C80.9924 61.0973 81.5166 61.6215 81.672 61.3017C81.8275 60.9818 81.0812 60.9063 81.0368 61.0041Z" fill="#F06D3D"/>
<path id="Vector_288" d="M83.7821 60.3021C83.7377 60.3954 84.2619 60.9196 84.413 60.5953C84.564 60.271 83.8266 60.2044 83.7821 60.3021Z" fill="#F06D3D"/>
<path id="Vector_289" d="M82.2495 63.5585C82.2051 63.6562 82.7293 64.1804 82.8804 63.8561C83.0314 63.5318 82.294 63.4652 82.2495 63.5585Z" fill="#F06D3D"/>
<path id="Vector_290" d="M91.2987 49.7027C91.2543 49.8004 91.7785 50.3246 91.9339 50.0003C92.0894 49.676 91.3431 49.6094 91.2987 49.7027Z" fill="#F06D3D"/>
<path id="Vector_291" d="M89.7661 52.9634C89.7216 53.0567 90.2503 53.5853 90.4013 53.261C90.5524 52.9367 89.8105 52.8745 89.7661 52.9634Z" fill="#F06D3D"/>
<path id="Vector_292" d="M92.5115 52.2614C92.4671 52.3547 92.9913 52.8834 93.1423 52.5591C93.2934 52.2348 92.5559 52.1682 92.5115 52.2614Z" fill="#F06D3D"/>
<path id="Vector_293" d="M88.2378 56.2241C88.1934 56.3173 88.7176 56.846 88.8686 56.5217C89.0197 56.1974 88.2823 56.1263 88.2378 56.2241Z" fill="#F06D3D"/>
<path id="Vector_294" d="M90.9788 55.54C90.9344 55.6333 91.4631 56.1575 91.6141 55.8376C91.7651 55.5178 91.0233 55.4245 90.9788 55.54Z" fill="#F06D3D"/>
<path id="Vector_295" d="M93.7198 54.7847C93.6754 54.878 94.1996 55.4066 94.3506 55.0823C94.5017 54.758 93.7687 54.6914 93.7198 54.7847Z" fill="#F06D3D"/>
<path id="Vector_296" d="M96.4652 54.0829C96.4207 54.1761 96.9494 54.7048 97.1004 54.3805C97.2515 54.0562 96.5096 53.9896 96.4652 54.0829Z" fill="#F06D3D"/>
<path id="Vector_297" d="M86.612 59.6802C86.5675 59.7735 87.0962 60.3021 87.2472 59.9778C87.3983 59.6536 86.6564 59.5869 86.612 59.6802Z" fill="#F06D3D"/>
<path id="Vector_298" d="M89.3573 58.9783C89.3129 59.0716 89.8371 59.6003 89.9882 59.276C90.1392 58.9517 89.4018 58.8806 89.3573 58.9783Z" fill="#F06D3D"/>
<path id="Vector_299" d="M85.0838 62.9409C85.0394 63.0342 85.5636 63.5584 85.7146 63.2386C85.8656 62.9187 85.1282 62.8432 85.0838 62.9409Z" fill="#F06D3D"/>
<path id="Vector_300" d="M87.8247 62.2346C87.7803 62.3324 88.3045 62.8566 88.46 62.5323C88.6155 62.208 87.8692 62.1414 87.8247 62.2346Z" fill="#F06D3D"/>
<path id="Vector_301" d="M83.5512 66.2017C83.5068 66.2994 84.031 66.8236 84.1864 66.4993C84.3419 66.175 83.5956 66.1039 83.5512 66.2017Z" fill="#F06D3D"/>
<path id="Vector_302" d="M86.2965 65.4953C86.2521 65.5886 86.7763 66.1173 86.9274 65.793C87.0784 65.4687 86.341 65.402 86.2965 65.4953Z" fill="#F06D3D"/>
<path id="Vector_303" d="M92.0983 58.2409C92.0539 58.3342 92.5825 58.8629 92.7335 58.5386C92.8846 58.2143 92.1427 58.1476 92.0983 58.2409Z" fill="#F06D3D"/>
<path id="Vector_304" d="M94.8437 57.539C94.7992 57.6323 95.3234 58.161 95.4745 57.8367C95.6255 57.5124 94.8881 57.4457 94.8437 57.539Z" fill="#F06D3D"/>
<path id="Vector_305" d="M90.5701 61.5016C90.5257 61.5949 91.0499 62.1236 91.2009 61.7993C91.352 61.475 90.6101 61.4083 90.5701 61.5016Z" fill="#F06D3D"/>
<path id="Vector_306" d="M93.3111 60.7997C93.2667 60.893 93.7953 61.4216 93.9464 61.0973C94.0974 60.773 93.3555 60.7019 93.3111 60.7997Z" fill="#F06D3D"/>
<path id="Vector_307" d="M89.0375 64.7624C88.993 64.8556 89.5172 65.3798 89.6727 65.06C89.8282 64.7401 89.0819 64.6646 89.0375 64.7624Z" fill="#F06D3D"/>
<path id="Vector_308" d="M91.7829 64.0561C91.7385 64.1538 92.2627 64.678 92.4137 64.3537C92.5647 64.0294 91.8273 63.9805 91.7829 64.0561Z" fill="#F06D3D"/>
<path id="Vector_309" d="M90.2503 67.3167C90.2059 67.41 90.7301 67.9386 90.8812 67.6143C91.0322 67.29 90.2948 67.2234 90.2503 67.3167Z" fill="#F06D3D"/>
<path id="Vector_310" d="M97.6513 56.6684C97.6069 56.7616 98.1311 57.2858 98.2821 56.9616C98.4331 56.6373 97.7179 56.5706 97.6513 56.6684Z" fill="#F06D3D"/>
<path id="Vector_311" d="M96.1186 59.9246C96.0742 60.0223 96.6028 60.5465 96.7539 60.2222C96.9049 59.8979 96.163 59.8313 96.1186 59.9246Z" fill="#F06D3D"/>
<path id="Vector_312" d="M98.864 59.2227C98.8196 59.316 99.3438 59.8446 99.4948 59.5203C99.6459 59.196 98.9084 59.1294 98.864 59.2227Z" fill="#F06D3D"/>
<path id="Vector_313" d="M94.4972 63.3808C94.4528 63.4785 94.977 64.0027 95.128 63.6784C95.2791 63.3541 94.5417 63.2875 94.4972 63.3808Z" fill="#F06D3D"/>
<path id="Vector_314" d="M97.2381 62.6789C97.1937 62.7722 97.7223 63.3008 97.8734 62.9765C98.0244 62.6522 97.2737 62.5856 97.2381 62.6789Z" fill="#F06D3D"/>
<path id="Vector_315" d="M92.9646 66.6459C92.9202 66.7392 93.4443 67.2678 93.5998 66.9435C93.7553 66.6192 93.009 66.5481 92.9646 66.6459Z" fill="#F06D3D"/>
<path id="Vector_316" d="M95.7099 65.9395C95.6655 66.0328 96.1897 66.5615 96.3408 66.2372C96.4918 65.9129 95.7544 65.8463 95.7099 65.9395Z" fill="#F06D3D"/>
<g id="Group_7" opacity="0.8">
<path id="Vector_317" d="M84.9194 48.8763C84.9597 48.8919 85.0044 48.8919 85.0446 48.8763C85.0849 48.8607 85.1179 48.8306 85.1371 48.7919L84.9194 48.8763Z" fill="white"/>
<path id="Vector_318" d="M80.5704 52.8257C80.6859 52.8834 80.8103 52.8923 80.868 52.7635C80.9258 52.6346 80.868 52.568 80.7658 52.5103C80.6992 52.6124 80.6326 52.719 80.5704 52.8257Z" fill="white"/>
<path id="Vector_319" d="M82.9781 51.7639C82.9337 51.8572 83.4623 52.3858 83.6134 52.0616C83.7644 51.7373 83.0225 51.6662 82.9781 51.7639Z" fill="white"/>
<path id="Vector_320" d="M79.0599 56.0953C79.1754 56.1441 79.2864 56.1441 79.3442 56.0242C79.4019 55.9042 79.3131 55.7976 79.1798 55.7443L79.0599 56.0953Z" fill="white"/>
<path id="Vector_321" d="M81.4499 55.0202C81.4054 55.118 81.9296 55.6422 82.0807 55.3179C82.2317 54.9936 81.4943 54.9269 81.4499 55.0202Z" fill="white"/>
<path id="Vector_322" d="M79.9173 58.2809C79.8728 58.3742 80.3971 58.9028 80.5525 58.5785C80.708 58.2543 79.9484 58.2054 79.9173 58.2809Z" fill="white"/>
<path id="Vector_323" d="M85.7235 51.0265C85.6791 51.1197 86.2033 51.6484 86.3544 51.3241C86.5054 50.9998 85.768 50.9332 85.7235 51.0265Z" fill="white"/>
<path id="Vector_324" d="M88.4644 50.3246C88.42 50.4179 88.9487 50.9465 89.0997 50.6223C89.2507 50.298 88.5089 50.2313 88.4644 50.3246Z" fill="white"/>
<path id="Vector_325" d="M84.1909 54.2871C84.1465 54.3804 84.6707 54.9091 84.8262 54.5848C84.9816 54.2605 84.2353 54.2072 84.1909 54.2871Z" fill="white"/>
<path id="Vector_326" d="M86.9363 53.5853C86.8918 53.6786 87.416 54.2073 87.5671 53.883C87.7181 53.5587 86.9807 53.4876 86.9363 53.5853Z" fill="white"/>
<path id="Vector_327" d="M82.6627 57.5479C82.6183 57.6412 83.1425 58.1654 83.2935 57.8411C83.4446 57.5168 82.7071 57.4502 82.6627 57.5479Z" fill="white"/>
<path id="Vector_328" d="M85.4037 56.8416C85.3592 56.9393 85.8834 57.4635 86.0389 57.1392C86.1944 56.8149 85.4481 56.7483 85.4037 56.8416Z" fill="white"/>
<path id="Vector_329" d="M78.9442 61.9854C78.9494 61.9579 78.9472 61.9294 78.9378 61.903C78.9285 61.8766 78.9124 61.853 78.8911 61.8348L78.9442 61.9854Z" fill="white"/>
<path id="Vector_330" d="M81.0368 61.0041C80.9924 61.0973 81.5166 61.6215 81.672 61.3017C81.8275 60.9818 81.0812 60.9063 81.0368 61.0041Z" fill="white"/>
<path id="Vector_331" d="M83.7821 60.3021C83.7377 60.3954 84.2619 60.9196 84.413 60.5953C84.564 60.271 83.8266 60.2044 83.7821 60.3021Z" fill="white"/>
<path id="Vector_332" d="M82.2495 63.5585C82.2051 63.6562 82.7293 64.1804 82.8804 63.8561C83.0314 63.5318 82.294 63.4652 82.2495 63.5585Z" fill="white"/>
<path id="Vector_333" d="M91.2987 49.7027C91.2543 49.8004 91.7785 50.3246 91.9339 50.0003C92.0894 49.676 91.3431 49.6094 91.2987 49.7027Z" fill="white"/>
<path id="Vector_334" d="M89.766 52.9634C89.7216 53.0567 90.2502 53.5853 90.4013 53.261C90.5523 52.9367 89.8104 52.8745 89.766 52.9634Z" fill="white"/>
<path id="Vector_335" d="M92.5114 52.2614C92.467 52.3547 92.9912 52.8834 93.1422 52.5591C93.2932 52.2348 92.5558 52.1682 92.5114 52.2614Z" fill="white"/>
<path id="Vector_336" d="M88.2378 56.2241C88.1934 56.3173 88.7176 56.846 88.8686 56.5217C89.0197 56.1974 88.2823 56.1263 88.2378 56.2241Z" fill="white"/>
<path id="Vector_337" d="M90.9788 55.54C90.9344 55.6333 91.4631 56.1575 91.6141 55.8376C91.7651 55.5178 91.0233 55.4245 90.9788 55.54Z" fill="white"/>
<path id="Vector_338" d="M93.7198 54.7847C93.6754 54.878 94.1996 55.4066 94.3506 55.0823C94.5017 54.758 93.7687 54.6914 93.7198 54.7847Z" fill="white"/>
<path id="Vector_339" d="M96.4652 54.0829C96.4207 54.1761 96.9494 54.7048 97.1004 54.3805C97.2515 54.0562 96.5096 53.9896 96.4652 54.0829Z" fill="white"/>
<path id="Vector_340" d="M86.612 59.6802C86.5675 59.7735 87.0962 60.3021 87.2472 59.9778C87.3983 59.6536 86.6564 59.5869 86.612 59.6802Z" fill="white"/>
<path id="Vector_341" d="M89.3573 58.9783C89.3129 59.0716 89.8371 59.6003 89.9882 59.276C90.1392 58.9517 89.4018 58.8806 89.3573 58.9783Z" fill="white"/>
<path id="Vector_342" d="M85.0838 62.9409C85.0394 63.0342 85.5636 63.5584 85.7146 63.2386C85.8656 62.9187 85.1282 62.8432 85.0838 62.9409Z" fill="white"/>
<path id="Vector_343" d="M87.8247 62.2346C87.7803 62.3324 88.3045 62.8566 88.46 62.5323C88.6155 62.208 87.8692 62.1414 87.8247 62.2346Z" fill="white"/>
<path id="Vector_344" d="M83.5512 66.2017C83.5068 66.2994 84.031 66.8236 84.1864 66.4993C84.3419 66.175 83.5956 66.1039 83.5512 66.2017Z" fill="white"/>
<path id="Vector_345" d="M86.2965 65.4953C86.2521 65.5886 86.7763 66.1173 86.9274 65.793C87.0784 65.4687 86.341 65.402 86.2965 65.4953Z" fill="white"/>
<path id="Vector_346" d="M92.0983 58.2409C92.0539 58.3342 92.5825 58.8629 92.7335 58.5386C92.8846 58.2143 92.1427 58.1476 92.0983 58.2409Z" fill="white"/>
<path id="Vector_347" d="M94.8437 57.539C94.7992 57.6323 95.3234 58.161 95.4745 57.8367C95.6255 57.5124 94.8881 57.4457 94.8437 57.539Z" fill="white"/>
<path id="Vector_348" d="M90.5701 61.5016C90.5257 61.5949 91.0499 62.1236 91.2009 61.7993C91.352 61.475 90.6101 61.4083 90.5701 61.5016Z" fill="white"/>
<path id="Vector_349" d="M93.3111 60.7998C93.2667 60.8931 93.7953 61.4217 93.9464 61.0974C94.0974 60.7731 93.3555 60.7021 93.3111 60.7998Z" fill="white"/>
<path id="Vector_350" d="M89.0375 64.7624C88.9931 64.8556 89.5173 65.3798 89.6728 65.06C89.8283 64.7401 89.0819 64.6646 89.0375 64.7624Z" fill="white"/>
<path id="Vector_351" d="M91.7829 64.0561C91.7385 64.1538 92.2627 64.678 92.4137 64.3537C92.5647 64.0294 91.8273 63.9805 91.7829 64.0561Z" fill="white"/>
<path id="Vector_352" d="M90.2503 67.3167C90.2059 67.41 90.7301 67.9386 90.8812 67.6143C91.0322 67.29 90.2948 67.2234 90.2503 67.3167Z" fill="white"/>
<path id="Vector_353" d="M97.6513 56.6684C97.6069 56.7616 98.1311 57.2858 98.2821 56.9616C98.4331 56.6373 97.7179 56.5706 97.6513 56.6684Z" fill="white"/>
<path id="Vector_354" d="M96.1187 59.9246C96.0743 60.0223 96.603 60.5465 96.754 60.2222C96.905 59.8979 96.1632 59.8313 96.1187 59.9246Z" fill="white"/>
<path id="Vector_355" d="M98.8641 59.2227C98.8197 59.316 99.3439 59.8446 99.4949 59.5203C99.646 59.196 98.9085 59.1294 98.8641 59.2227Z" fill="white"/>
<path id="Vector_356" d="M94.4972 63.3808C94.4528 63.4785 94.977 64.0027 95.128 63.6784C95.2791 63.3541 94.5417 63.2875 94.4972 63.3808Z" fill="white"/>
<path id="Vector_357" d="M97.2381 62.6789C97.1937 62.7722 97.7223 63.3008 97.8734 62.9765C98.0244 62.6522 97.2737 62.5856 97.2381 62.6789Z" fill="white"/>
<path id="Vector_358" d="M92.9646 66.6459C92.9202 66.7392 93.4443 67.2679 93.5998 66.9436C93.7553 66.6193 93.009 66.5482 92.9646 66.6459Z" fill="white"/>
<path id="Vector_359" d="M95.7099 65.9395C95.6655 66.0328 96.1897 66.5615 96.3408 66.2372C96.4918 65.9129 95.7544 65.8463 95.7099 65.9395Z" fill="white"/>
</g>
<path id="Vector_360" d="M75.8481 59.698C77.434 59.9957 80.0461 56.1885 80.7969 54.5937C81.5477 52.9989 82.8093 48.5521 81.5699 47.5259C80.3305 46.4997 80.1572 51.0798 80.1572 51.0798C80.1572 51.0798 78.9755 47.4326 77.3629 47.8857C75.7504 48.3389 78.8245 52.4303 78.8245 52.4303C78.8245 52.4303 74.7286 49.7649 73.9379 51.3863C73.1471 53.0078 77.8472 54.4693 77.8472 54.4693C77.8472 54.4693 72.734 54.7092 73.4048 56.2463C74.0756 57.7834 77.6473 56.3574 77.6473 56.3574C77.6473 56.3574 74.2666 59.4048 75.8481 59.698Z" fill="#455A64"/>
<g id="Group_8" opacity="0.3">
<path id="Vector_361" d="M85.8746 52.9945C87.5093 53.652 90.579 51.564 89.8727 50.1425C89.3041 48.9786 87.6826 48.8098 86.7364 49.0097C85.7901 49.2096 84.6973 50.0092 84.6751 51.0265C84.6759 51.4329 84.7881 51.8312 84.9996 52.1782C85.2111 52.5252 85.5137 52.8076 85.8746 52.9945Z" fill="white"/>
<path id="Vector_362" d="M83.6089 54.1094C84.2308 53.954 84.3596 52.7323 83.8621 52.2836C83.3645 51.8349 82.4672 52.2836 82.3739 52.7767C82.2806 53.2698 83.058 54.2516 83.6089 54.1094Z" fill="white"/>
</g>
<path id="Vector_363" d="M81.3655 68.8938H66.4036C66.4036 66.9097 67.1917 65.0069 68.5947 63.6039C69.9976 62.201 71.9005 61.4128 73.8845 61.4128C75.8686 61.4128 77.7714 62.201 79.1744 63.6039C80.5773 65.0069 81.3655 66.9097 81.3655 68.8938Z" fill="#F06D3D"/>
<path id="Vector_364" opacity="0.8" d="M81.3655 68.8938H66.4036C66.4036 66.9097 67.1917 65.0069 68.5947 63.6039C69.9976 62.201 71.9005 61.4128 73.8845 61.4128C75.8686 61.4128 77.7714 62.201 79.1744 63.6039C80.5773 65.0069 81.3655 66.9097 81.3655 68.8938Z" fill="white"/>
<path id="Vector_365" d="M124.59 68.8938H109.628C109.628 66.9097 110.416 65.0069 111.819 63.6039C113.222 62.201 115.125 61.4128 117.109 61.4128C119.093 61.4128 120.996 62.201 122.399 63.6039C123.802 65.0069 124.59 66.9097 124.59 68.8938Z" fill="#F06D3D"/>
<path id="Vector_366" opacity="0.8" d="M124.59 68.8938H109.628C109.628 66.9097 110.416 65.0069 111.819 63.6039C113.222 62.201 115.125 61.4128 117.109 61.4128C119.093 61.4128 120.996 62.201 122.399 63.6039C123.802 65.0069 124.59 66.9097 124.59 68.8938Z" fill="white"/>
<path id="Vector_367" d="M112.231 68.8937H100.725C100.852 67.4552 101.513 66.1163 102.578 65.141C103.643 64.1656 105.034 63.6246 106.478 63.6246C107.922 63.6246 109.314 64.1656 110.379 65.141C111.444 66.1163 112.105 67.4552 112.231 68.8937Z" fill="#F06D3D"/>
<path id="Vector_368" opacity="0.8" d="M112.231 68.8937H100.725C100.852 67.4552 101.513 66.1163 102.578 65.141C103.643 64.1656 105.034 63.6246 106.478 63.6246C107.922 63.6246 109.314 64.1656 110.379 65.141C111.444 66.1163 112.105 67.4552 112.231 68.8937Z" fill="white"/>
<path id="Vector_369" d="M103.084 68.8938H78.0915C78.0915 65.5795 79.4081 62.401 81.7516 60.0575C84.0951 57.7139 87.2737 56.3973 90.5879 56.3973C93.9022 56.3973 97.0807 57.7139 99.4242 60.0575C101.768 62.401 103.084 65.5795 103.084 68.8938Z" fill="#F06D3D"/>
<path id="Vector_370" opacity="0.8" d="M103.084 68.8938H78.0915C78.0915 65.5795 79.4081 62.401 81.7516 60.0575C84.0951 57.7139 87.2737 56.3973 90.5879 56.3973C93.9022 56.3973 97.0807 57.7139 99.4242 60.0575C101.768 62.401 103.084 65.5795 103.084 68.8938Z" fill="white"/>
<path id="Vector_371" d="M89.0287 60.4799C89.0295 60.9591 88.8882 61.4278 88.6225 61.8267C88.3568 62.2255 87.9787 62.5365 87.5361 62.7203C87.0935 62.9041 86.6064 62.9524 86.1363 62.8591C85.6663 62.7658 85.2344 62.5352 84.8956 62.1963C84.5567 61.8574 84.326 61.4256 84.2328 60.9556C84.1395 60.4855 84.1878 59.9983 84.3716 59.5558C84.5554 59.1132 84.8664 58.7351 85.2652 58.4694C85.6641 58.2037 86.1328 58.0624 86.612 58.0632C87.2526 58.0644 87.8666 58.3194 88.3195 58.7724C88.7725 59.2253 89.0275 59.8393 89.0287 60.4799Z" fill="white"/>
<path id="Vector_372" d="M71.308 65.4732C72.1299 65.4732 72.7962 64.8069 72.7962 63.985C72.7962 63.163 72.1299 62.4968 71.308 62.4968C70.4861 62.4968 69.8198 63.163 69.8198 63.985C69.8198 64.8069 70.4861 65.4732 71.308 65.4732Z" fill="white"/>
<path id="Vector_373" d="M105.132 66.9436C105.954 66.9436 106.621 66.2773 106.621 65.4554C106.621 64.6335 105.954 63.9672 105.132 63.9672C104.31 63.9672 103.644 64.6335 103.644 65.4554C103.644 66.2773 104.31 66.9436 105.132 66.9436Z" fill="white"/>
<path id="Vector_374" d="M91.4986 57.9655C91.4986 58.1757 91.4362 58.3811 91.3193 58.5558C91.2025 58.7305 91.0364 58.8666 90.8421 58.9468C90.6479 59.027 90.4342 59.0478 90.2281 59.0065C90.022 58.9651 89.8328 58.8636 89.6845 58.7147C89.5362 58.5657 89.4354 58.3761 89.395 58.1699C89.3545 57.9636 89.3762 57.75 89.4572 57.5561C89.5383 57.3622 89.675 57.1966 89.8502 57.0805C90.0254 56.9644 90.2311 56.9029 90.4413 56.9038C90.7221 56.9049 90.991 57.0173 91.1892 57.2163C91.3873 57.4153 91.4986 57.6847 91.4986 57.9655Z" fill="white"/>
<path id="Vector_375" d="M116.234 63.1454C116.235 63.3555 116.173 63.5612 116.057 63.7364C115.941 63.9116 115.775 64.0484 115.581 64.1294C115.388 64.2105 115.174 64.2321 114.968 64.1917C114.761 64.1512 114.572 64.0504 114.423 63.9021C114.274 63.7538 114.172 63.5647 114.131 63.3586C114.09 63.1525 114.111 62.9388 114.191 62.7445C114.271 62.5503 114.407 62.3842 114.582 62.2673C114.756 62.1505 114.962 62.0881 115.172 62.0881C115.453 62.0881 115.722 62.1993 115.921 62.3975C116.12 62.5956 116.233 62.8645 116.234 63.1454Z" fill="white"/>
</g>
<g id="Table">
<path id="Vector_376" d="M7.39545 204.36C63.8404 204.089 127.153 204.089 183.598 204.36C127.153 204.635 63.8404 204.635 7.39545 204.36Z" fill="#263238"/>
</g>
</g>
</svg>
