<svg width="198" height="202" viewBox="0 0 198 202" fill="none" xmlns="http://www.w3.org/2000/svg">
<path id="Vector" d="M98.555 34.96C124.692 34.96 147.251 50.2422 157.799 72.3605H197.11C184.914 30.5517 146.312 0 100.561 0C45.0225 0 0 45.0225 0 100.561C0 156.1 45.0225 201.122 100.561 201.122C143.271 201.122 179.758 174.5 194.337 136.939H153.148C152.752 137.534 152.343 138.121 151.921 138.703C151.902 135.444 151.877 132.135 151.857 128.838C149.002 128.857 146.267 128.877 143.456 128.896C143.469 130.896 143.482 132.806 143.494 134.748C142.638 134.895 141.853 135.036 140.971 135.189C141.003 140.306 141.041 145.411 141.073 150.509C140.255 151.206 139.425 151.877 138.575 152.535C138.486 138.939 138.396 125.363 138.3 111.754C134.722 111.78 131.221 111.799 127.599 111.825C127.631 116.974 127.669 122.072 127.701 127.19C126.308 127.196 125.037 127.209 123.766 127.216C123.708 127.145 123.644 127.081 123.587 127.011C123.567 126.008 123.542 125.011 123.536 124.008C123.478 117.479 123.427 110.949 123.369 104.42C123.312 104.35 123.254 104.273 123.197 104.203C120.565 104.222 117.926 104.241 115.204 104.254C115.224 106.79 115.268 109.263 115.249 111.729C115.217 115.23 115.939 114.802 112.515 114.789L112.317 114.444C112.246 114.585 112.176 114.719 112.106 114.859C112.182 126.596 112.266 138.332 112.323 150.069C112.336 152.861 112.904 152.586 110.042 152.56C109.991 152.56 109.934 152.471 109.793 152.349C109.761 147.36 109.723 142.287 109.691 137.182C107.301 137.195 105.001 137.214 102.561 137.227C102.586 140.766 102.606 144.261 102.631 147.73C101.781 147.73 101.079 147.743 100.318 147.743C100.318 147.219 100.318 146.785 100.312 146.35C100.159 123.242 99.9989 100.127 99.8456 77.0181C99.8456 76.7369 99.9222 76.4047 99.8136 76.1939C99.705 75.9767 99.4175 75.8744 99.2131 75.7147C98.868 75.7147 98.5231 75.7147 98.1781 75.7211C97.8778 75.6956 97.5775 75.67 97.175 75.6317C97.1686 74.29 97.1558 72.9867 97.1495 71.6386C96.1911 71.645 95.335 71.6514 94.4853 71.6578C93.2842 68.9489 92.345 66.2719 92.5111 63.1478C92.6644 60.1961 92.5111 57.2189 92.4855 54.2544C92.4855 53.8328 92.4855 53.4111 92.4792 53.0789C91.5911 52.7467 91.425 53.13 91.4378 53.9222C91.4889 57.1294 91.3803 60.3431 91.5528 63.5375C91.6806 65.8631 90.9906 67.8372 90.2878 69.8881C89.7958 71.3256 89.0675 72.0475 87.7003 71.7153C87.4894 71.6642 87.2467 71.7664 86.9336 71.8047C86.94 73.1656 86.9528 74.4689 86.9592 75.8553C86.02 75.8553 85.1703 75.868 84.2439 75.8744C84.3781 96.1464 84.5122 116.316 84.6464 136.511C83.6881 136.518 82.8256 136.524 81.8417 136.531C81.8097 131.573 81.7778 126.711 81.7458 121.759C77.6442 121.785 73.6575 121.811 69.575 121.842C69.5558 118.52 69.5303 115.294 69.5111 112.036C62.7517 112.08 56.0881 112.125 49.3222 112.17C49.3414 114.994 49.3605 117.734 49.3797 120.571C48.2553 120.577 47.2394 120.584 46.1214 120.59C46.1661 127.132 46.2108 133.624 46.2492 140.127C37.9181 129.126 32.9667 115.415 32.9667 100.555C32.9667 64.3233 62.3364 34.9536 98.5678 34.9536L98.555 34.96Z" fill="white"/>
</svg>
