<svg width="16" height="18" viewBox="0 0 16 18" fill="none" xmlns="http://www.w3.org/2000/svg">
<g id="Person">
<path id="Person_2" d="M15 17C15 15.7595 15 15.1392 14.8493 14.6345C14.51 13.4982 13.6346 12.6089 12.516 12.2642C12.0192 12.1111 11.4086 12.1111 10.1875 12.1111H5.8125C4.59138 12.1111 3.98082 12.1111 3.484 12.2642C2.3654 12.6089 1.49004 13.4982 1.15071 14.6345C1 15.1392 1 15.7595 1 17M11.9375 5C11.9375 7.20914 10.1746 9 8 9C5.82538 9 4.0625 7.20914 4.0625 5C4.0625 2.79086 5.82538 1 8 1C10.1746 1 11.9375 2.79086 11.9375 5Z" stroke="black" stroke-width="2" stroke-linecap="round" stroke-linejoin="round"/>
</g>
</svg>
