<svg width="334" height="63" viewBox="0 0 334 63" fill="none" xmlns="http://www.w3.org/2000/svg">
<rect x="0.5" y="7" width="49" height="49" rx="24.5" fill="white"/>
<rect x="0.5" y="7" width="49" height="49" rx="24.5" stroke="#354458"/>
<path d="M31.6666 26.5L22.5 35.6667L18.3333 31.5" stroke="#354458" stroke-width="2" stroke-linecap="round" stroke-linejoin="round"/>
<line x1="50" y1="30.6" x2="94.6667" y2="30.6" stroke="#354458" stroke-width="1.8"/>
<rect x="95.1667" y="7" width="49" height="49" rx="24.5" fill="white"/>
<rect x="95.1667" y="7" width="49" height="49" rx="24.5" stroke="#354458"/>
<path d="M126.333 26.5L117.167 35.6667L113 31.5" stroke="#354458" stroke-width="2" stroke-linecap="round" stroke-linejoin="round"/>
<line x1="144.667" y1="30.6" x2="189.333" y2="30.6" stroke="#354458" stroke-width="1.8"/>
<rect x="189.833" y="7" width="49" height="49" rx="24.5" fill="#354458"/>
<rect x="189.833" y="7" width="49" height="49" rx="24.5" stroke="#354458"/>
<path d="M209.799 28.02C209.852 26.5933 210.319 25.4933 211.199 24.72C212.079 23.9467 213.272 23.56 214.779 23.56C215.779 23.56 216.632 23.7333 217.339 24.08C218.059 24.4267 218.599 24.9 218.959 25.5C219.332 26.1 219.519 26.7733 219.519 27.52C219.519 28.4 219.299 29.12 218.859 29.68C218.419 30.2267 217.905 30.6 217.319 30.8V30.88C218.079 31.1333 218.679 31.5533 219.119 32.14C219.559 32.7267 219.779 33.48 219.779 34.4C219.779 35.2267 219.585 35.96 219.199 36.6C218.825 37.2267 218.272 37.72 217.539 38.08C216.819 38.44 215.959 38.62 214.959 38.62C213.359 38.62 212.079 38.2267 211.119 37.44C210.172 36.6533 209.672 35.4667 209.619 33.88H212.939C212.952 34.4667 213.119 34.9333 213.439 35.28C213.759 35.6133 214.225 35.78 214.839 35.78C215.359 35.78 215.759 35.6333 216.039 35.34C216.332 35.0333 216.479 34.6333 216.479 34.14C216.479 33.5 216.272 33.04 215.859 32.76C215.459 32.4667 214.812 32.32 213.919 32.32H213.279V29.54H213.919C214.599 29.54 215.145 29.4267 215.559 29.2C215.985 28.96 216.199 28.54 216.199 27.94C216.199 27.46 216.065 27.0867 215.799 26.82C215.532 26.5533 215.165 26.42 214.699 26.42C214.192 26.42 213.812 26.5733 213.559 26.88C213.319 27.1867 213.179 27.5667 213.139 28.02H209.799Z" fill="#FEFEFE"/>
<line x1="239.333" y1="30.6" x2="284" y2="30.6" stroke="#354458" stroke-width="1.8"/>
<rect x="284.5" y="7" width="49" height="49" rx="24.5" fill="white"/>
<rect x="284.5" y="7" width="49" height="49" rx="24.5" stroke="#354458"/>
<path d="M303.829 35.66V33.46L310.369 24.1H313.629V33.22H315.389V35.66H313.629V38.5H310.829V35.66H303.829ZM311.009 27.1L306.909 33.22H311.009V27.1Z" fill="#354458"/>
</svg>
