<svg width="334" height="63" viewBox="0 0 334 63" fill="none" xmlns="http://www.w3.org/2000/svg">
<rect x="0.5" y="7" width="49" height="49" rx="24.5" fill="#354458"/>
<rect x="0.5" y="7" width="49" height="49" rx="24.5" stroke="#354458"/>
<path d="M22.2802 27.08V23.9H27.8202V38.5H24.2602V27.08H22.2802Z" fill="white"/>
<line x1="50" y1="30.6" x2="94.6667" y2="30.6" stroke="#354458" stroke-width="1.8"/>
<rect x="95.1667" y="7" width="49" height="49" rx="24.5" fill="#FEFEFE"/>
<rect x="95.1667" y="7" width="49" height="49" rx="24.5" stroke="#354458"/>
<path d="M115.234 35.76C115.687 35.4 115.894 35.2333 115.854 35.26C117.16 34.18 118.187 33.2933 118.934 32.6C119.694 31.9067 120.334 31.18 120.854 30.42C121.374 29.66 121.634 28.92 121.634 28.2C121.634 27.6533 121.507 27.2267 121.254 26.92C121 26.6133 120.62 26.46 120.114 26.46C119.607 26.46 119.207 26.6533 118.914 27.04C118.634 27.4133 118.494 27.9467 118.494 28.64H115.194C115.22 27.5067 115.46 26.56 115.914 25.8C116.38 25.04 116.987 24.48 117.734 24.12C118.494 23.76 119.334 23.58 120.254 23.58C121.84 23.58 123.034 23.9867 123.834 24.8C124.647 25.6133 125.054 26.6733 125.054 27.98C125.054 29.4067 124.567 30.7333 123.594 31.96C122.62 33.1733 121.38 34.36 119.874 35.52H125.274V38.3H115.234V35.76Z" fill="#354458"/>
<line x1="144.667" y1="30.6" x2="189.333" y2="30.6" stroke="#354458" stroke-width="1.8"/>
<rect x="189.833" y="7" width="49" height="49" rx="24.5" fill="white"/>
<rect x="189.833" y="7" width="49" height="49" rx="24.5" stroke="#354458"/>
<path d="M209.799 28.02C209.852 26.5933 210.319 25.4933 211.199 24.72C212.079 23.9467 213.272 23.56 214.779 23.56C215.779 23.56 216.632 23.7333 217.339 24.08C218.059 24.4267 218.599 24.9 218.959 25.5C219.332 26.1 219.519 26.7733 219.519 27.52C219.519 28.4 219.299 29.12 218.859 29.68C218.419 30.2267 217.905 30.6 217.319 30.8V30.88C218.079 31.1333 218.679 31.5533 219.119 32.14C219.559 32.7267 219.779 33.48 219.779 34.4C219.779 35.2267 219.585 35.96 219.199 36.6C218.825 37.2267 218.272 37.72 217.539 38.08C216.819 38.44 215.959 38.62 214.959 38.62C213.359 38.62 212.079 38.2267 211.119 37.44C210.172 36.6533 209.672 35.4667 209.619 33.88H212.939C212.952 34.4667 213.119 34.9333 213.439 35.28C213.759 35.6133 214.225 35.78 214.839 35.78C215.359 35.78 215.759 35.6333 216.039 35.34C216.332 35.0333 216.479 34.6333 216.479 34.14C216.479 33.5 216.272 33.04 215.859 32.76C215.459 32.4667 214.812 32.32 213.919 32.32H213.279V29.54H213.919C214.599 29.54 215.145 29.4267 215.559 29.2C215.985 28.96 216.199 28.54 216.199 27.94C216.199 27.46 216.065 27.0867 215.799 26.82C215.532 26.5533 215.165 26.42 214.699 26.42C214.192 26.42 213.812 26.5733 213.559 26.88C213.319 27.1867 213.179 27.5667 213.139 28.02H209.799Z" fill="#354458"/>
<line x1="239.333" y1="30.6" x2="284" y2="30.6" stroke="#354458" stroke-width="1.8"/>
<rect x="284.5" y="7" width="49" height="49" rx="24.5" fill="white"/>
<rect x="284.5" y="7" width="49" height="49" rx="24.5" stroke="#354458"/>
<path d="M303.829 35.66V33.46L310.369 24.1H313.629V33.22H315.389V35.66H313.629V38.5H310.829V35.66H303.829ZM311.009 27.1L306.909 33.22H311.009V27.1Z" fill="#354458"/>
</svg>
